<svg width="111" height="116" viewBox="0 0 111 116" fill="none" xmlns="http://www.w3.org/2000/svg">
<g clip-path="url(#clip0_54_2642)">
<path fill-rule="evenodd" clip-rule="evenodd" d="M55.5002 105.422C80.4783 105.422 100.727 85.2772 100.727 60.4275C100.727 35.5778 80.4783 15.4331 55.5002 15.4331C30.5222 15.4331 10.2734 35.5778 10.2734 60.4275C10.2734 85.2772 30.5222 105.422 55.5002 105.422Z" stroke="#6F6C99" stroke-width="0.305962" stroke-dasharray="1.84 1.84"/>
<path fill-rule="evenodd" clip-rule="evenodd" d="M55.5 114.966C85.7764 114.966 110.32 90.5481 110.32 60.4273C110.32 30.3064 85.7764 5.88867 55.5 5.88867C25.2236 5.88867 0.679688 30.3064 0.679688 60.4273C0.679688 90.5481 25.2236 114.966 55.5 114.966Z" stroke="#6F6C99" stroke-width="0.305962" stroke-dasharray="1.84 1.84"/>
<path d="M38.1245 41.6141L38.1245 41.6141L38.1254 41.6132C38.3238 41.4197 38.5602 41.2654 38.8215 41.16C39.0828 41.0545 39.3633 41 39.647 41C39.9307 41 40.2112 41.0545 40.4725 41.16C40.7338 41.2654 40.9702 41.4197 41.1686 41.6132L41.169 41.6136L55.1519 55.2238L55.5007 55.5632L55.8494 55.2238L69.8323 41.6137C70.031 41.4204 70.2675 41.2664 70.5288 41.161C70.7902 41.0557 71.0707 41.0013 71.3544 41.0013C71.638 41.0013 71.9186 41.0557 72.1799 41.161C72.4412 41.2664 72.6778 41.4204 72.8764 41.6136L73.2251 41.2553L72.8764 41.6137C73.0751 41.8069 73.2319 42.0356 73.3386 42.2862C73.4453 42.5369 73.5 42.805 73.5 43.0755C73.5 43.3459 73.4453 43.614 73.3386 43.8647C73.2319 44.1153 73.0751 44.344 72.8765 44.5372C72.8765 44.5372 72.8765 44.5373 72.8764 44.5373L58.8883 58.1422L58.5197 58.5007L58.8883 58.8591L72.8764 72.4641C72.8765 72.4641 72.8765 72.4641 72.8765 72.4641C73.0751 72.6574 73.2319 72.886 73.3386 73.1367C73.4453 73.3873 73.5 73.6554 73.5 73.9259C73.5 74.1963 73.4453 74.4645 73.3386 74.7151C73.2319 74.9658 73.0751 75.1945 72.8764 75.3877C72.6778 75.581 72.4412 75.735 72.1799 75.8403C71.9186 75.9456 71.638 76 71.3544 76C71.0707 76 70.7902 75.9456 70.5289 75.8403C70.2675 75.735 70.031 75.581 69.8323 75.3877L55.8494 61.7776L55.5007 61.4381L55.1519 61.7776L41.1691 75.3877C40.9704 75.581 40.7339 75.735 40.4725 75.8403L40.6594 76.3041L40.4725 75.8403C40.2112 75.9456 39.9306 76 39.647 76C39.3634 76 39.0828 75.9456 38.8215 75.8403L38.6346 76.3041L38.8215 75.8403C38.5602 75.735 38.3236 75.581 38.1249 75.3877C37.9263 75.1945 37.7695 74.9658 37.6628 74.7151C37.5561 74.4645 37.5014 74.1963 37.5014 73.9259C37.5014 73.6554 37.5561 73.3873 37.6628 73.1367C37.7695 72.886 37.9263 72.6574 38.1249 72.4641C38.1249 72.4641 38.1249 72.4641 38.1249 72.4641L52.1131 58.8591L52.4816 58.5007L52.1131 58.1422L38.1249 44.5372L38.1245 44.5368C37.9256 44.3438 37.7686 44.1153 37.6617 43.8646C37.5548 43.6141 37.5 43.3459 37.5 43.0755C37.5 42.805 37.5548 42.5369 37.6617 42.2863C37.7686 42.0357 37.9256 41.8071 38.1245 41.6141Z" fill="#C21B1B" stroke="white"/>
</g>
<defs>
<clipPath id="clip0_54_2642">
<rect width="110.633" height="115" fill="white" transform="translate(0.183594 0.5)"/>
</clipPath>
</defs>
</svg>
