<svg width="202" height="210" viewBox="0 0 202 210" fill="none" xmlns="http://www.w3.org/2000/svg">
<path d="M201.117 194.008L5.61432 192.318V197.318C5.61432 198.675 6.46714 199.829 7.62174 200.035L62.9037 209.88C63.5598 209.997 64.2253 210.029 64.8869 209.973L198.991 198.747C200.188 198.646 201.115 197.489 201.115 196.095V194.008H201.117Z" fill="#6F6C99"/>
<path d="M129.172 185.996L4.91429 195.143C2.69054 195.307 0.882996 193.567 0.882996 191.257V98.7265C0.882996 96.4173 2.69054 94.5447 4.91429 94.5447H129.172C131.004 94.5447 132.485 96.237 132.485 98.3251V181.971C132.485 184.059 131.004 185.861 129.172 185.996Z" fill="#6F6C99"/>
<path d="M131.153 185.995L6.89488 195.143C4.67113 195.307 2.86359 193.567 2.86359 191.257V98.7263C2.86359 96.4172 4.67113 94.5446 6.89488 94.5446H131.153C132.984 94.5446 134.466 96.2369 134.466 98.325V181.971C134.466 184.059 132.985 185.861 131.153 185.995Z" fill="#EEEEEE"/>
<path d="M127.282 180.098L11.5496 188.043C9.74045 188.167 8.26996 186.74 8.26996 184.855V103.844C8.26996 101.959 9.74045 100.423 11.5496 100.416L127.282 99.9169C128.793 99.9106 130.015 101.297 130.015 103.015V176.802C130.015 178.519 128.793 179.995 127.282 180.098V180.098Z" fill="#A9A7C2"/>
<path d="M73.4125 97.075C73.4125 97.9348 72.7729 98.634 71.9836 98.6364C71.1927 98.6387 70.5515 97.9427 70.5515 97.0805C70.5515 96.2182 71.1935 95.5198 71.9836 95.519C72.7737 95.519 73.4125 96.2151 73.4125 97.075Z" fill="#EEEEEE"/>
<g style="mix-blend-mode:soft-light" opacity="0.48">
<path d="M6.89508 195.142L130.524 186.041L131.154 185.994C131.994 185.932 132.758 185.517 133.342 184.887C124.445 184.4 118.92 181.243 115.355 177.98C108.197 171.429 109.439 164.968 101.72 160.661C92.0916 155.289 84.5205 162.097 77.2143 155.38C72.7848 151.308 74.9592 148.271 69.5091 142.185C63.4728 135.445 59.5426 137.711 53.4757 131.645C45.805 123.975 49.6411 118.008 43.0333 112.5C35.017 105.82 26.3728 112.004 18.7421 105.596C15.4507 102.833 13.6447 98.8154 12.7018 94.5435H6.89586C4.6721 94.5435 2.86456 96.4161 2.86456 98.7253V191.256C2.86456 193.565 4.6721 195.305 6.89586 195.142H6.89508Z" fill="#EEEEEE"/>
</g>
<path d="M137.007 185.487L5.61432 195.115L62.9037 205.319C63.5598 205.435 64.2253 205.467 64.8869 205.411L201.116 194.007L139.097 185.552C138.403 185.458 137.704 185.436 137.007 185.487Z" fill="url(#paint0_linear_205_3020)"/>
<path d="M24.7869 195.198L134.175 187.064L168.03 191.641L59.584 200.338L24.7869 195.198Z" fill="#A9A7C2"/>
<path d="M61.0998 163.88C56.9713 163.616 53.0717 160.999 51.3943 156.971L27.7419 100.158C25.5887 94.985 28.0178 89.1305 33.1951 87.0541C38.4092 84.9636 46.5368 87.4256 48.7457 92.6539L73.0103 150.083C75.2976 155.498 72.7179 161.418 67.2773 163.281C65.9369 163.74 62.4614 163.968 61.0991 163.88H61.0998Z" fill="url(#paint1_linear_205_3020)"/>
<path style="mix-blend-mode:multiply" opacity="0.3" d="M33.1951 87.0541C38.4092 84.9636 46.5368 87.4256 48.7457 92.6539L70.9324 145.163C67.2193 144.209 62.8235 144.295 58.6041 140.595C51.5801 134.436 55.0352 126.543 49.4684 119.512C46.9233 116.298 42.2147 112.915 32.6291 111.897L27.7419 100.158C25.5887 94.985 28.0178 89.1305 33.1951 87.0541Z" fill="url(#paint2_linear_205_3020)"/>
<path d="M18.9557 75.7799C19.1587 75.7799 19.361 75.7956 19.5608 75.823L34.1818 75.6624V113.679L20.0633 113.485C19.7004 113.578 19.3304 113.625 18.9557 113.625C13.9446 113.625 9.88275 105.154 9.88275 94.7026C9.88275 84.2517 13.9446 75.7799 18.9557 75.7799Z" fill="url(#paint3_linear_205_3020)"/>
<path d="M34.1818 75.6628C28.644 88.3218 28.644 100.935 34.1818 113.679L142.941 148.646L144.065 41.9458L34.1818 75.662V75.6628Z" fill="url(#paint4_linear_205_3020)"/>
<path style="mix-blend-mode:multiply" opacity="0.3" d="M113.582 117.283C103.242 113.366 100.028 98.3637 88.0225 97.8589C78.6023 97.4631 75.764 106.61 66.5343 105.623C57.0858 104.613 55.4993 94.4265 44.9182 90.8357C40.107 89.203 35.0748 89.5048 30.1891 90.8851C29.533 98.4453 30.8577 106.03 34.182 113.68L142.942 148.647L136.508 112.419C125.784 118.674 118.595 119.183 113.582 117.283Z" fill="url(#paint5_linear_205_3020)"/>
<path d="M148.215 150.051C162.826 150.051 174.671 125.348 174.671 94.8754C174.671 64.4028 162.826 39.7 148.215 39.7C133.604 39.7 121.76 64.4028 121.76 94.8754C121.76 125.348 133.604 150.051 148.215 150.051Z" fill="url(#paint6_linear_205_3020)"/>
<path d="M148.215 148.178C151.317 148.178 154.365 146.877 157.275 144.311C160.236 141.699 162.914 137.92 165.235 133.081C170.113 122.907 172.8 109.339 172.8 94.8754C172.8 80.412 170.114 66.8437 165.235 56.6702C162.915 51.8308 160.236 48.0527 157.275 45.4401C154.365 42.8738 151.318 41.5726 148.215 41.5726C145.113 41.5726 142.065 42.8738 139.156 45.4401C136.194 48.0519 133.517 51.8308 131.196 56.6702C129.156 60.9241 127.499 65.7714 126.262 71.0294C124.541 78.3466 129.517 85.9851 129.517 94.4012C129.517 103.35 124.659 112.43 126.599 120.102C127.795 124.829 129.336 129.201 131.196 133.081C133.517 137.92 136.194 141.698 139.156 144.311C142.065 146.877 145.113 148.178 148.215 148.178Z" fill="url(#paint7_linear_205_3020)"/>
<mask id="mask0_205_3020" style="mask-type:luminance" maskUnits="userSpaceOnUse" x="123" y="41" width="50" height="108">
<path d="M148.215 148.178C151.317 148.178 154.365 146.877 157.275 144.311C160.236 141.699 162.914 137.92 165.235 133.081C170.113 122.907 172.8 109.339 172.8 94.8754C172.8 80.412 170.113 66.8437 165.235 56.6702C162.915 51.8308 160.236 48.0527 157.275 45.4401C154.365 42.8738 151.318 41.5726 148.215 41.5726C145.113 41.5726 142.065 42.8738 139.156 45.4401C136.194 48.0519 133.517 51.8308 131.196 56.6702C126.318 66.8437 123.631 80.412 123.631 94.8754C123.631 109.339 126.317 122.907 131.196 133.081C133.517 137.92 136.194 141.698 139.156 144.311C142.065 146.877 145.113 148.178 148.215 148.178Z" fill="white"/>
</mask>
<g mask="url(#mask0_205_3020)">
<path d="M150.392 95.5999C150.392 109.579 141.136 120.678 129.879 120.395C118.796 120.116 109.936 108.877 109.936 95.2872C109.936 81.6977 118.796 70.5946 129.879 70.488C141.136 70.379 150.392 81.6217 150.392 95.6007V95.5999Z" fill="url(#paint8_linear_205_3020)"/>
<path style="mix-blend-mode:multiply" opacity="0.3" d="M148.613 95.3717C148.613 105.752 144.103 113.994 138.619 113.784C133.219 113.577 128.902 105.231 128.902 95.1397C128.902 85.0485 133.219 76.804 138.619 76.7241C144.103 76.6434 148.613 84.9913 148.613 95.3717Z" fill="url(#paint9_linear_205_3020)"/>
</g>
<mask id="mask1_205_3020" style="mask-type:luminance" maskUnits="userSpaceOnUse" x="2" y="0" width="135" height="173">
<path d="M114.999 139.692L136.495 146.603L110.12 172.328C110.12 172.328 3.20308 173.116 2.94049 171.015C2.6779 168.913 6.0931 40.371 6.0931 40.371C6.09232 40.3702 88.5329 0 90.2636 0C91.9943 0 129.122 24.1682 129.122 24.1682L80.435 58.5812L114.999 139.692Z" fill="white"/>
</mask>
<g mask="url(#mask1_205_3020)">
<path d="M148.64 90.4992C148.64 120.941 125.309 147.967 94.2689 151.307C60.2525 154.968 30.0817 129.085 30.0817 93.2819C30.0817 60.5917 54.9122 34.7963 85.8779 32.2958V41.5522H89.054V39.8795L112.609 27.3812L89.054 11.6408V9.52759H85.8779V19.7638C78.4674 20.0193 72.1622 21.2923 65.5153 23.5631C56.244 26.7298 47.7409 31.6986 40.2646 38.3667C32.6394 45.1681 26.5379 53.3459 22.2221 62.6478C17.7009 72.3909 15.3854 82.8356 15.3854 93.6064C15.3854 104.377 17.6962 114.713 22.2174 124.242C26.5332 133.339 32.6276 141.229 40.2528 147.67C47.7283 153.985 56.2534 158.549 65.5231 161.276C74.8853 164.031 84.5689 164.773 94.2838 163.56C103.739 162.379 112.677 159.409 120.887 154.799C128.633 150.451 135.439 144.81 141.173 138.053C146.811 131.41 151.17 124 154.183 115.943C157.273 107.676 158.828 98.7397 158.828 90.2578L148.639 90.5L148.64 90.4992Z" fill="url(#paint10_linear_205_3020)"/>
<path d="M151.793 90.4989C151.793 120.941 128.462 147.966 97.4215 151.307C63.4059 154.968 33.2461 129.085 33.2461 93.2815C33.2461 60.5914 58.0884 34.796 89.054 32.2955V41.5519L115.762 27.3808L89.054 9.5343V19.7634C81.6436 20.019 75.3266 21.2919 68.6796 23.5627C59.4083 26.7294 50.899 31.6982 43.4235 38.3664C35.7982 45.1678 29.6945 53.3456 25.3779 62.6474C20.8567 72.3906 18.5404 82.8353 18.5404 93.606C18.5404 104.377 20.8504 114.713 25.3716 124.242C29.6874 133.34 35.7818 141.229 43.407 147.67C50.8825 153.985 59.4068 158.549 68.6773 161.276C78.0395 164.03 87.7231 164.773 97.4372 163.559C106.893 162.379 115.83 159.409 124.041 154.799C131.786 150.451 138.592 144.81 144.327 138.052C149.964 131.41 154.324 124 157.336 115.942C160.427 107.675 161.982 98.7394 161.982 90.2575L151.792 90.4997L151.793 90.4989Z" fill="url(#paint11_linear_205_3020)"/>
</g>
<defs>
<linearGradient id="paint0_linear_205_3020" x1="5.61432" y1="195.45" x2="201.117" y2="195.45" gradientUnits="userSpaceOnUse">
<stop offset="0.49" stop-color="#A19FBB" stop-opacity="0.55"/>
<stop offset="1" stop-color="white"/>
</linearGradient>
<linearGradient id="paint1_linear_205_3020" x1="66.3085" y1="106.396" x2="34.3363" y2="144.103" gradientUnits="userSpaceOnUse">
<stop stop-color="#6F6C99"/>
<stop offset="1" stop-color="#6F6C99"/>
</linearGradient>
<linearGradient id="paint2_linear_205_3020" x1="62.3704" y1="103.057" x2="30.3983" y2="140.763" gradientUnits="userSpaceOnUse">
<stop stop-color="#6F6C99"/>
<stop offset="1" stop-color="#6F6C99"/>
</linearGradient>
<linearGradient id="paint3_linear_205_3020" x1="12.6395" y1="79.6262" x2="38.4467" y2="110.063" gradientUnits="userSpaceOnUse">
<stop stop-color="#BBBACF"/>
<stop offset="1" stop-color="#B3B1C9"/>
</linearGradient>
<linearGradient id="paint4_linear_205_3020" x1="81.0713" y1="37.2083" x2="110.577" y2="200.412" gradientUnits="userSpaceOnUse">
<stop stop-color="#BDBBD0"/>
<stop offset="1" stop-color="#A19FBD"/>
</linearGradient>
<linearGradient id="paint5_linear_205_3020" x1="70.9755" y1="37.507" x2="100.849" y2="202.742" gradientUnits="userSpaceOnUse">
<stop stop-color="#BDBBD0"/>
<stop offset="1" stop-color="#A19FBD"/>
</linearGradient>
<linearGradient id="paint6_linear_205_3020" x1="118.827" y1="60.217" x2="177.602" y2="129.534" gradientUnits="userSpaceOnUse">
<stop stop-color="#BBBACF"/>
<stop offset="1" stop-color="#B3B1C9"/>
</linearGradient>
<linearGradient id="paint7_linear_205_3020" x1="125.9" y1="94.8754" x2="172.799" y2="94.8754" gradientUnits="userSpaceOnUse">
<stop stop-color="#A9A7C2"/>
<stop offset="1" stop-color="white"/>
</linearGradient>
<linearGradient id="paint8_linear_205_3020" x1="120.57" y1="42.3645" x2="139.835" y2="148.923" gradientUnits="userSpaceOnUse">
<stop stop-color="#6F6C99"/>
<stop offset="1" stop-color="#6F6C99"/>
</linearGradient>
<linearGradient id="paint9_linear_205_3020" x1="131.679" y1="56.0918" x2="145.894" y2="134.716" gradientUnits="userSpaceOnUse">
<stop stop-color="#6F6C99"/>
<stop offset="1" stop-color="#6F6C99"/>
</linearGradient>
<linearGradient id="paint10_linear_205_3020" x1="202.488" y1="-95.4414" x2="41.4678" y2="166.016" gradientUnits="userSpaceOnUse">
<stop stop-color="#6F6C99"/>
<stop offset="1" stop-color="#6F6C99"/>
</linearGradient>
<linearGradient id="paint11_linear_205_3020" x1="101.095" y1="74.3173" x2="-58.07" y2="332.762" gradientUnits="userSpaceOnUse">
<stop stop-color="#6F6C99"/>
<stop offset="1" stop-color="#6F6C99"/>
</linearGradient>
</defs>
</svg>
