<svg width="154" height="210" viewBox="0 0 154 210" fill="none" xmlns="http://www.w3.org/2000/svg">
<path d="M139.981 174.871C140.015 173.864 139.667 172.727 139.091 171.74C138.973 171.538 138.845 171.343 138.708 171.155C138.702 171.146 138.695 171.137 138.689 171.128C138.556 170.948 138.417 170.776 138.27 170.615C138.257 170.6 138.244 170.587 138.231 170.573C138.087 170.417 137.937 170.27 137.78 170.136C137.766 170.124 137.752 170.114 137.738 170.102C137.578 169.968 137.413 169.844 137.243 169.738C137.146 169.678 137.05 169.624 136.955 169.577C136.911 169.554 136.868 169.538 136.825 169.519C136.775 169.497 136.724 169.471 136.674 169.452C136.602 169.425 136.531 169.404 136.461 169.384C136.441 169.379 136.422 169.37 136.403 169.366C136.319 169.344 136.237 169.329 136.156 169.317C136.151 169.317 136.146 169.315 136.141 169.315C135.799 169.27 135.488 169.32 135.221 169.455L135.22 169.456C135.218 169.457 135.216 169.457 135.214 169.458L135.213 169.457C132.667 170.735 117.986 180.074 111.23 184.285L107.882 186.317C107.785 186.37 107.705 186.454 107.635 186.551C107.627 186.563 107.618 186.575 107.61 186.587C107.582 186.632 107.556 186.678 107.534 186.731C107.52 186.762 107.509 186.797 107.498 186.832C107.484 186.875 107.469 186.915 107.459 186.963C107.453 186.991 107.45 187.021 107.445 187.051C107.291 187.134 107.104 187.236 106.892 187.354L106.398 187.621C105.34 186.599 104.063 185.648 102.579 184.791C97.9484 182.118 91.8124 180.646 85.3013 180.646C78.7896 180.646 72.6536 182.118 68.0236 184.791C63.2264 187.561 60.5848 191.301 60.5848 195.323C60.5848 199.345 63.2264 203.084 68.0231 205.854C72.6536 208.527 78.7896 210 85.3008 210C91.8124 210 97.9484 208.527 102.579 205.854C107.376 203.084 110.018 199.344 110.018 195.323C110.018 193.51 109.476 191.755 108.447 190.119L108.888 189.881C109.252 190.081 109.586 190.108 109.837 189.973L109.857 189.962C112.15 188.699 134.497 179.176 139.066 176.726L139.067 176.726C139.068 176.725 139.069 176.725 139.07 176.724C139.604 176.436 139.95 175.796 139.981 174.871ZM100.468 202.195C96.4685 204.504 91.0828 205.776 85.3018 205.776C79.5202 205.776 74.134 204.504 70.1358 202.195C66.7006 200.213 64.8089 197.772 64.8089 195.323C64.8089 192.873 66.7006 190.432 70.1358 188.449C74.134 186.14 79.5197 184.869 85.3018 184.869C91.0838 184.869 96.4695 186.14 100.468 188.449C103.903 190.432 105.795 192.873 105.795 195.323C105.794 197.772 103.903 200.213 100.468 202.195Z" fill="#4C4C66"/>
<path d="M143.394 118.298L120.726 105.184C119.574 104.519 117.707 104.519 116.555 105.184L1.4122 171.662C0.26071 172.327 0.26071 173.405 1.4122 174.07L24.079 187.185C25.2305 187.85 27.0981 187.85 28.2496 187.185L71.3996 162.272L78.0321 166.128C81.5444 168.156 87.2392 168.156 90.7515 166.129L110.524 154.797C114.037 152.77 114.038 149.483 110.525 147.455L103.898 143.601L143.394 120.706C144.545 120.041 144.545 118.963 143.394 118.298Z" fill="#4C4C66"/>
<path d="M90.754 164.216L107.79 154.366C109.546 153.352 110.424 152.023 110.424 150.694C110.424 149.365 110.431 148.325 110.431 148.325L94.4006 139.226C93.4644 138.685 92.7049 137.37 92.7049 136.288V115.285L62.9491 132.479L62.9481 153.483C62.9481 154.565 63.7071 155.879 64.6438 156.42L78.0346 164.216C81.5473 166.244 87.2417 166.244 90.754 164.216Z" fill="#4C4C66"/>
<path d="M70.0925 157.202V159.562L64.639 156.419C63.709 155.88 62.9452 154.568 62.9452 153.482V132.48L68.614 129.21C68.7316 130.649 68.8587 132.137 68.9762 133.586L65.0011 135.887V152.297C65.0011 153.384 65.7548 154.696 66.6954 155.235L70.0925 157.202Z" fill="#4C4C66"/>
<path d="M65.0006 152.301C65.0006 153.382 65.7601 154.697 66.6963 155.238L78.0326 161.847C81.5448 163.875 87.2397 163.875 90.752 161.848L107.797 151.999C111.309 149.972 111.31 146.685 107.798 144.657L96.4531 138.042C95.5164 137.501 94.7569 136.186 94.7569 135.105V118.693L65.0001 135.887L65.0006 152.301Z" fill="#6F6C99"/>
<path opacity="0.15" d="M99.9076 140.04V140.037L96.4536 138.043C95.5169 137.502 94.7574 136.187 94.7574 135.106V118.694L65.0006 135.888V152.301C65.0006 153.383 65.7601 154.698 66.6968 155.238L70.0911 157.198L99.9076 140.04Z" fill="#4C4C66"/>
<path d="M110.428 148.326C110.428 148.326 110.428 149.364 110.428 150.696C110.428 152.027 109.547 153.349 107.794 154.368L90.7554 164.212C89.0713 165.191 86.8878 165.681 84.6849 165.72V163.36C86.8878 163.331 89.0713 162.822 90.7554 161.852L107.794 151.998C109.547 150.99 110.428 149.658 110.428 148.326Z" fill="#4C4C66"/>
<path d="M17.223 174.96C18.321 175.594 20.1607 175.56 21.3315 174.884C35.9609 166.438 121.781 116.891 136.408 108.446C137.579 107.77 138.527 106.127 138.527 104.775V4.04963C138.527 2.6978 137.637 1.08782 136.539 0.454044C135.441 -0.179736 133.601 -0.146024 132.431 0.530136L17.3554 66.9676C16.1847 67.6438 15.2355 69.2875 15.2355 70.6393L15.2345 171.364C15.2345 172.716 16.125 174.326 17.223 174.96Z" fill="#6F6C99"/>
<path d="M21.3319 174.882L136.408 108.444C137.579 107.767 138.528 106.124 138.528 104.772V4.0467C138.528 2.69487 137.579 2.14681 136.408 2.82297L21.3333 69.261C20.1626 69.9366 19.2134 71.5808 19.2134 72.9326L19.2119 173.657C19.2119 175.009 20.1611 175.557 21.3319 174.882Z" fill="#4C4C66"/>
<path d="M23.1885 160.352L23.1894 74.2528C23.1894 73.4418 23.7587 72.4555 24.4613 72.05L133.276 9.22492C133.979 8.81941 134.548 9.14834 134.548 9.95935L134.552 96.0604C134.552 96.8714 133.982 97.8577 133.28 98.2632L24.4599 161.086C23.7577 161.492 23.1885 161.163 23.1885 160.352Z" fill="#6F6C99"/>
<path opacity="0.7" d="M23.1885 160.352L23.1894 74.2528C23.1894 73.4418 23.7587 72.4555 24.4613 72.05L133.276 9.22492C133.979 8.81941 134.548 9.14834 134.548 9.95935L134.552 96.0604C134.552 96.8714 133.982 97.8577 133.28 98.2632L24.4599 161.086C23.7577 161.492 23.1885 161.163 23.1885 160.352Z" fill="white"/>
<path d="M78.6523 137.586C78.4211 137.586 78.2058 137.532 78.0142 137.421C77.561 137.159 77.311 136.628 77.311 135.925C77.311 134.559 78.2376 132.955 79.4204 132.272C80.0301 131.92 80.6153 131.871 81.0675 132.132C81.5207 132.393 81.7706 132.925 81.7706 133.628C81.7711 134.994 80.8445 136.599 79.6612 137.282C79.3106 137.484 78.9668 137.586 78.6523 137.586ZM80.4289 132.448C80.1992 132.448 79.9377 132.529 79.6617 132.688C78.6316 133.283 77.7931 134.735 77.7931 135.924C77.7931 136.448 77.9573 136.831 78.2554 137.003C78.5531 137.175 78.9677 137.125 79.4214 136.864C80.452 136.269 81.29 134.817 81.29 133.627C81.29 133.104 81.1258 132.72 80.8276 132.548C80.7106 132.482 80.5763 132.448 80.4289 132.448Z" fill="#6F6C99"/>
<path d="M153.452 25.427L41.3795 90.0556L41.38 172.655C41.3795 173.755 42.57 174.447 43.5221 173.897L45.5198 172.744L151.362 111.716C152.513 111.051 153.452 109.435 153.452 108.098V25.427Z" fill="#EEEEEE"/>
<path d="M152.97 26.2606V108.099C152.97 109.255 152.123 110.72 151.122 111.299L45.279 172.327L43.2813 173.48C43.134 173.566 42.9765 173.609 42.8127 173.609C42.57 173.609 42.3283 173.51 42.1496 173.338C41.9637 173.16 41.8611 172.917 41.8616 172.655L41.8611 90.3335L152.97 26.2606ZM153.452 25.427L41.3795 90.0556L41.38 172.655C41.3795 173.49 42.0658 174.09 42.8127 174.09C43.0497 174.09 43.2929 174.03 43.5221 173.898L45.5198 172.744L151.362 111.716C152.513 111.052 153.452 109.435 153.452 108.099V25.427Z" fill="#4C4C66"/>
<path opacity="0.8" d="M150.794 23.8921L38.7145 88.5169L41.3796 90.0556L153.452 25.4269L150.794 23.8921Z" fill="#6F6C99"/>
<path d="M42.1304 173.917C42.1304 173.917 41.3801 173.549 41.3801 172.655L41.3796 92.4341C41.3796 91.7763 41.3796 90.0551 41.3796 90.0551L38.7144 88.5164L38.7111 170.66C38.7111 170.761 38.7178 170.863 38.7313 170.964C38.8262 171.642 39.2259 172.244 39.8216 172.583L42.022 173.855L42.1304 173.917Z" fill="#EBEBEB"/>
<path d="M38.7144 88.5532V82.9801C38.7144 82.3151 39.1796 81.5041 39.7541 81.1689L149.754 17.7563C150.328 17.4206 151.26 17.4182 151.836 17.751L152.409 18.0818C152.985 18.4141 153.452 19.2227 153.452 19.8878V25.47L41.3795 90.0909L38.7144 88.5532Z" fill="#6F6C99"/>
<path opacity="0.3" d="M38.7144 88.5532V82.9801C38.7144 82.3151 39.1796 81.5041 39.7541 81.1689L149.754 17.7563C150.328 17.4206 151.26 17.4182 151.836 17.751L152.409 18.0818C152.985 18.4141 153.452 19.2227 153.452 19.8878V25.47L41.3795 90.0909L38.7144 88.5532Z" fill="#4C4C66"/>
<path d="M41.3795 84.5189C41.3795 83.8538 41.8447 83.0428 42.4188 82.7076L152.412 19.2912C152.986 18.9555 153.452 19.2228 153.452 19.8879V25.47L41.3795 90.091V84.5189Z" fill="#6F6C99"/>
<path opacity="0.4" d="M41.3795 84.5189C41.3795 83.8538 41.8447 83.0428 42.4188 82.7076L152.412 19.2912C152.986 18.9555 153.452 19.2228 153.452 19.8879V25.47L41.3795 90.091V84.5189Z" fill="#4C4C66"/>
<path d="M41.6829 83.4888C41.4951 83.8163 41.3795 84.1871 41.3795 84.5194V90.0915L38.7163 88.5552V82.9783C38.7163 82.646 38.8319 82.28 39.0197 81.9525L41.6829 83.4888Z" fill="#6F6C99"/>
<path opacity="0.5" d="M41.6829 83.4888C41.4951 83.8163 41.3795 84.1871 41.3795 84.5194V90.0915L38.7163 88.5552V82.9783C38.7163 82.646 38.8319 82.28 39.0197 81.9525L41.6829 83.4888Z" fill="#4C4C66"/>
<path d="M148.561 25.2171C148.561 25.8407 148.999 26.0936 149.539 25.782C150.079 25.4699 150.517 24.7114 150.517 24.0877C150.517 23.4641 150.079 23.2112 149.539 23.5228C148.999 23.8349 148.561 24.5934 148.561 25.2171Z" fill="#F8FAFA"/>
<path d="M144.649 27.4762C144.649 28.0999 145.086 28.3527 145.627 28.0411C146.167 27.7291 146.605 26.9705 146.605 26.3469C146.605 25.7232 146.167 25.4704 145.627 25.782C145.086 26.0936 144.649 26.8521 144.649 27.4762Z" fill="#F8FAFA"/>
<path d="M140.736 29.7349C140.736 30.3585 141.174 30.6114 141.714 30.2998C142.255 29.9882 142.692 29.2292 142.692 28.6055C142.692 27.9819 142.255 27.729 141.714 28.0406C141.174 28.3527 140.736 29.1112 140.736 29.7349Z" fill="#F8FAFA"/>
<path d="M41.3793 90.0932L41.3798 172.656C41.3788 173.756 42.5698 174.448 43.5219 173.898L45.5195 172.745L70.0106 158.623V73.5822L41.3793 90.0912V90.0932Z" fill="#F8FAFA"/>
<path d="M71.9673 74.9768V155.168L151.102 109.479L151.102 29.2888L71.9673 74.9768Z" fill="#F8FAFA"/>
<path d="M63.4569 83.2716L45.1919 93.8257C44.8539 94.0208 44.5798 94.4956 44.5798 94.8857L44.5793 96.787C44.5793 97.1771 44.8534 97.3356 45.1915 97.1405L63.4564 86.5864C63.7945 86.3913 64.0685 85.9165 64.0685 85.5264L64.069 83.625C64.0685 83.2345 63.795 83.0765 63.4569 83.2716Z" fill="#6F6C99"/>
<path opacity="0.8" d="M63.4569 83.2716L45.1919 93.8257C44.8539 94.0208 44.5798 94.4956 44.5798 94.8857L44.5793 96.787C44.5793 97.1771 44.8534 97.3356 45.1915 97.1405L63.4564 86.5864C63.7945 86.3913 64.0685 85.9165 64.0685 85.5264L64.069 83.625C64.0685 83.2345 63.795 83.0765 63.4569 83.2716Z" fill="#F8FAFA"/>
<path d="M67.5235 84.0264L66.9851 83.5082C67.0915 83.2361 67.1561 82.938 67.1561 82.648C67.1561 82.2083 67.0092 81.8712 66.7534 81.7239C66.5589 81.6117 66.3248 81.6213 66.098 81.7528C65.6236 82.0268 65.2523 82.7949 65.2523 83.5019C65.2523 83.9416 65.3992 84.2782 65.6549 84.4261C65.7445 84.4781 65.8423 84.5036 65.9439 84.5036C66.0633 84.5036 66.1881 84.468 66.3104 84.3972C66.4891 84.2941 66.6533 84.1208 66.7881 83.9069L67.2298 84.3317C67.2707 84.3717 67.3237 84.3909 67.3766 84.3909C67.4325 84.3909 67.4879 84.3693 67.5298 84.3259C67.6107 84.2416 67.6078 84.1073 67.5235 84.0264ZM66.0985 84.0297C66.005 84.0837 65.9261 84.0933 65.8673 84.0586C65.7797 84.0081 65.6766 83.8318 65.6766 83.5014C65.6766 82.9505 65.967 82.3177 66.3104 82.1193C66.3672 82.0865 66.4183 82.0701 66.4635 82.0701C66.4924 82.0701 66.5189 82.0769 66.542 82.0904C66.6297 82.1409 66.7323 82.3172 66.7323 82.6476C66.7323 83.1985 66.4419 83.8318 66.0985 84.0297Z" fill="#6F6C99"/>
<path d="M45.0245 102.721L44.6146 102.958C44.5905 102.972 44.5708 102.957 44.5708 102.924V101.815C44.5708 101.783 44.5905 101.746 44.6146 101.732L45.0245 101.496C45.0485 101.482 45.0683 101.497 45.0683 101.529V102.638C45.0683 102.67 45.0485 102.707 45.0245 102.721Z" fill="#6F6C99"/>
<path d="M45.6385 102.367L45.2286 102.603C45.2046 102.617 45.1848 102.602 45.1848 102.57V101.461C45.1848 101.428 45.2046 101.391 45.2286 101.377L45.6385 101.141C45.6626 101.127 45.6823 101.142 45.6823 101.174V102.283C45.6823 102.316 45.6626 102.353 45.6385 102.367Z" fill="#6F6C99"/>
<path d="M46.2526 102.012L45.8428 102.249C45.8187 102.263 45.799 102.248 45.799 102.216V101.107C45.799 101.075 45.8187 101.038 45.8428 101.024L46.2526 100.787C46.2767 100.773 46.2964 100.788 46.2964 100.82V101.929C46.2964 101.961 46.2767 101.998 46.2526 102.012Z" fill="#6F6C99"/>
<path d="M45.0245 104.151L44.6146 104.388C44.5905 104.402 44.5708 104.387 44.5708 104.355V103.246C44.5708 103.213 44.5905 103.176 44.6146 103.162L45.0245 102.926C45.0485 102.912 45.0683 102.927 45.0683 102.959V104.068C45.0683 104.1 45.0485 104.137 45.0245 104.151Z" fill="#6F6C99"/>
<path d="M45.6385 103.797L45.2286 104.034C45.2046 104.047 45.1848 104.033 45.1848 104V102.891C45.1848 102.859 45.2046 102.822 45.2286 102.808L45.6385 102.571C45.6626 102.557 45.6823 102.572 45.6823 102.605V103.714C45.6823 103.746 45.6626 103.783 45.6385 103.797Z" fill="#6F6C99"/>
<path d="M46.2526 103.443L45.8428 103.679C45.8187 103.693 45.799 103.678 45.799 103.646V102.537C45.799 102.505 45.8187 102.467 45.8428 102.453L46.2526 102.217C46.2767 102.203 46.2964 102.218 46.2964 102.25V103.359C46.2964 103.391 46.2767 103.429 46.2526 103.443Z" fill="#6F6C99"/>
<path d="M45.0895 107.93L44.5852 107.623C44.566 107.611 44.566 107.567 44.5852 107.532L45.0895 106.643C45.114 106.6 45.1492 106.606 45.1492 106.654V107.85C45.1492 107.898 45.114 107.945 45.0895 107.93Z" fill="#6F6C99"/>
<path d="M44.8775 107.251L45.5416 106.868V107.183L44.8775 107.567C44.8211 107.6 44.7749 107.555 44.7749 107.468C44.7749 107.382 44.8211 107.284 44.8775 107.251Z" fill="#6F6C99"/>
<path d="M45.6653 106.797L45.8921 106.666V106.981L45.6653 107.112V106.797Z" fill="#6F6C99"/>
<path d="M46.5029 106.471V107.632C46.5029 107.721 46.4567 107.817 46.4003 107.85C46.344 107.882 46.2977 107.84 46.2977 107.751V106.748L46.017 106.91V106.595L46.4003 106.374C46.4567 106.34 46.5029 106.385 46.5029 106.471Z" fill="#6F6C99"/>
<path d="M45.2854 110.532C44.8149 110.856 44.4961 111.75 44.5862 112.41C44.669 113.015 45.0278 112.992 45.0668 113.272C45.0711 113.302 45.0909 113.313 45.1125 113.301L45.5614 113.046C45.5835 113.033 45.6033 112.999 45.6076 112.964C45.6548 112.594 46.1128 112.147 46.1162 111.247C46.1191 110.557 45.741 110.219 45.2854 110.532Z" fill="#6F6C99"/>
<path d="M45.554 113.77L45.1206 114.02C45.0907 114.037 45.0667 114.019 45.0667 113.98V113.58C45.0667 113.541 45.0907 113.495 45.1206 113.478L45.554 113.227C45.5839 113.21 45.608 113.228 45.608 113.268V113.667C45.6075 113.707 45.5834 113.752 45.554 113.77Z" fill="#6F6C99"/>
<path d="M45.3905 101.165C44.9913 101.493 44.6701 102.175 44.6051 102.827C44.5675 103.206 44.6152 103.516 44.7197 103.735L44.5737 104.493C44.5617 104.556 44.5959 104.588 44.632 104.549L45.0683 104.073C45.2504 104.131 45.47 104.079 45.7036 103.887C46.1033 103.556 46.4269 102.874 46.49 102.222C46.5931 101.162 46.0402 100.63 45.3905 101.165ZM45.5475 103.647C45.1459 103.879 44.8189 103.565 44.8189 102.946C44.8189 102.327 45.1459 101.636 45.5475 101.403C45.9492 101.171 46.2762 101.486 46.2762 102.105C46.2762 102.724 45.9492 103.416 45.5475 103.647Z" fill="#6F6C99"/>
<path d="M45.3905 115.78C44.9913 116.109 44.6701 116.791 44.6051 117.442C44.5675 117.822 44.6152 118.131 44.7197 118.351L44.5737 119.108C44.5617 119.171 44.5959 119.204 44.632 119.164L45.0683 118.688C45.2504 118.746 45.47 118.695 45.7036 118.502C46.1033 118.172 46.4269 117.49 46.49 116.837C46.5931 115.777 46.0402 115.246 45.3905 115.78ZM45.5475 118.263C45.1459 118.495 44.8189 118.18 44.8189 117.562C44.8189 116.943 45.1459 116.251 45.5475 116.019C45.9492 115.787 46.2762 116.101 46.2762 116.72C46.2762 117.339 45.9492 118.031 45.5475 118.263Z" fill="#6F6C99"/>
<path d="M46.0064 121.135C46.0064 121.462 45.8345 121.827 45.6221 121.949C45.4097 122.072 45.2378 121.907 45.2378 121.58C45.2378 121.253 45.4097 120.888 45.6221 120.766C45.8345 120.643 46.0064 120.808 46.0064 121.135Z" fill="#6F6C99"/>
<path d="M46.6667 121.252C46.6667 121.47 46.5521 121.712 46.4105 121.794C46.2689 121.876 46.1543 121.766 46.1543 121.548C46.1543 121.33 46.2689 121.087 46.4105 121.005C46.5521 120.924 46.6667 121.034 46.6667 121.252Z" fill="#6F6C99"/>
<path d="M46.0758 123.468L45.168 123.992V122.843C45.168 122.601 45.3153 122.32 45.4969 122.215L45.7473 122.071C45.9289 121.966 46.0763 122.077 46.0763 122.319L46.0758 123.468Z" fill="#6F6C99"/>
<path d="M46.451 121.927L46.201 122.071V123.396L46.6725 123.124V122.094C46.673 121.931 46.5738 121.856 46.451 121.927Z" fill="#6F6C99"/>
<path d="M44.577 122.458C44.577 122.676 44.6916 122.786 44.8332 122.705C44.9748 122.623 45.0894 122.38 45.0894 122.163C45.0894 121.945 44.9748 121.835 44.8332 121.916C44.6916 121.998 44.577 122.241 44.577 122.458Z" fill="#6F6C99"/>
<path d="M44.7928 122.884L45.0428 122.74V124.065L44.5713 124.337V123.308C44.5713 123.144 44.6705 122.955 44.7928 122.884Z" fill="#6F6C99"/>
<path d="M49.0135 100.123L59.7083 93.948C59.9963 93.7818 60.2294 93.8998 60.2294 94.2119C60.2294 94.524 59.9958 94.9112 59.7083 95.0778L49.0135 101.252C48.7255 101.418 48.4919 101.3 48.4919 100.988C48.4924 100.676 48.726 100.289 49.0135 100.123Z" fill="#4C4C66"/>
<path d="M49.0135 105.157L59.7083 98.9824C59.9963 98.8162 60.2294 98.9342 60.2294 99.2463C60.2294 99.5584 59.9958 99.9456 59.7083 100.112L49.0135 106.287C48.7255 106.453 48.4919 106.335 48.4919 106.023C48.4924 105.711 48.726 105.323 49.0135 105.157Z" fill="#4C4C66"/>
<path d="M49.0135 110.191L59.7083 104.016C59.9963 103.85 60.2294 103.968 60.2294 104.28C60.2294 104.592 59.9958 104.98 59.7083 105.146L49.0135 111.321C48.7255 111.487 48.4919 111.369 48.4919 111.057C48.4924 110.745 48.726 110.357 49.0135 110.191Z" fill="#4C4C66"/>
<path d="M49.0135 115.225L59.7083 109.051C59.9963 108.884 60.2294 109.002 60.2294 109.314C60.2294 109.626 59.9958 110.014 59.7083 110.18L49.0135 116.355C48.7255 116.521 48.4919 116.403 48.4919 116.091C48.4924 115.779 48.726 115.391 49.0135 115.225Z" fill="#4C4C66"/>
<path d="M49.0135 120.259L59.7083 114.085C59.9963 113.919 60.2294 114.037 60.2294 114.349C60.2294 114.661 59.9958 115.048 59.7083 115.215L49.0135 121.389C48.7255 121.555 48.4919 121.437 48.4919 121.125C48.4919 120.813 48.726 120.425 49.0135 120.259Z" fill="#4C4C66"/>
<path d="M50.9698 124.369L61.6646 118.195C61.9526 118.029 62.1862 118.147 62.1862 118.459C62.1862 118.771 61.9526 119.158 61.6646 119.325L50.9698 125.499C50.6818 125.665 50.4482 125.547 50.4482 125.235C50.4487 124.924 50.6823 124.536 50.9698 124.369Z" fill="#6F6C99"/>
<path d="M50.9698 127.77L61.6646 121.596C61.9526 121.43 62.1862 121.548 62.1862 121.86C62.1862 122.172 61.9526 122.559 61.6646 122.726L50.9698 128.9C50.6818 129.066 50.4482 128.948 50.4482 128.636C50.4487 128.324 50.6823 127.936 50.9698 127.77Z" fill="#4C4C66"/>
<path d="M50.9698 131.171L61.6646 124.996C61.9526 124.83 62.1862 124.948 62.1862 125.26C62.1862 125.572 61.9526 125.959 61.6646 126.126L50.9698 132.301C50.6818 132.467 50.4482 132.349 50.4482 132.037C50.4487 131.725 50.6823 131.337 50.9698 131.171Z" fill="#4C4C66"/>
<path d="M53.0517 133.332L63.7465 127.158C64.0345 126.991 64.2676 127.109 64.2676 127.421C64.2676 127.734 64.034 128.121 63.7465 128.287L53.0517 134.462C52.7637 134.628 52.5302 134.51 52.5302 134.198C52.5302 133.886 52.7637 133.498 53.0517 133.332Z" fill="#4C4C66"/>
<path d="M50.5518 136.258L51.4201 134.725C51.4533 134.667 51.4533 134.59 51.4201 134.57L50.5518 134.04C50.5099 134.015 50.4487 134.095 50.4487 134.177V136.239C50.4487 136.321 50.5099 136.332 50.5518 136.258Z" fill="#6F6C99"/>
<path d="M53.0517 136.721L63.7465 130.547C64.0345 130.38 64.2676 130.498 64.2676 130.811C64.2676 131.123 64.034 131.51 63.7465 131.676L53.0517 137.85C52.7637 138.017 52.5302 137.899 52.5302 137.587C52.5302 137.275 52.7637 136.887 53.0517 136.721Z" fill="#4C4C66"/>
<path d="M50.5518 139.647L51.4201 138.114C51.4533 138.056 51.4533 137.979 51.4201 137.959L50.5518 137.429C50.5099 137.404 50.4487 137.484 50.4487 137.566V139.628C50.4487 139.71 50.5099 139.721 50.5518 139.647Z" fill="#6F6C99"/>
<path d="M53.0517 140.109L63.7465 133.935C64.0345 133.769 64.2676 133.887 64.2676 134.199C64.2676 134.511 64.034 134.899 63.7465 135.065L53.0517 141.239C52.7637 141.405 52.5302 141.287 52.5302 140.975C52.5302 140.663 52.7637 140.276 53.0517 140.109Z" fill="#4C4C66"/>
<path d="M50.5518 143.035L51.4201 141.503C51.4533 141.444 51.4533 141.367 51.4201 141.347L50.5518 140.817C50.5099 140.792 50.4487 140.873 50.4487 140.955V143.016C50.4487 143.098 50.5099 143.109 50.5518 143.035Z" fill="#6F6C99"/>
<path d="M53.0517 143.498L63.7465 137.324C64.0345 137.158 64.2676 137.276 64.2676 137.588C64.2676 137.9 64.034 138.288 63.7465 138.454L53.0517 144.628C52.7637 144.794 52.5302 144.676 52.5302 144.364C52.5302 144.052 52.7637 143.665 53.0517 143.498Z" fill="#4C4C66"/>
<path d="M50.5518 146.424L51.4201 144.892C51.4533 144.834 51.4533 144.756 51.4201 144.736L50.5518 144.207C50.5099 144.181 50.4487 144.262 50.4487 144.344V146.406C50.4487 146.487 50.5099 146.498 50.5518 146.424Z" fill="#6F6C99"/>
<path d="M53.0517 146.887L63.7465 140.712C64.0345 140.546 64.2676 140.664 64.2676 140.976C64.2676 141.288 64.034 141.676 63.7465 141.842L53.0517 148.017C52.7637 148.183 52.5302 148.065 52.5302 147.753C52.5302 147.441 52.7637 147.053 53.0517 146.887Z" fill="#4C4C66"/>
<path d="M50.5518 149.813L51.4201 148.28C51.4533 148.222 51.4533 148.145 51.4201 148.125L50.5518 147.595C50.5099 147.57 50.4487 147.651 50.4487 147.733V149.794C50.4487 149.876 50.5099 149.887 50.5518 149.813Z" fill="#6F6C99"/>
<path d="M53.0517 150.276L63.7465 144.101C64.0345 143.935 64.2676 144.053 64.2676 144.365C64.2676 144.677 64.034 145.065 63.7465 145.231L53.0517 151.405C52.7637 151.572 52.5302 151.454 52.5302 151.141C52.5302 150.83 52.7637 150.442 53.0517 150.276Z" fill="#4C4C66"/>
<path d="M50.5518 153.202L51.4201 151.669C51.4533 151.611 51.4533 151.534 51.4201 151.514L50.5518 150.985C50.5099 150.959 50.4487 151.04 50.4487 151.122V153.184C50.4487 153.265 50.5099 153.275 50.5518 153.202Z" fill="#6F6C99"/>
<path d="M53.0517 153.664L63.7465 147.49C64.0345 147.324 64.2676 147.442 64.2676 147.754C64.2676 148.066 64.034 148.454 63.7465 148.62L53.0517 154.794C52.7637 154.96 52.5302 154.842 52.5302 154.53C52.5302 154.218 52.7637 153.831 53.0517 153.664Z" fill="#4C4C66"/>
<path d="M50.5518 156.59L51.4201 155.058C51.4533 155 51.4533 154.922 51.4201 154.902L50.5518 154.373C50.5099 154.347 50.4487 154.428 50.4487 154.51V156.572C50.4487 156.653 50.5099 156.664 50.5518 156.59Z" fill="#6F6C99"/>
<path d="M53.0517 157.053L63.7465 150.879C64.0345 150.712 64.2676 150.83 64.2676 151.142C64.2676 151.454 64.034 151.842 63.7465 152.008L53.0517 158.183C52.7637 158.349 52.5302 158.231 52.5302 157.919C52.5302 157.607 52.7637 157.22 53.0517 157.053Z" fill="#4C4C66"/>
<path d="M50.5518 159.979L51.4201 158.447C51.4533 158.388 51.4533 158.311 51.4201 158.291L50.5518 157.762C50.5099 157.736 50.4487 157.817 50.4487 157.899V159.961C50.4487 160.042 50.5099 160.053 50.5518 159.979Z" fill="#6F6C99"/>
<path d="M74.4452 85.9744L109.597 65.6795C109.885 65.5134 110.118 65.1088 110.118 64.7765V55.8155C110.118 55.4832 109.885 55.3483 109.597 55.5145L74.4452 75.8055C74.1572 75.9717 73.9236 76.3762 73.9236 76.7085V85.6734C73.9236 86.0057 74.1572 86.1406 74.4452 85.9744Z" fill="#EEEEEE"/>
<path d="M77.5099 79.6495C77.5099 79.6452 77.5109 79.638 77.5133 79.6278L77.7444 78.6651L77.4256 78.8491C77.4179 78.8534 77.4112 78.8534 77.4054 78.8477C77.3996 78.8419 77.3967 78.8332 77.3967 78.8212V78.6473C77.3967 78.6353 77.3996 78.6232 77.4054 78.6107C77.4112 78.5987 77.4179 78.5905 77.4256 78.5857L77.9366 78.2909C77.9448 78.2866 77.951 78.2866 77.9573 78.2924C77.9631 78.2982 77.966 78.3068 77.966 78.3189V78.4715C77.966 78.4889 77.9602 78.5207 77.9486 78.565L77.7175 79.5296C77.7146 79.5412 77.7102 79.5522 77.7059 79.5633C77.7016 79.5739 77.6948 79.5821 77.6867 79.5869L77.5364 79.6736C77.5292 79.6774 77.5234 79.6774 77.5186 79.6726C77.5123 79.6683 77.5099 79.6601 77.5099 79.6495Z" fill="#6F6C99"/>
<path d="M78.3628 78.0285C78.4158 77.9977 78.462 77.9832 78.5006 77.9852C78.5391 77.9866 78.5709 78.0011 78.5959 78.0271C78.6214 78.0531 78.6402 78.0897 78.6527 78.1364C78.6653 78.1836 78.672 78.2361 78.6744 78.2939C78.6759 78.3406 78.6768 78.3892 78.6768 78.4407C78.6768 78.4923 78.6759 78.5409 78.6744 78.5867C78.672 78.6474 78.6657 78.708 78.6527 78.7697C78.6402 78.8313 78.6214 78.8896 78.5959 78.945C78.5709 78.9999 78.5391 79.0509 78.5006 79.0972C78.462 79.1434 78.4158 79.1819 78.3628 79.2127C78.3094 79.2436 78.2636 79.258 78.2246 79.2561C78.1866 79.2542 78.1543 79.2402 78.1292 79.2147C78.1037 79.1882 78.0849 79.1516 78.0729 79.1049C78.0609 79.0577 78.0532 79.0052 78.0508 78.9474C78.0493 78.9031 78.0483 78.8554 78.0483 78.8039C78.0483 78.7523 78.0493 78.7027 78.0508 78.6546C78.0532 78.5939 78.0609 78.5332 78.0729 78.4716C78.0849 78.4104 78.1037 78.3517 78.1292 78.2967C78.1548 78.2414 78.1866 78.1903 78.2246 78.1441C78.2636 78.0978 78.3089 78.0593 78.3628 78.0285ZM78.477 78.6926C78.4798 78.5977 78.4798 78.5058 78.477 78.4167C78.4755 78.3897 78.4726 78.3661 78.4688 78.3454C78.4644 78.3247 78.4587 78.3078 78.45 78.2958C78.4413 78.2837 78.4302 78.2765 78.4158 78.2751C78.4018 78.2736 78.384 78.2789 78.3628 78.2915C78.3411 78.304 78.3233 78.3189 78.3094 78.3372C78.2949 78.3555 78.2834 78.3757 78.2752 78.3974C78.2665 78.4191 78.2607 78.4432 78.2559 78.4687C78.2521 78.4942 78.2492 78.5202 78.2487 78.5486C78.2448 78.6416 78.2448 78.7336 78.2487 78.8246C78.2492 78.852 78.2516 78.8756 78.2554 78.8963C78.2593 78.9175 78.2655 78.9339 78.2747 78.9455C78.2834 78.957 78.2949 78.9642 78.3094 78.9662C78.3233 78.9676 78.3416 78.9623 78.3628 78.9498C78.384 78.9378 78.4018 78.9223 78.4158 78.9045C78.4302 78.8862 78.4418 78.866 78.4505 78.8438C78.4591 78.8217 78.4659 78.7976 78.4697 78.7726C78.4736 78.747 78.4765 78.721 78.477 78.6926Z" fill="#6F6C99"/>
<path d="M79.1021 77.8432C79.1041 77.886 79.1041 77.9275 79.1021 77.9684C79.1007 78.0021 79.0968 78.0349 79.0901 78.0666C79.0829 78.0989 79.0732 78.1292 79.0593 78.1586C79.0458 78.1875 79.028 78.215 79.0078 78.2386C78.987 78.2622 78.9625 78.2824 78.935 78.2988C78.9071 78.3147 78.883 78.3229 78.8628 78.3229C78.8421 78.3224 78.8247 78.3156 78.8117 78.3021C78.7983 78.2882 78.7877 78.2699 78.7809 78.2458C78.7732 78.2222 78.7698 78.1943 78.7679 78.162C78.767 78.1413 78.766 78.1211 78.766 78.1013C78.766 78.082 78.767 78.0604 78.7679 78.0368C78.7698 78.0031 78.7737 77.9703 78.7809 77.9381C78.7881 77.9063 78.7983 77.8754 78.8117 77.8461C78.8247 77.8167 78.8421 77.7902 78.8628 77.7661C78.883 77.742 78.9076 77.7223 78.935 77.7064C78.9625 77.6905 78.987 77.6818 79.0078 77.6823C79.028 77.6828 79.0453 77.6896 79.0583 77.703C79.0723 77.716 79.0824 77.7353 79.0901 77.7589C79.0964 77.7835 79.1007 77.8109 79.1021 77.8432ZM79.3694 77.4955C79.3742 77.4829 79.3795 77.4719 79.3848 77.4637C79.3901 77.455 79.3978 77.4478 79.4075 77.442L79.4956 77.3914C79.5038 77.3871 79.5096 77.3866 79.5144 77.3895C79.5192 77.3929 79.5216 77.3996 79.5216 77.4097C79.5216 77.4122 79.5211 77.415 79.5202 77.4189C79.5197 77.4227 79.5187 77.4266 79.5173 77.4305L78.989 78.8049C78.9842 78.8175 78.9789 78.828 78.9736 78.8367C78.9683 78.8449 78.961 78.8521 78.9504 78.8584L78.8628 78.9089C78.8546 78.9133 78.8488 78.9142 78.844 78.9109C78.8392 78.9075 78.8368 78.9008 78.8368 78.8907C78.8368 78.8882 78.8373 78.8858 78.8382 78.882C78.8387 78.8781 78.8397 78.8743 78.8416 78.8704L79.3694 77.4955ZM78.8907 78.0825C78.8922 78.11 78.896 78.1297 78.9018 78.1403C78.9081 78.1514 78.9187 78.1519 78.9341 78.1432C78.95 78.1341 78.9606 78.1211 78.9663 78.1028C78.9726 78.0849 78.976 78.0613 78.9779 78.0324C78.9798 77.9949 78.9798 77.9588 78.9779 77.9236C78.976 77.8957 78.9721 77.8769 78.9663 77.8658C78.9601 77.8552 78.95 77.8543 78.9341 77.8634C78.9187 77.8726 78.9076 77.8856 78.9018 77.9034C78.8955 77.9217 78.8917 77.9448 78.8907 77.9742C78.8883 78.0113 78.8883 78.0479 78.8907 78.0825ZM79.5982 78.1331C79.6001 78.1755 79.6001 78.2174 79.5982 78.2583C79.5963 78.292 79.5924 78.3248 79.5857 78.357C79.5789 78.3883 79.5683 78.4197 79.5548 78.4485C79.5414 78.4784 79.5235 78.5044 79.5033 78.529C79.4826 78.553 79.4585 78.5728 79.4311 78.5887C79.4027 78.6051 79.3791 78.6133 79.3584 78.6128C79.3376 78.6123 79.3203 78.606 79.3073 78.5921C79.2938 78.5786 79.2837 78.5598 79.2765 78.5362C79.2693 78.5121 79.2654 78.4847 79.264 78.4524C79.2625 78.4312 79.2615 78.411 79.2615 78.3922C79.2615 78.3729 79.2625 78.3513 79.264 78.3272C79.2654 78.2935 79.2697 78.2602 79.2765 78.2285C79.2842 78.1962 79.2938 78.1659 79.3073 78.1365C79.3203 78.1076 79.3376 78.0806 79.3584 78.057C79.3791 78.0329 79.4031 78.0127 79.4311 77.9963C79.459 77.9804 79.4826 77.9727 79.5033 77.9727C79.524 77.9722 79.5414 77.9795 79.5544 77.993C79.5678 78.0069 79.5784 78.0252 79.5852 78.0493C79.5924 78.0729 79.5963 78.1013 79.5982 78.1331ZM79.3863 78.372C79.3877 78.3999 79.3921 78.4187 79.3978 78.4298C79.4036 78.4404 79.4142 78.4413 79.4301 78.4322C79.4455 78.423 79.4566 78.41 79.4624 78.3922C79.4682 78.3744 79.4725 78.3508 79.4735 78.3214C79.4754 78.2838 79.4754 78.2477 79.4735 78.2126C79.472 78.1851 79.4677 78.1659 79.4624 78.1548C79.4561 78.1442 79.4455 78.1432 79.4301 78.1519C79.4142 78.161 79.4031 78.175 79.3978 78.1923C79.3916 78.2102 79.3877 78.2338 79.3863 78.2627C79.3844 78.3007 79.3844 78.3368 79.3863 78.372Z" fill="#6F6C99"/>
<path d="M77.5046 76.8883L77.1516 76.3441C76.7644 77.002 76.4687 77.7879 76.3175 78.5917L76.8877 78.5479C76.9994 77.9541 77.2186 77.3742 77.5046 76.8883Z" fill="#6F6C99"/>
<path d="M78.5007 75.8131V74.8909C77.9965 75.1818 77.5307 75.7019 77.1517 76.3448L77.5047 76.889C77.7846 76.4137 78.1279 76.0284 78.5007 75.8131Z" fill="#6F6C99"/>
<path d="M76.8044 79.4028C76.8044 79.1211 76.8343 78.8331 76.8877 78.548L76.3175 78.5918C76.2448 78.9776 76.2053 79.3672 76.2053 79.7486C76.2053 80.13 76.2448 80.4734 76.3175 80.7758L76.8877 80.1613C76.8343 79.9379 76.8044 79.6845 76.8044 79.4028Z" fill="#6F6C99"/>
<path d="M80.6832 76.0717C80.5319 75.4427 80.2362 74.9973 79.849 74.7873C79.4705 74.5817 79.0043 74.5995 78.5001 74.8908V75.8131C78.8728 75.5978 79.2162 75.5867 79.496 75.7389C79.7821 75.8945 80.0012 76.2215 80.1125 76.6862C80.1659 76.9097 80.1958 77.163 80.1958 77.4447C80.1958 77.7265 80.1659 78.0145 80.1125 78.2996C80.0007 78.8934 79.7821 79.4732 79.496 79.9591C79.2162 80.4345 78.8728 80.8198 78.5001 81.035C78.1278 81.2503 77.784 81.2614 77.5042 81.1092C77.2181 80.9536 76.9994 80.6266 76.8877 80.1619L76.3175 80.7764C76.4687 81.4059 76.7644 81.8509 77.1516 82.0613C77.5302 82.2669 77.9963 82.2491 78.5001 81.9578C79.0043 81.6669 79.47 81.1468 79.849 80.5038C80.2362 79.8465 80.5319 79.06 80.6832 78.2562C80.7559 77.8705 80.7954 77.4809 80.7954 77.0994C80.7954 76.718 80.7554 76.3737 80.6832 76.0717Z" fill="#6F6C99"/>
<path d="M84.2264 73.5462L94.9212 67.3717C95.2092 67.2055 95.4428 67.3235 95.4428 67.6356C95.4428 67.9477 95.2092 68.3349 94.9212 68.5015L84.2259 74.676C83.9379 74.8422 83.7048 74.7242 83.7048 74.4121C83.7048 74.1 83.9384 73.7124 84.2264 73.5462Z" fill="#6F6C99"/>
<path d="M84.2264 75.8226L102.746 65.1332C103.034 64.967 103.268 65.085 103.268 65.3971C103.268 65.7091 103.034 66.0968 102.746 66.263L84.2259 76.9525C83.9379 77.1186 83.7048 77.0006 83.7048 76.6885C83.7048 76.3765 83.9384 75.9888 84.2264 75.8226Z" fill="#4C4C66"/>
<path d="M112.588 63.9482L147.74 43.6533C148.028 43.4871 148.261 43.0826 148.261 42.7503V33.7892C148.261 33.4569 148.027 33.3221 147.74 33.4882L112.588 53.7793C112.3 53.9454 112.067 54.35 112.067 54.6823V63.6472C112.067 63.9795 112.3 64.1143 112.588 63.9482Z" fill="#EEEEEE"/>
<path d="M115.826 56.8022C115.826 56.7387 115.834 56.6765 115.852 56.6154C115.87 56.5542 115.893 56.4979 115.922 56.4454C115.951 56.3934 115.985 56.3471 116.023 56.3067C116.06 56.2662 116.099 56.2344 116.139 56.2113C116.179 56.1882 116.217 56.1752 116.255 56.1723C116.293 56.1689 116.326 56.1762 116.356 56.1949C116.384 56.2132 116.408 56.2426 116.426 56.284C116.443 56.325 116.452 56.377 116.452 56.4406C116.452 56.4723 116.45 56.5032 116.445 56.5325C116.44 56.5629 116.435 56.5913 116.427 56.6187C116.42 56.6472 116.411 56.6741 116.402 56.7011C116.393 56.7276 116.383 56.7536 116.374 56.7786L116.171 57.3286C116.167 57.3363 116.163 57.3455 116.16 57.3561C116.155 57.3667 116.148 57.3748 116.138 57.3806L115.968 57.4789C115.962 57.4827 115.957 57.4818 115.953 57.477C115.949 57.4721 115.947 57.4649 115.947 57.4548C115.947 57.449 115.947 57.4447 115.949 57.4408C115.95 57.437 115.951 57.4336 115.952 57.4307L116.089 57.0556C116.054 57.0681 116.02 57.0729 115.989 57.0695C115.957 57.0666 115.929 57.0546 115.905 57.0344C115.881 57.0137 115.861 56.9843 115.847 56.9467C115.833 56.9087 115.826 56.8605 115.826 56.8022ZM116.254 56.5547C116.254 56.533 116.251 56.5147 116.245 56.5003C116.239 56.4858 116.23 56.4752 116.219 56.469C116.208 56.4627 116.196 56.4598 116.182 56.4608C116.169 56.4613 116.154 56.4661 116.139 56.4747C116.124 56.4834 116.109 56.495 116.095 56.5104C116.082 56.5258 116.069 56.5427 116.059 56.5614C116.048 56.5797 116.04 56.6 116.033 56.6221C116.026 56.6438 116.023 56.6659 116.023 56.6876C116.023 56.7098 116.027 56.7276 116.033 56.742C116.04 56.756 116.048 56.7666 116.059 56.7733C116.069 56.7801 116.082 56.783 116.095 56.7815C116.109 56.7806 116.124 56.7762 116.139 56.7676C116.154 56.7589 116.168 56.7469 116.182 56.7319C116.196 56.717 116.208 56.7001 116.219 56.6809C116.229 56.6621 116.239 56.6414 116.245 56.6202C116.251 56.5985 116.254 56.5768 116.254 56.5547Z" fill="#6F6C99"/>
<path d="M116.855 55.7985C116.907 55.7677 116.954 55.7532 116.992 55.7552C117.031 55.7566 117.063 55.7711 117.088 55.7971C117.113 55.8231 117.132 55.8597 117.144 55.9064C117.156 55.9536 117.164 56.0061 117.166 56.0639C117.168 56.1106 117.169 56.1592 117.169 56.2108C117.169 56.2623 117.168 56.3109 117.166 56.3567C117.164 56.4174 117.156 56.4781 117.144 56.5397C117.132 56.6013 117.113 56.6596 117.088 56.715C117.062 56.7699 117.031 56.8209 116.992 56.8672C116.954 56.9134 116.907 56.9519 116.855 56.9828C116.801 57.0136 116.755 57.028 116.716 57.0261C116.678 57.0242 116.646 57.0102 116.621 56.9847C116.595 56.9582 116.577 56.9216 116.564 56.8749C116.552 56.8277 116.545 56.7752 116.542 56.7174C116.541 56.6731 116.54 56.6254 116.54 56.5739C116.54 56.5224 116.541 56.4728 116.542 56.4246C116.545 56.3639 116.552 56.3032 116.564 56.2416C116.577 56.1804 116.596 56.1222 116.621 56.0668C116.646 56.0114 116.678 55.9603 116.716 55.9141C116.755 55.8684 116.801 55.8298 116.855 55.7985ZM116.968 56.4631C116.972 56.3682 116.972 56.2763 116.968 56.1872C116.967 56.1602 116.964 56.1371 116.96 56.1159C116.956 56.0952 116.95 56.0783 116.942 56.0663C116.933 56.0543 116.922 56.047 116.907 56.0456C116.894 56.0441 116.876 56.0494 116.855 56.062C116.833 56.0745 116.815 56.0894 116.801 56.1077C116.787 56.126 116.775 56.1462 116.767 56.1679C116.759 56.1896 116.752 56.2137 116.748 56.2392C116.744 56.2647 116.741 56.2907 116.74 56.3191C116.737 56.4121 116.737 56.5041 116.74 56.5951C116.741 56.6225 116.743 56.6461 116.747 56.6668C116.751 56.688 116.758 56.7044 116.766 56.716C116.775 56.7275 116.787 56.7347 116.801 56.7362C116.815 56.7376 116.833 56.7323 116.855 56.7198C116.876 56.7078 116.894 56.6924 116.907 56.6745C116.922 56.6562 116.933 56.636 116.942 56.6143C116.951 56.5922 116.958 56.5681 116.961 56.5431C116.965 56.5175 116.968 56.4911 116.968 56.4631Z" fill="#6F6C99"/>
<path d="M117.594 55.6137C117.596 55.6565 117.596 55.698 117.594 55.7389C117.592 55.7726 117.588 55.8054 117.582 55.8371C117.574 55.8694 117.564 55.8997 117.551 55.9291C117.537 55.9585 117.519 55.9855 117.499 56.0096C117.478 56.0332 117.454 56.0534 117.426 56.0693C117.398 56.0852 117.374 56.0934 117.354 56.0934C117.333 56.0929 117.316 56.0861 117.302 56.0726C117.289 56.0587 117.278 56.0404 117.272 56.0163C117.264 55.9927 117.26 55.9643 117.259 55.9325C117.258 55.9118 117.257 55.8916 117.257 55.8718C117.257 55.8526 117.258 55.8309 117.259 55.8073C117.26 55.7736 117.264 55.7408 117.272 55.7086C117.279 55.6768 117.289 55.646 117.302 55.6171C117.315 55.5877 117.333 55.5612 117.354 55.5371C117.374 55.513 117.399 55.4933 117.426 55.4774C117.454 55.4615 117.478 55.4528 117.499 55.4533C117.519 55.4538 117.536 55.4605 117.549 55.4745C117.563 55.4875 117.573 55.5068 117.581 55.5304C117.588 55.554 117.592 55.5814 117.594 55.6137ZM117.861 55.2655C117.865 55.253 117.871 55.2419 117.876 55.2337C117.881 55.225 117.889 55.2178 117.899 55.212L117.987 55.1615C117.995 55.1571 118.001 55.1566 118.005 55.1595C118.01 55.1629 118.013 55.1697 118.013 55.1798C118.013 55.1822 118.012 55.1851 118.011 55.1889C118.011 55.1928 118.01 55.1966 118.008 55.2005L117.48 56.5749C117.475 56.5875 117.47 56.5981 117.465 56.6067C117.459 56.6149 117.452 56.6221 117.442 56.6279L117.354 56.6785C117.346 56.6828 117.34 56.6838 117.335 56.6804C117.33 56.677 117.328 56.6703 117.328 56.6602C117.328 56.6578 117.328 56.6554 117.329 56.6515C117.33 56.6477 117.331 56.6438 117.333 56.64L117.861 55.2655ZM117.382 55.853C117.383 55.8805 117.387 55.9002 117.393 55.9108C117.399 55.9219 117.41 55.9224 117.425 55.9137C117.441 55.9046 117.452 55.8916 117.457 55.8733C117.464 55.8554 117.468 55.8318 117.469 55.803C117.471 55.7654 117.471 55.7293 117.469 55.6941C117.467 55.6662 117.463 55.6474 117.457 55.6363C117.451 55.6257 117.441 55.6248 117.425 55.6339C117.41 55.6431 117.399 55.6561 117.393 55.6739C117.387 55.6922 117.383 55.7153 117.382 55.7447C117.379 55.7818 117.379 55.8179 117.382 55.853ZM118.09 55.9036C118.092 55.946 118.092 55.9879 118.09 56.0288C118.088 56.0625 118.083 56.0953 118.077 56.1271C118.07 56.1588 118.06 56.1897 118.046 56.219C118.032 56.2484 118.015 56.2749 117.994 56.2995C117.974 56.3236 117.95 56.3433 117.922 56.3592C117.894 56.3756 117.87 56.3837 117.849 56.3833C117.829 56.3828 117.811 56.3765 117.798 56.3626C117.784 56.3491 117.774 56.3303 117.767 56.3067C117.76 56.2826 117.756 56.2552 117.755 56.2229C117.753 56.2017 117.752 56.1815 117.752 56.1627C117.752 56.1434 117.753 56.1218 117.755 56.0977C117.756 56.064 117.76 56.0307 117.767 55.999C117.774 55.9667 117.784 55.9363 117.798 55.907C117.811 55.8781 117.829 55.8511 117.849 55.8275C117.87 55.8034 117.894 55.7832 117.922 55.7673C117.95 55.7514 117.974 55.7437 117.994 55.7437C118.015 55.7437 118.032 55.7505 118.046 55.7639C118.059 55.7779 118.07 55.7962 118.077 55.8203C118.083 55.8434 118.088 55.8713 118.09 55.9036ZM117.878 56.1425C117.879 56.1704 117.884 56.1892 117.889 56.2003C117.895 56.2113 117.906 56.2118 117.922 56.2027C117.937 56.1935 117.948 56.1805 117.954 56.1627C117.96 56.1449 117.964 56.1213 117.965 56.0919C117.967 56.0543 117.967 56.0182 117.965 55.9831C117.964 55.9556 117.959 55.9364 117.954 55.9253C117.948 55.9147 117.937 55.9137 117.922 55.9224C117.906 55.9315 117.895 55.9455 117.889 55.9628C117.883 55.9807 117.879 56.0043 117.878 56.0332C117.876 56.0712 117.876 56.1073 117.878 56.1425Z" fill="#6F6C99"/>
<path d="M116.961 53.601V52.6782C116.457 52.9696 115.991 53.4892 115.612 54.1322L115.965 54.6764C116.245 54.2015 116.588 53.8162 116.961 53.601Z" fill="#6F6C99"/>
<path d="M119.144 53.8603C118.993 53.2308 118.697 52.7858 118.31 52.5759C117.931 52.3702 117.465 52.388 116.961 52.6794V53.6022C117.333 53.3869 117.677 53.3758 117.957 53.528C118.243 53.6835 118.461 54.0105 118.573 54.4753C118.627 54.6987 118.656 54.9521 118.656 55.2338C118.656 55.5155 118.627 55.8035 118.573 56.0886C118.461 56.6815 118.243 57.2608 117.958 57.7463C117.678 58.2206 117.333 58.6093 116.961 58.8241C116.588 59.0394 116.245 59.0504 115.965 58.8983C115.679 58.7427 115.46 58.4157 115.348 57.951C115.295 57.7275 115.265 57.4742 115.265 57.1924C115.265 56.9107 115.295 56.6227 115.348 56.3376C115.46 55.7438 115.679 55.164 115.965 54.678L115.612 54.1338C115.225 54.7912 114.929 55.5777 114.778 56.3814C114.705 56.7672 114.665 57.1568 114.665 57.5382C114.665 57.9192 114.705 58.263 114.778 58.5655C114.929 59.1949 115.224 59.6399 115.612 59.8499C115.99 60.0555 116.456 60.0377 116.961 59.7463C117.465 59.455 117.931 58.9353 118.31 58.2924L118.309 58.2905L118.31 58.2914C118.697 57.6341 118.993 56.8476 119.144 56.0438C119.216 55.6581 119.256 55.2685 119.256 54.887C119.256 54.5061 119.216 54.1622 119.144 53.8603Z" fill="#6F6C99"/>
<path d="M122.678 51.3344L133.372 45.1599C133.66 44.9937 133.894 45.1117 133.894 45.4238C133.894 45.7359 133.66 46.1236 133.372 46.2897L122.677 52.4642C122.389 52.6304 122.156 52.5124 122.156 52.2003C122.157 51.8883 122.39 51.5006 122.678 51.3344Z" fill="#6F6C99"/>
<path d="M122.678 53.6108L141.197 42.9214C141.485 42.7552 141.719 42.8732 141.719 43.1853C141.719 43.4973 141.485 43.885 141.197 44.0512L122.677 54.7407C122.389 54.9068 122.156 54.7888 122.156 54.4768C122.157 54.1652 122.39 53.7775 122.678 53.6108Z" fill="#4C4C66"/>
<path d="M78.0263 88.4315L85.5277 84.0875C85.8156 83.9213 86.0492 84.0393 86.0492 84.3514C86.0492 84.6635 85.8156 85.0512 85.5277 85.2173L78.0258 89.5613C77.7379 89.7275 77.5048 89.6095 77.5048 89.2974C77.5048 88.9853 77.7383 88.5976 78.0263 88.4315Z" fill="#6F6C99"/>
<path d="M147.78 50.9649L147.781 108.258C147.781 108.419 147.639 108.664 147.5 108.744L74.4057 150.944L74.4052 93.6501C74.4052 93.4897 74.5468 93.2446 74.686 93.1642L75.5995 92.6368C76.0339 92.3859 76.3619 91.8186 76.3619 91.3168V88.0029C76.3619 87.8425 76.5035 87.5974 76.6427 87.517L87.1366 81.4599V84.5397C87.1366 85.1003 87.5238 85.3936 87.9067 85.3936C88.0651 85.3936 88.2246 85.3479 88.3801 85.2578L147.78 50.9649ZM147.973 50.359C147.903 50.359 147.824 50.3821 147.74 50.4303L88.1388 84.8407C88.055 84.8889 87.9761 84.912 87.9062 84.912C87.7353 84.912 87.6178 84.7757 87.6178 84.5397V81.2259C87.6178 80.9899 87.5002 80.8536 87.3293 80.8536C87.259 80.8536 87.18 80.8767 87.0967 80.9249L76.4019 87.0994C76.1139 87.2656 75.8803 87.6701 75.8803 88.0024V91.3163C75.8803 91.6486 75.6467 92.0531 75.3587 92.2193L74.4452 92.7466C74.1572 92.9128 73.9236 93.3173 73.9236 93.6496L73.9241 151.177C73.9241 151.413 74.0416 151.549 74.2125 151.549C74.2829 151.549 74.3618 151.527 74.4452 151.478L147.741 109.161C148.029 108.995 148.262 108.591 148.262 108.258L148.262 50.7308C148.262 50.4953 148.144 50.359 147.973 50.359Z" fill="#4C4C66"/>
<path d="M78.6365 96.151C78.545 96.151 78.4583 96.1288 78.3812 96.0841C78.2078 95.9839 78.1082 95.7845 78.1082 95.5379V93.3534C78.1082 92.9383 78.3904 92.4499 78.7501 92.2419L84.5625 88.8905C84.7768 88.7672 84.9983 88.7542 85.1722 88.8543C85.3456 88.9545 85.4453 89.1539 85.4453 89.4005V91.585C85.4453 92.0006 85.1635 92.4889 84.8033 92.6965L78.9909 96.0479C78.872 96.1163 78.7506 96.151 78.6365 96.151ZM78.9909 92.6594C78.7776 92.7827 78.5897 93.1073 78.5897 93.3534V95.5379C78.5897 95.6203 78.6119 95.6612 78.622 95.667C78.6321 95.6723 78.6788 95.6718 78.7496 95.6304L84.562 92.2785C84.7758 92.1552 84.9632 91.8311 84.9632 91.5845V89.4C84.9632 89.3176 84.941 89.2772 84.9309 89.2709C84.9213 89.2647 84.8746 89.2661 84.8028 89.307L78.9909 92.6594Z" fill="#4C4C66"/>
<path d="M79.3362 93.559L83.1245 91.3605C83.3162 91.2498 83.4717 91.3283 83.4717 91.5363C83.4717 91.7444 83.3162 92.0025 83.1245 92.1133L79.3362 94.3117C79.1446 94.4225 78.989 94.344 78.989 94.136C78.9885 93.9279 79.1441 93.6698 79.3362 93.559Z" fill="#4C4C66"/>
<path d="M84.0057 91.0009L84.3197 91.4468C84.3317 91.4637 84.3553 91.4502 84.3674 91.4194L84.6814 90.6108C84.6963 90.5718 84.6823 90.5361 84.6578 90.5501L84.0298 90.9127C84.0042 90.9272 83.9903 90.9792 84.0057 91.0009Z" fill="#6F6C99"/>
<path d="M77.8365 117.315C78.1144 117.155 78.3393 117.285 78.3393 117.606C78.3393 117.926 78.1144 118.316 77.8365 118.476C77.5591 118.637 77.3337 118.507 77.3337 118.186C77.3337 117.865 77.5586 117.476 77.8365 117.315Z" fill="#6F6C99"/>
<path d="M81.749 112.797C82.0264 112.637 82.2518 112.767 82.2518 113.088C82.2518 113.408 82.0269 113.798 81.749 113.958C81.4711 114.119 81.2462 113.989 81.2462 113.668C81.2462 113.348 81.4711 112.958 81.749 112.797Z" fill="#6F6C99"/>
<path d="M85.6615 110.539C85.9394 110.378 86.1643 110.508 86.1643 110.829C86.1643 111.15 85.9394 111.539 85.6615 111.7C85.3841 111.86 85.1587 111.73 85.1587 111.409C85.1587 111.089 85.3836 110.699 85.6615 110.539Z" fill="#6F6C99"/>
<path d="M89.574 109.272C89.8518 109.111 90.0767 109.241 90.0767 109.562C90.0767 109.883 89.8518 110.272 89.574 110.433C89.2966 110.593 89.0712 110.463 89.0712 110.142C89.0712 109.822 89.2961 109.432 89.574 109.272Z" fill="#6F6C99"/>
<path d="M93.4908 105.204C93.7687 105.044 93.9936 105.174 93.9936 105.494C93.9936 105.815 93.7687 106.205 93.4908 106.365C93.2134 106.525 92.988 106.395 92.988 106.075C92.988 105.754 93.2134 105.364 93.4908 105.204Z" fill="#6F6C99"/>
<path d="M97.3989 103.762C97.6763 103.601 97.9017 103.731 97.9017 104.052C97.9017 104.373 97.6768 104.762 97.3989 104.923C97.121 105.083 96.8961 104.953 96.8961 104.632C96.8961 104.312 97.121 103.922 97.3989 103.762Z" fill="#6F6C99"/>
<path d="M101.311 99.2437C101.589 99.0834 101.814 99.2134 101.814 99.5341C101.814 99.8549 101.589 100.244 101.311 100.405C101.033 100.565 100.808 100.435 100.808 100.114C100.808 99.7937 101.033 99.4041 101.311 99.2437Z" fill="#6F6C99"/>
<path d="M105.224 98.1145C105.502 97.9541 105.727 98.0841 105.727 98.4049C105.727 98.7256 105.502 99.1152 105.224 99.2756C104.946 99.436 104.721 99.3059 104.721 98.9852C104.721 98.6649 104.946 98.2748 105.224 98.1145Z" fill="#6F6C99"/>
<path d="M109.136 85.6908C109.414 85.5304 109.639 85.6604 109.639 85.9812C109.639 86.3019 109.414 86.6915 109.136 86.8519C108.858 87.0123 108.634 86.8822 108.634 86.5615C108.634 86.2407 108.859 85.8511 109.136 85.6908Z" fill="#6F6C99"/>
<path d="M113.049 92.4672C113.326 92.3069 113.552 92.4369 113.552 92.7576C113.552 93.0784 113.327 93.468 113.049 93.6284C112.771 93.7887 112.546 93.6587 112.546 93.338C112.546 93.0172 112.771 92.6276 113.049 92.4672Z" fill="#6F6C99"/>
<path d="M116.961 92.4672C117.239 92.3069 117.464 92.4369 117.464 92.7576C117.464 93.0784 117.239 93.468 116.961 93.6284C116.683 93.7887 116.458 93.6587 116.458 93.338C116.459 93.0172 116.684 92.6276 116.961 92.4672Z" fill="#6F6C99"/>
<path d="M120.874 92.4672C121.152 92.3069 121.377 92.4369 121.377 92.7576C121.377 93.0784 121.152 93.468 120.874 93.6284C120.596 93.7887 120.371 93.6587 120.371 93.338C120.371 93.0172 120.596 92.6276 120.874 92.4672Z" fill="#6F6C99"/>
<path d="M124.786 85.6908C125.064 85.5304 125.289 85.6604 125.289 85.9812C125.289 86.3019 125.064 86.6915 124.786 86.8519C124.508 87.0123 124.284 86.8822 124.284 86.5615C124.284 86.2407 124.509 85.8511 124.786 85.6908Z" fill="#6F6C99"/>
<path d="M128.699 84.3923C128.977 84.2319 129.202 84.362 129.202 84.6827C129.202 85.0034 128.977 85.393 128.699 85.5534C128.421 85.7138 128.196 85.5838 128.196 85.263C128.196 84.9428 128.421 84.5527 128.699 84.3923Z" fill="#6F6C99"/>
<path d="M132.625 78.9141C132.903 78.7538 133.128 78.8838 133.128 79.2045C133.128 79.5253 132.903 79.9149 132.625 80.0753C132.347 80.2356 132.122 80.1056 132.122 79.7849C132.122 79.4641 132.347 79.074 132.625 78.9141Z" fill="#6F6C99"/>
<path d="M136.524 78.9141C136.802 78.7538 137.027 78.8838 137.027 79.2045C137.027 79.5253 136.802 79.9149 136.524 80.0753C136.246 80.2356 136.021 80.1056 136.021 79.7849C136.021 79.4641 136.246 79.074 136.524 78.9141Z" fill="#6F6C99"/>
<path d="M140.437 78.9141C140.715 78.7538 140.94 78.8838 140.94 79.2045C140.94 79.5253 140.715 79.9149 140.437 80.0753C140.159 80.2356 139.934 80.1056 139.934 79.7849C139.934 79.4641 140.159 79.074 140.437 78.9141Z" fill="#6F6C99"/>
<path d="M144.349 76.655C144.627 76.4946 144.852 76.6246 144.852 76.9454C144.852 77.2661 144.627 77.6558 144.349 77.8161C144.071 77.9765 143.846 77.8465 143.846 77.5257C143.846 77.2055 144.071 76.8154 144.349 76.655Z" fill="#6F6C99"/>
<path d="M77.826 118.022C77.7975 118.022 77.7696 118.012 77.747 117.993C77.6969 117.949 77.6916 117.873 77.7354 117.823L81.6859 113.283C81.6946 113.273 81.7047 113.264 81.7163 113.257L85.6003 111.015L89.507 109.747L93.3983 105.701C93.4108 105.688 93.4267 105.678 93.4436 105.671L97.3272 104.24L101.22 99.7448C101.235 99.7269 101.255 99.7144 101.278 99.7077L105.128 98.5966L109.021 86.2346C109.035 86.1893 109.075 86.1561 109.122 86.1513C109.166 86.146 109.216 86.1691 109.24 86.211L113.117 92.9273L116.97 92.922L120.804 92.9273L124.681 86.211C124.696 86.1855 124.72 86.1662 124.748 86.157L128.623 84.8712L132.513 79.4248C132.536 79.393 132.572 79.3747 132.611 79.3747H140.403L144.288 77.1319C144.344 77.0982 144.419 77.118 144.453 77.1758C144.486 77.2336 144.466 77.3068 144.409 77.34L140.496 79.5992C140.478 79.6098 140.457 79.6155 140.436 79.6155H132.673L128.796 85.0436C128.782 85.0643 128.76 85.0797 128.736 85.0879L124.867 86.3718L120.978 93.1089C120.956 93.1459 120.916 93.1691 120.873 93.1691L116.97 93.1638L113.048 93.1691C113.005 93.1691 112.965 93.1459 112.943 93.1089L109.168 86.5693L105.338 98.732C105.326 98.7705 105.295 98.8004 105.257 98.8114L101.379 99.9307L97.489 104.422C97.4755 104.437 97.4582 104.449 97.4394 104.456L93.5529 105.888L89.6597 109.936C89.6457 109.951 89.6289 109.961 89.6096 109.967L85.6971 111.234L81.8535 113.456L77.916 117.981C77.8929 118.008 77.8597 118.022 77.826 118.022Z" fill="#6F6C99"/>
<path d="M77.8365 120.396C77.7532 120.396 77.6723 120.353 77.6275 120.275C77.561 120.16 77.6005 120.013 77.7156 119.946L144.228 81.5453C144.343 81.4794 144.491 81.5179 144.557 81.6335C144.624 81.7486 144.585 81.8959 144.469 81.9624L77.9564 120.363C77.9189 120.385 77.8774 120.396 77.8365 120.396Z" fill="#4C4C66"/>
<path d="M77.8365 115.057C78.1144 114.896 78.3393 115.026 78.3393 115.347C78.3393 115.668 78.1144 116.057 77.8365 116.218C77.5591 116.378 77.3337 116.248 77.3337 115.927C77.3337 115.607 77.5586 115.217 77.8365 115.057Z" fill="#6F6C99"/>
<path d="M81.7485 108.28C82.0259 108.119 82.2513 108.249 82.2513 108.57C82.2513 108.891 82.0264 109.28 81.7485 109.441C81.4711 109.601 81.2457 109.471 81.2457 109.15C81.2462 108.83 81.4711 108.44 81.7485 108.28Z" fill="#6F6C99"/>
<path d="M85.6615 107.434C85.9394 107.274 86.1643 107.404 86.1643 107.724C86.1643 108.045 85.9394 108.435 85.6615 108.595C85.3841 108.755 85.1587 108.625 85.1587 108.305C85.1587 107.984 85.3836 107.594 85.6615 107.434Z" fill="#6F6C99"/>
<path d="M89.5736 99.244C89.8515 99.0836 90.0764 99.2136 90.0764 99.5344C90.0764 99.8551 89.8515 100.245 89.5736 100.405C89.2957 100.565 89.0708 100.435 89.0708 100.115C89.0713 99.794 89.2962 99.4044 89.5736 99.244Z" fill="#6F6C99"/>
<path d="M93.4908 101.503C93.7687 101.343 93.9936 101.473 93.9936 101.794C93.9936 102.114 93.7687 102.504 93.4908 102.664C93.2134 102.825 92.988 102.695 92.988 102.374C92.988 102.053 93.2134 101.664 93.4908 101.503Z" fill="#6F6C99"/>
<path d="M97.3995 100.374C97.6774 100.213 97.9023 100.343 97.9023 100.664C97.9023 100.985 97.6774 101.375 97.3995 101.535C97.1221 101.695 96.8967 101.565 96.8967 101.244C96.8967 100.924 97.1221 100.534 97.3995 100.374Z" fill="#6F6C99"/>
<path d="M101.311 96.9852C101.589 96.8248 101.814 96.9548 101.814 97.2756C101.814 97.5963 101.589 97.9859 101.311 98.1463C101.033 98.3067 100.808 98.1767 100.808 97.8559C100.808 97.5352 101.033 97.1456 101.311 96.9852Z" fill="#6F6C99"/>
<path d="M105.224 92.4674C105.502 92.307 105.727 92.437 105.727 92.7578C105.727 93.0785 105.502 93.4681 105.224 93.6285C104.946 93.7889 104.721 93.6588 104.721 93.3381C104.721 93.0173 104.946 92.6277 105.224 92.4674Z" fill="#6F6C99"/>
<path d="M109.136 91.3382C109.414 91.1778 109.639 91.3079 109.639 91.6286C109.639 91.9494 109.414 92.339 109.136 92.4993C108.858 92.6597 108.634 92.5297 108.634 92.2089C108.634 91.8882 108.859 91.4986 109.136 91.3382Z" fill="#6F6C99"/>
<path d="M113.049 87.9495C113.326 87.7892 113.552 87.9192 113.552 88.2399C113.552 88.5607 113.327 88.9503 113.049 89.1107C112.771 89.271 112.546 89.141 112.546 88.8203C112.546 88.5 112.771 88.1099 113.049 87.9495Z" fill="#6F6C99"/>
<path d="M116.961 87.9495C117.239 87.7892 117.464 87.9192 117.464 88.2399C117.464 88.5607 117.239 88.9503 116.961 89.1107C116.683 89.271 116.458 89.141 116.458 88.8203C116.458 88.5 116.683 88.1099 116.961 87.9495Z" fill="#6F6C99"/>
<path d="M120.874 78.9143C121.152 78.7539 121.377 78.8839 121.377 79.2047C121.377 79.5254 121.152 79.915 120.874 80.0754C120.596 80.2358 120.371 80.1057 120.371 79.785C120.371 79.4642 120.596 79.0746 120.874 78.9143Z" fill="#6F6C99"/>
<path d="M124.786 83.3999C125.064 83.2395 125.289 83.3695 125.289 83.6903C125.289 84.011 125.064 84.4006 124.786 84.561C124.508 84.7214 124.284 84.5913 124.284 84.2706C124.284 83.9498 124.509 83.5602 124.786 83.3999Z" fill="#6F6C99"/>
<path d="M128.699 78.9143C128.976 78.7539 129.202 78.8839 129.202 79.2047C129.202 79.5254 128.977 79.915 128.699 80.0754C128.421 80.2358 128.196 80.1057 128.196 79.785C128.196 79.4642 128.421 79.0746 128.699 78.9143Z" fill="#6F6C99"/>
<path d="M132.611 76.6551C132.889 76.4947 133.114 76.6248 133.114 76.9455C133.114 77.2663 132.889 77.6559 132.611 77.8162C132.333 77.9766 132.109 77.8466 132.109 77.5258C132.109 77.2056 132.334 76.8155 132.611 76.6551Z" fill="#6F6C99"/>
<path d="M136.524 76.6551C136.801 76.4947 137.027 76.6248 137.027 76.9455C137.027 77.2663 136.802 77.6559 136.524 77.8162C136.246 77.9766 136.021 77.8466 136.021 77.5258C136.021 77.2051 136.246 76.8155 136.524 76.6551Z" fill="#6F6C99"/>
<path d="M140.437 74.3964C140.715 74.2361 140.94 74.3661 140.94 74.6869C140.94 75.0076 140.715 75.3972 140.437 75.5576C140.159 75.7179 139.934 75.5879 139.934 75.2672C139.934 74.9464 140.159 74.5568 140.437 74.3964Z" fill="#6F6C99"/>
<path d="M144.349 74.3964C144.627 74.2361 144.852 74.3661 144.852 74.6869C144.852 75.0076 144.627 75.3972 144.349 75.5576C144.071 75.7179 143.846 75.5879 143.846 75.2672C143.846 74.9464 144.071 74.5568 144.349 74.3964Z" fill="#6F6C99"/>
<path d="M77.8365 115.757C77.8157 115.757 77.795 115.752 77.7763 115.741C77.7185 115.708 77.6992 115.634 77.7324 115.577L81.6728 108.784C81.6897 108.754 81.7186 108.733 81.7518 108.727L85.5781 107.909L89.4646 99.7727C89.479 99.7424 89.5055 99.7198 89.5373 99.7096C89.57 99.6995 89.6047 99.7039 89.6331 99.7202L93.5061 101.956L97.3396 100.846L101.227 97.4779L105.132 92.9692C105.147 92.9514 105.167 92.9389 105.189 92.9321L109.077 91.81L112.969 88.4394C112.991 88.4201 113.019 88.41 113.048 88.41H116.881L120.762 79.447C120.779 79.409 120.814 79.382 120.854 79.3757C120.895 79.369 120.936 79.3849 120.964 79.4157L124.785 83.8286L128.607 79.4157C128.616 79.4056 128.626 79.3969 128.638 79.3902L132.563 77.1233C132.582 77.1127 132.603 77.1069 132.624 77.1069H136.504L140.375 74.8723C140.393 74.8617 140.414 74.856 140.435 74.856H144.348C144.415 74.856 144.469 74.9099 144.469 74.9764C144.469 75.0428 144.415 75.0968 144.348 75.0968H140.467L136.596 77.3314C136.578 77.342 136.557 77.3477 136.536 77.3477H132.656L128.775 79.5881L124.876 84.0905C124.83 84.143 124.739 84.143 124.693 84.0905L120.906 79.7177L117.07 88.5771C117.051 88.6214 117.007 88.6498 116.96 88.6498H113.092L109.214 92.0089C109.201 92.0205 109.185 92.0287 109.168 92.0335L105.289 93.1532L101.395 97.647L97.4759 101.045C97.4629 101.056 97.447 101.064 97.4302 101.069L93.522 102.201C93.4907 102.21 93.456 102.206 93.4286 102.19L89.6245 99.9933L85.7683 108.066C85.7524 108.1 85.7211 108.124 85.6845 108.132L81.852 108.95L77.9386 115.697C77.9183 115.736 77.8779 115.757 77.8365 115.757Z" fill="#6F6C99"/>
<g opacity="0.3">
<path d="M77.8365 115.057C78.1144 114.896 78.3393 115.026 78.3393 115.347C78.3393 115.668 78.1144 116.057 77.8365 116.218C77.5591 116.378 77.3337 116.248 77.3337 115.927C77.3337 115.607 77.5586 115.217 77.8365 115.057Z" fill="#4C4C66"/>
<path d="M81.7485 108.28C82.0259 108.119 82.2513 108.249 82.2513 108.57C82.2513 108.891 82.0264 109.28 81.7485 109.441C81.4711 109.601 81.2457 109.471 81.2457 109.15C81.2462 108.83 81.4711 108.44 81.7485 108.28Z" fill="#4C4C66"/>
<path d="M85.6615 107.434C85.9394 107.274 86.1643 107.404 86.1643 107.724C86.1643 108.045 85.9394 108.435 85.6615 108.595C85.3841 108.755 85.1587 108.625 85.1587 108.305C85.1587 107.984 85.3836 107.594 85.6615 107.434Z" fill="#4C4C66"/>
<path d="M89.5736 99.244C89.8515 99.0836 90.0764 99.2136 90.0764 99.5344C90.0764 99.8551 89.8515 100.245 89.5736 100.405C89.2957 100.565 89.0708 100.435 89.0708 100.115C89.0713 99.794 89.2962 99.4044 89.5736 99.244Z" fill="#4C4C66"/>
<path d="M93.4908 101.503C93.7687 101.343 93.9936 101.473 93.9936 101.794C93.9936 102.114 93.7687 102.504 93.4908 102.664C93.2134 102.825 92.988 102.695 92.988 102.374C92.988 102.053 93.2134 101.664 93.4908 101.503Z" fill="#4C4C66"/>
<path d="M97.3995 100.374C97.6774 100.213 97.9023 100.343 97.9023 100.664C97.9023 100.985 97.6774 101.375 97.3995 101.535C97.1221 101.695 96.8967 101.565 96.8967 101.244C96.8967 100.924 97.1221 100.534 97.3995 100.374Z" fill="#4C4C66"/>
<path d="M101.311 96.9852C101.589 96.8248 101.814 96.9548 101.814 97.2756C101.814 97.5963 101.589 97.9859 101.311 98.1463C101.033 98.3067 100.808 98.1767 100.808 97.8559C100.808 97.5352 101.033 97.1456 101.311 96.9852Z" fill="#4C4C66"/>
<path d="M105.224 92.4674C105.502 92.307 105.727 92.437 105.727 92.7578C105.727 93.0785 105.502 93.4681 105.224 93.6285C104.946 93.7889 104.721 93.6588 104.721 93.3381C104.721 93.0173 104.946 92.6277 105.224 92.4674Z" fill="#4C4C66"/>
<path d="M109.136 91.3382C109.414 91.1778 109.639 91.3079 109.639 91.6286C109.639 91.9494 109.414 92.339 109.136 92.4993C108.858 92.6597 108.634 92.5297 108.634 92.2089C108.634 91.8882 108.859 91.4986 109.136 91.3382Z" fill="#4C4C66"/>
<path d="M113.049 87.9495C113.326 87.7892 113.552 87.9192 113.552 88.2399C113.552 88.5607 113.327 88.9503 113.049 89.1107C112.771 89.271 112.546 89.141 112.546 88.8203C112.546 88.5 112.771 88.1099 113.049 87.9495Z" fill="#4C4C66"/>
<path d="M116.961 87.9495C117.239 87.7892 117.464 87.9192 117.464 88.2399C117.464 88.5607 117.239 88.9503 116.961 89.1107C116.683 89.271 116.458 89.141 116.458 88.8203C116.458 88.5 116.683 88.1099 116.961 87.9495Z" fill="#4C4C66"/>
<path d="M120.874 78.9143C121.152 78.7539 121.377 78.8839 121.377 79.2047C121.377 79.5254 121.152 79.915 120.874 80.0754C120.596 80.2358 120.371 80.1057 120.371 79.785C120.371 79.4642 120.596 79.0746 120.874 78.9143Z" fill="#4C4C66"/>
<path d="M124.786 83.3999C125.064 83.2395 125.289 83.3695 125.289 83.6903C125.289 84.011 125.064 84.4006 124.786 84.561C124.508 84.7214 124.284 84.5913 124.284 84.2706C124.284 83.9498 124.509 83.5602 124.786 83.3999Z" fill="#4C4C66"/>
<path d="M128.699 78.9143C128.976 78.7539 129.202 78.8839 129.202 79.2047C129.202 79.5254 128.977 79.915 128.699 80.0754C128.421 80.2358 128.196 80.1057 128.196 79.785C128.196 79.4642 128.421 79.0746 128.699 78.9143Z" fill="#4C4C66"/>
<path d="M132.611 76.6551C132.889 76.4947 133.114 76.6248 133.114 76.9455C133.114 77.2663 132.889 77.6559 132.611 77.8162C132.333 77.9766 132.109 77.8466 132.109 77.5258C132.109 77.2056 132.334 76.8155 132.611 76.6551Z" fill="#4C4C66"/>
<path d="M136.524 76.6551C136.801 76.4947 137.027 76.6248 137.027 76.9455C137.027 77.2663 136.802 77.6559 136.524 77.8162C136.246 77.9766 136.021 77.8466 136.021 77.5258C136.021 77.2051 136.246 76.8155 136.524 76.6551Z" fill="#4C4C66"/>
<path d="M140.437 74.3964C140.715 74.2361 140.94 74.3661 140.94 74.6869C140.94 75.0076 140.715 75.3972 140.437 75.5576C140.159 75.7179 139.934 75.5879 139.934 75.2672C139.934 74.9464 140.159 74.5568 140.437 74.3964Z" fill="#4C4C66"/>
<path d="M144.349 74.3964C144.627 74.2361 144.852 74.3661 144.852 74.6869C144.852 75.0076 144.627 75.3972 144.349 75.5576C144.071 75.7179 143.846 75.5879 143.846 75.2672C143.846 74.9464 144.071 74.5568 144.349 74.3964Z" fill="#4C4C66"/>
<path d="M77.8365 115.757C77.8157 115.757 77.795 115.752 77.7763 115.741C77.7185 115.708 77.6992 115.634 77.7324 115.577L81.6728 108.784C81.6897 108.754 81.7186 108.733 81.7518 108.727L85.5781 107.909L89.4646 99.7727C89.479 99.7424 89.5055 99.7198 89.5373 99.7096C89.57 99.6995 89.6047 99.7039 89.6331 99.7202L93.5061 101.956L97.3396 100.846L101.227 97.4779L105.132 92.9692C105.147 92.9514 105.167 92.9389 105.189 92.9321L109.077 91.81L112.969 88.4394C112.991 88.4201 113.019 88.41 113.048 88.41H116.881L120.762 79.447C120.779 79.409 120.814 79.382 120.854 79.3757C120.895 79.369 120.936 79.3849 120.964 79.4157L124.785 83.8286L128.607 79.4157C128.616 79.4056 128.626 79.3969 128.638 79.3902L132.563 77.1233C132.582 77.1127 132.603 77.1069 132.624 77.1069H136.504L140.375 74.8723C140.393 74.8617 140.414 74.856 140.435 74.856H144.348C144.415 74.856 144.469 74.9099 144.469 74.9764C144.469 75.0428 144.415 75.0968 144.348 75.0968H140.467L136.596 77.3314C136.578 77.342 136.557 77.3477 136.536 77.3477H132.656L128.775 79.5881L124.876 84.0905C124.83 84.143 124.739 84.143 124.693 84.0905L120.906 79.7177L117.07 88.5771C117.051 88.6214 117.007 88.6498 116.96 88.6498H113.092L109.214 92.0089C109.201 92.0205 109.185 92.0287 109.168 92.0335L105.289 93.1532L101.395 97.647L97.4759 101.045C97.4629 101.056 97.447 101.064 97.4302 101.069L93.522 102.201C93.4907 102.21 93.456 102.206 93.4286 102.19L89.6245 99.9933L85.7683 108.066C85.7524 108.1 85.7211 108.124 85.6845 108.132L81.852 108.95L77.9386 115.697C77.9183 115.736 77.8779 115.757 77.8365 115.757Z" fill="#4C4C66"/>
</g>
<path d="M79.8857 98.2945L83.6739 96.096C83.8656 95.9852 84.0211 96.0637 84.0211 96.2718C84.0211 96.4798 83.8656 96.738 83.6739 96.8487L79.8857 99.0472C79.694 99.158 79.5385 99.0795 79.5385 98.8714C79.5385 98.6639 79.694 98.4053 79.8857 98.2945Z" fill="#4C4C66"/>
<path d="M77.8365 99.2441C78.1144 99.0837 78.3393 99.2138 78.3393 99.5345C78.3393 99.8553 78.1144 100.245 77.8365 100.405C77.5591 100.566 77.3337 100.436 77.3337 100.115C77.3337 99.7941 77.5586 99.4045 77.8365 99.2441Z" fill="#6F6C99"/>
<path opacity="0.3" d="M77.8365 99.2441C78.1144 99.0837 78.3393 99.2138 78.3393 99.5345C78.3393 99.8553 78.1144 100.245 77.8365 100.405C77.5591 100.566 77.3337 100.436 77.3337 100.115C77.3337 99.7941 77.5586 99.4045 77.8365 99.2441Z" fill="#4C4C66"/>
<path d="M79.8857 100.548L83.6739 98.3492C83.8656 98.2384 84.0211 98.3169 84.0211 98.525C84.0211 98.733 83.8656 98.9911 83.6739 99.1019L79.8857 101.3C79.694 101.411 79.5385 101.333 79.5385 101.125C79.5385 100.917 79.694 100.658 79.8857 100.548Z" fill="#4C4C66"/>
<path d="M77.8365 101.503C78.1144 101.343 78.3393 101.473 78.3393 101.794C78.3393 102.114 78.1144 102.504 77.8365 102.664C77.5591 102.825 77.3337 102.695 77.3337 102.374C77.3337 102.053 77.5586 101.664 77.8365 101.503Z" fill="#6F6C99"/>
<path d="M77.8365 131.603C77.8061 131.603 77.7758 131.592 77.7527 131.569C77.7045 131.522 77.7036 131.446 77.7498 131.399L79.7354 129.358L81.6844 129.111L83.6522 126.568L85.6224 126.838L87.5368 125.11L89.4911 123.938L91.4834 121.177L93.4618 121.797L95.3627 120.099C95.4123 120.054 95.4879 120.059 95.5332 120.109C95.5775 120.159 95.5732 120.235 95.5235 120.279L93.5201 122.069L91.5774 121.46L89.636 124.133L87.6793 125.304L85.7009 127.093L83.7582 126.826L81.814 129.338L79.85 129.587L77.9236 131.568C77.8991 131.59 77.8678 131.603 77.8365 131.603Z" fill="#6F6C99"/>
<path d="M78.6098 124.996C78.6223 124.983 78.6397 124.968 78.6599 124.952C78.6801 124.936 78.6974 124.924 78.7129 124.915C78.8198 124.854 78.9185 124.823 79.0086 124.826C79.0991 124.828 79.1781 124.857 79.2436 124.915C79.3091 124.973 79.3606 125.055 79.3977 125.163C79.4348 125.271 79.4535 125.4 79.4535 125.55C79.4535 125.699 79.4348 125.85 79.3977 126C79.3606 126.151 79.3086 126.293 79.2436 126.427C79.1776 126.56 79.0991 126.68 79.0086 126.787C78.918 126.894 78.8193 126.978 78.7129 127.04C78.6055 127.101 78.5067 127.131 78.4162 127.129C78.3257 127.127 78.2476 127.097 78.1817 127.04C78.1157 126.982 78.0646 126.899 78.0271 126.792C77.99 126.684 77.9717 126.556 77.9717 126.405C77.9717 126.32 77.9779 126.237 77.99 126.156C78.002 126.075 78.0184 125.997 78.0391 125.921C78.0593 125.845 78.0815 125.77 78.1065 125.697C78.1311 125.624 78.1561 125.553 78.1807 125.487L78.7018 124.005C78.7109 123.985 78.722 123.96 78.7331 123.931C78.7442 123.903 78.7634 123.881 78.7899 123.865L78.9537 123.771C78.9705 123.761 78.9845 123.763 78.9951 123.776C79.0057 123.789 79.011 123.809 79.011 123.836C79.011 123.85 79.009 123.863 79.0061 123.873C79.0033 123.883 78.9999 123.893 78.996 123.901L78.6098 124.996ZM78.2433 126.248C78.2433 126.337 78.2544 126.414 78.276 126.48C78.2982 126.547 78.329 126.6 78.369 126.638C78.4094 126.677 78.4581 126.698 78.5164 126.701C78.5746 126.704 78.6406 126.685 78.7129 126.643C78.7851 126.601 78.8501 126.545 78.9084 126.475C78.9667 126.404 79.0163 126.326 79.0562 126.242C79.0962 126.157 79.1275 126.069 79.1492 125.976C79.1709 125.885 79.1814 125.795 79.1814 125.706C79.1814 125.618 79.1709 125.54 79.1492 125.474C79.127 125.407 79.0962 125.354 79.0562 125.316C79.0163 125.277 78.9667 125.257 78.9084 125.254C78.8501 125.25 78.7851 125.27 78.7129 125.312C78.6406 125.354 78.5746 125.41 78.5164 125.48C78.4581 125.551 78.4094 125.629 78.369 125.713C78.329 125.798 78.2982 125.886 78.276 125.978C78.2544 126.071 78.2433 126.161 78.2433 126.248Z" fill="#6F6C99"/>
<path d="M79.941 125.542C79.9506 125.583 79.9636 125.623 79.9809 125.659C79.9978 125.697 80.0238 125.723 80.058 125.74C80.0922 125.757 80.1379 125.761 80.1938 125.752C80.2502 125.743 80.3234 125.713 80.4129 125.661C80.4722 125.627 80.528 125.584 80.582 125.531C80.6349 125.478 80.6821 125.417 80.7226 125.346C80.7626 125.276 80.7944 125.199 80.818 125.117C80.842 125.034 80.8536 124.944 80.8536 124.846C80.8536 124.753 80.8425 124.679 80.8199 124.626C80.7963 124.574 80.7655 124.538 80.7265 124.521C80.6874 124.505 80.6407 124.503 80.5878 124.515C80.5348 124.529 80.476 124.554 80.4134 124.589L80.176 124.727C80.1548 124.739 80.1365 124.738 80.1216 124.723C80.1066 124.708 80.0985 124.685 80.0985 124.652V124.494C80.0985 124.467 80.1038 124.44 80.1143 124.412C80.1245 124.384 80.1346 124.359 80.1447 124.335L80.6595 123.182L79.8355 123.658C79.8143 123.67 79.796 123.669 79.7811 123.654C79.7662 123.64 79.758 123.616 79.758 123.583V123.425C79.758 123.393 79.7662 123.36 79.7811 123.328C79.796 123.296 79.8143 123.274 79.8355 123.262L80.9634 122.61C80.9846 122.598 81.0024 122.599 81.0178 122.614C81.0327 122.628 81.0404 122.652 81.0404 122.685V122.843C81.0404 122.87 81.0356 122.898 81.0265 122.929C81.0169 122.959 81.0043 122.991 80.9889 123.023L80.4823 124.157C80.5776 124.105 80.6653 124.077 80.7443 124.074C80.8237 124.071 80.8912 124.092 80.9475 124.137C81.0038 124.183 81.0477 124.252 81.079 124.343C81.1108 124.435 81.1267 124.55 81.1267 124.688C81.1267 124.839 81.1074 124.984 81.0693 125.125C81.0308 125.266 80.9798 125.396 80.9162 125.513C80.8521 125.631 80.777 125.737 80.6903 125.831C80.6032 125.925 80.5112 126.001 80.4139 126.057C80.2858 126.13 80.176 126.171 80.0835 126.179C79.9911 126.188 79.9145 126.171 79.8543 126.131C79.7941 126.091 79.7493 126.033 79.7199 125.957C79.6901 125.882 79.6746 125.797 79.6722 125.701C79.6722 125.674 79.6785 125.648 79.691 125.621C79.7031 125.595 79.7185 125.577 79.7358 125.567L79.8668 125.491C79.888 125.479 79.9048 125.479 79.9169 125.491C79.9294 125.504 79.9366 125.52 79.941 125.542Z" fill="#6F6C99"/>
<path d="M81.6439 124.558C81.6535 124.6 81.667 124.639 81.6838 124.677C81.7012 124.713 81.7272 124.741 81.7614 124.757C81.7956 124.774 81.8413 124.778 81.8972 124.769C81.9535 124.76 82.0267 124.73 82.1163 124.677C82.1755 124.643 82.2314 124.6 82.2853 124.547C82.3383 124.494 82.3855 124.432 82.4255 124.362C82.4655 124.292 82.4977 124.215 82.5213 124.133C82.5454 124.05 82.557 123.96 82.557 123.863C82.557 123.769 82.5459 123.696 82.5228 123.642C82.4996 123.59 82.4688 123.554 82.4298 123.538C82.3908 123.521 82.3441 123.519 82.2911 123.532C82.2377 123.545 82.1794 123.569 82.1168 123.606L81.8789 123.743C81.8582 123.755 81.8399 123.754 81.8249 123.739C81.8095 123.724 81.8018 123.701 81.8018 123.669V123.51C81.8018 123.483 81.8071 123.456 81.8177 123.428C81.8278 123.399 81.8379 123.374 81.848 123.351L82.3629 122.198L81.5384 122.674C81.5172 122.686 81.4994 122.684 81.484 122.67C81.469 122.655 81.4613 122.632 81.4613 122.6V122.441C81.4613 122.409 81.469 122.376 81.484 122.344C81.4994 122.312 81.5172 122.29 81.5384 122.277L82.6663 121.626C82.6875 121.614 82.7053 121.616 82.7207 121.63C82.7356 121.645 82.7438 121.668 82.7438 121.7V121.859C82.7438 121.886 82.7385 121.914 82.7299 121.944C82.7197 121.975 82.7077 122.006 82.6923 122.039L82.1856 123.173C82.281 123.121 82.3682 123.093 82.4472 123.09C82.5266 123.086 82.5945 123.108 82.6509 123.153C82.7072 123.199 82.751 123.267 82.7823 123.359C82.8141 123.451 82.83 123.566 82.83 123.705C82.83 123.854 82.8108 124 82.7727 124.141C82.7342 124.282 82.6831 124.411 82.6196 124.529C82.5555 124.647 82.4804 124.753 82.3932 124.847C82.3065 124.941 82.2145 125.017 82.1173 125.072C81.9892 125.147 81.8789 125.187 81.7864 125.195C81.6935 125.203 81.6169 125.187 81.5567 125.147C81.497 125.106 81.4522 125.049 81.4223 124.973C81.3925 124.898 81.377 124.812 81.3751 124.717C81.3751 124.69 81.3814 124.664 81.3939 124.637C81.4059 124.611 81.4214 124.593 81.4382 124.583L81.5697 124.507C81.5909 124.495 81.6077 124.495 81.6198 124.507C81.6323 124.521 81.64 124.537 81.6439 124.558Z" fill="#6F6C99"/>
<path d="M78.1905 133.158L95.0954 123.361C95.2871 123.25 95.4427 123.329 95.4427 123.537C95.4427 123.745 95.2871 124.003 95.0954 124.114L78.1905 133.91C77.9988 134.021 77.8433 133.943 77.8433 133.735C77.8428 133.527 77.9983 133.268 78.1905 133.158Z" fill="#4C4C66"/>
<path d="M78.1905 121.857L81.9787 119.659C82.1704 119.548 82.326 119.626 82.326 119.834C82.326 120.042 82.1704 120.301 81.9787 120.411L78.1905 122.61C77.9988 122.721 77.8433 122.642 77.8433 122.434C77.8428 122.226 77.9983 121.968 78.1905 121.857Z" fill="#4C4C66"/>
<path d="M77.8365 145.144C77.8061 145.144 77.7758 145.133 77.7527 145.11C77.7045 145.063 77.7036 144.987 77.7498 144.94L79.7354 142.899L81.6969 142.65L83.6734 140.923L85.5776 140.404L87.5633 136.451L89.5546 137.426L91.4748 135.733L91.507 135.727L93.4137 135.365L95.3381 132.037C95.3714 131.978 95.446 131.96 95.5028 131.992C95.5606 132.026 95.5799 132.1 95.5471 132.157L93.5673 135.581L91.5851 135.957L89.5932 137.712L87.6716 136.771L85.7452 140.608L83.764 141.148L81.801 142.879L79.8495 143.127L77.9232 145.107C77.8991 145.132 77.8678 145.144 77.8365 145.144Z" fill="#6F6C99"/>
<g opacity="0.3">
<path d="M77.8365 145.144C77.8061 145.144 77.7758 145.133 77.7527 145.11C77.7045 145.063 77.7036 144.987 77.7498 144.94L79.7354 142.899L81.6969 142.65L83.6734 140.923L85.5776 140.404L87.5633 136.451L89.5546 137.426L91.4748 135.733L91.507 135.727L93.4137 135.365L95.3381 132.037C95.3714 131.978 95.446 131.96 95.5028 131.992C95.5606 132.026 95.5799 132.1 95.5471 132.157L93.5673 135.581L91.5851 135.957L89.5932 137.712L87.6716 136.771L85.7452 140.608L83.764 141.148L81.801 142.879L79.8495 143.127L77.9232 145.107C77.8991 145.132 77.8678 145.144 77.8365 145.144Z" fill="#4C4C66"/>
</g>
<path d="M78.836 140.347C78.836 140.379 78.8283 140.411 78.8134 140.444C78.798 140.476 78.7802 140.498 78.759 140.511L78.6415 140.579C78.6203 140.591 78.6025 140.589 78.587 140.575C78.5721 140.56 78.5644 140.537 78.5644 140.504V138.076L78.1006 138.886C78.0833 138.919 78.0645 138.939 78.0433 138.946C78.0221 138.952 78.0053 138.947 77.9918 138.931L77.9234 138.834C77.9099 138.816 77.9046 138.789 77.9075 138.755C77.9104 138.722 77.9205 138.689 77.9378 138.659L78.55 137.582C78.5654 137.556 78.5803 137.537 78.5962 137.525C78.6111 137.514 78.6265 137.503 78.6419 137.494L78.7594 137.426C78.7806 137.414 78.7985 137.415 78.8139 137.43C78.8288 137.444 78.8365 137.468 78.8365 137.5L78.836 140.347Z" fill="#6F6C99"/>
<path d="M80.0872 138.122C80.1445 138.01 80.1874 137.904 80.2158 137.805C80.2447 137.706 80.2586 137.591 80.2586 137.459C80.2586 137.303 80.2288 137.19 80.1695 137.119C80.1108 137.049 80.0174 137.051 79.8893 137.126C79.8223 137.164 79.7655 137.212 79.7188 137.268C79.6716 137.324 79.6326 137.388 79.6013 137.457C79.5704 137.526 79.5454 137.599 79.5271 137.676C79.5093 137.753 79.4943 137.83 79.4823 137.907C79.4765 137.942 79.4674 137.973 79.4524 137.999C79.438 138.024 79.4235 138.042 79.4081 138.051L79.2762 138.127C79.2593 138.136 79.2449 138.135 79.2319 138.124C79.2198 138.112 79.2136 138.093 79.2136 138.066C79.215 137.956 79.2314 137.837 79.2617 137.707C79.2926 137.578 79.3359 137.452 79.3932 137.328C79.4505 137.203 79.5208 137.088 79.6037 136.981C79.687 136.875 79.7819 136.79 79.8888 136.729C79.9938 136.668 80.0862 136.64 80.1662 136.643C80.2466 136.647 80.3135 136.675 80.3665 136.731C80.42 136.785 80.4609 136.861 80.4884 136.959C80.5163 137.058 80.5303 137.172 80.5303 137.302C80.5303 137.396 80.525 137.483 80.5158 137.565C80.5062 137.648 80.4908 137.729 80.4686 137.811C80.4465 137.893 80.418 137.976 80.3838 138.061C80.3497 138.145 80.3078 138.235 80.2577 138.331L79.6196 139.617L80.4951 139.112C80.5163 139.1 80.5341 139.101 80.5495 139.115C80.5644 139.13 80.5726 139.154 80.5726 139.186V139.344C80.5726 139.377 80.5644 139.409 80.5495 139.441C80.5341 139.473 80.5163 139.495 80.4951 139.508L79.2613 140.22C79.2405 140.232 79.2222 140.231 79.2073 140.216C79.1919 140.201 79.1837 140.178 79.1837 140.145V139.987C79.1837 139.954 79.189 139.924 79.1986 139.895C79.2083 139.866 79.2242 139.828 79.2473 139.783L80.0872 138.122Z" fill="#6F6C99"/>
<path d="M82.3516 136.524C82.3536 136.655 82.3545 136.778 82.3545 136.894C82.3545 137.01 82.3536 137.135 82.3516 137.269C82.3497 137.44 82.3343 137.608 82.304 137.774C82.2746 137.939 82.2308 138.093 82.1715 138.236C82.1123 138.38 82.0372 138.507 81.9466 138.621C81.8556 138.736 81.7477 138.829 81.6215 138.902C81.4954 138.974 81.3875 139.006 81.2965 138.997C81.2059 138.987 81.1308 138.946 81.072 138.87C81.0123 138.796 80.968 138.694 80.9391 138.562C80.9088 138.43 80.8934 138.28 80.8914 138.111C80.8895 137.979 80.8885 137.856 80.8885 137.74C80.8885 137.624 80.8895 137.499 80.8914 137.366C80.8934 137.194 80.9088 137.025 80.9391 136.86C80.968 136.694 81.0123 136.54 81.072 136.397C81.1308 136.255 81.2059 136.125 81.2965 136.01C81.387 135.894 81.4954 135.8 81.6215 135.727C81.7477 135.655 81.8556 135.623 81.9466 135.635C82.0372 135.645 82.1123 135.688 82.1715 135.763C82.2308 135.837 82.2751 135.94 82.304 136.072C82.3343 136.203 82.3497 136.354 82.3516 136.524ZM81.1607 137.956C81.1645 138.233 81.205 138.415 81.2825 138.503C81.3596 138.591 81.4732 138.591 81.6215 138.505C81.7704 138.419 81.8835 138.288 81.9606 138.111C82.0381 137.934 82.0786 137.705 82.0824 137.424C82.0844 137.291 82.0853 137.166 82.0853 137.05C82.0853 136.934 82.0844 136.81 82.0824 136.679C82.0786 136.402 82.0381 136.219 81.9606 136.13C81.8835 136.041 81.7704 136.039 81.6215 136.125C81.4727 136.211 81.3596 136.343 81.2825 136.521C81.205 136.699 81.1645 136.929 81.1607 137.211C81.1587 137.344 81.1578 137.469 81.1578 137.585C81.1578 137.702 81.1587 137.825 81.1607 137.956Z" fill="#6F6C99"/>
<path d="M78.1905 146.699L95.0954 136.902C95.2871 136.791 95.4427 136.87 95.4427 137.078C95.4427 137.286 95.2871 137.544 95.0954 137.655L78.1905 147.451C77.9988 147.562 77.8433 147.484 77.8433 147.275C77.8428 147.068 77.9983 146.809 78.1905 146.699Z" fill="#4C4C66"/>
<path d="M78.1905 135.398L81.9787 133.2C82.1704 133.089 82.326 133.168 82.326 133.376C82.326 133.584 82.1704 133.842 81.9787 133.953L78.1905 136.151C77.9988 136.262 77.8433 136.183 77.8433 135.975C77.8428 135.767 77.9983 135.509 78.1905 135.398Z" fill="#4C4C66"/>
<path d="M101.311 118.022C101.276 118.022 101.241 118.006 101.217 117.976C101.176 117.924 101.185 117.848 101.236 117.807L103.193 116.246L105.163 113.995L107.163 113.705L109.071 113.274L111.046 110.941L112.99 111.285L114.94 108.197L116.921 108.229L118.838 106.516C118.887 106.472 118.963 106.476 119.008 106.525C119.052 106.575 119.048 106.651 118.998 106.695L117.011 108.472L115.071 108.44L113.108 111.55L111.14 111.202L109.203 113.491L107.206 113.941L105.285 114.22L103.359 116.418L101.387 117.994C101.365 118.013 101.338 118.022 101.311 118.022Z" fill="#6F6C99"/>
<path d="M102.085 111.415C102.098 111.402 102.115 111.387 102.135 111.371C102.156 111.354 102.173 111.342 102.188 111.334C102.295 111.272 102.394 111.242 102.484 111.244C102.575 111.246 102.654 111.276 102.719 111.333C102.785 111.391 102.836 111.473 102.873 111.581C102.91 111.69 102.929 111.818 102.929 111.968C102.929 112.118 102.91 112.269 102.873 112.419C102.836 112.57 102.784 112.712 102.719 112.846C102.653 112.979 102.575 113.099 102.484 113.206C102.393 113.313 102.295 113.397 102.188 113.459C102.081 113.52 101.982 113.55 101.892 113.548C101.801 113.546 101.723 113.516 101.657 113.459C101.591 113.401 101.54 113.318 101.503 113.211C101.465 113.103 101.447 112.975 101.447 112.824C101.447 112.739 101.453 112.656 101.465 112.575C101.477 112.494 101.494 112.416 101.515 112.34C101.535 112.264 101.557 112.189 101.582 112.116C101.607 112.043 101.631 111.972 101.656 111.906L102.177 110.424C102.187 110.404 102.197 110.379 102.209 110.35C102.22 110.322 102.239 110.3 102.265 110.284L102.429 110.19C102.446 110.181 102.459 110.182 102.471 110.195C102.481 110.208 102.486 110.228 102.486 110.255C102.486 110.268 102.485 110.282 102.482 110.292C102.479 110.302 102.475 110.312 102.471 110.32L102.085 111.415ZM101.718 112.666C101.718 112.755 101.729 112.833 101.751 112.898C101.773 112.965 101.804 113.018 101.844 113.056C101.884 113.095 101.933 113.116 101.991 113.119C102.05 113.122 102.116 113.103 102.188 113.061C102.26 113.019 102.325 112.963 102.383 112.893C102.442 112.822 102.491 112.744 102.531 112.66C102.571 112.575 102.602 112.487 102.624 112.394C102.646 112.303 102.656 112.213 102.656 112.124C102.656 112.036 102.646 111.958 102.624 111.892C102.602 111.825 102.571 111.773 102.531 111.734C102.491 111.695 102.442 111.675 102.383 111.672C102.325 111.668 102.26 111.688 102.188 111.73C102.116 111.772 102.05 111.828 101.991 111.898C101.933 111.968 101.884 112.047 101.844 112.131C101.804 112.216 101.773 112.304 101.751 112.396C101.729 112.489 101.718 112.579 101.718 112.666Z" fill="#6F6C99"/>
<path d="M104.069 110.706C104.126 110.594 104.169 110.488 104.198 110.389C104.226 110.291 104.241 110.175 104.241 110.043C104.241 109.887 104.211 109.774 104.152 109.704C104.093 109.634 103.999 109.636 103.871 109.71C103.804 109.748 103.748 109.796 103.701 109.852C103.654 109.909 103.614 109.972 103.584 110.041C103.552 110.11 103.527 110.184 103.509 110.261C103.491 110.337 103.476 110.414 103.465 110.492C103.459 110.527 103.449 110.558 103.435 110.583C103.42 110.609 103.405 110.627 103.39 110.635L103.258 110.711C103.241 110.721 103.227 110.72 103.214 110.708C103.202 110.696 103.195 110.677 103.195 110.65C103.197 110.541 103.213 110.421 103.244 110.292C103.275 110.163 103.319 110.036 103.376 109.912C103.433 109.787 103.503 109.673 103.586 109.565C103.669 109.459 103.764 109.375 103.871 109.313C103.977 109.252 104.069 109.224 104.149 109.227C104.229 109.232 104.296 109.26 104.349 109.315C104.402 109.369 104.443 109.445 104.471 109.544C104.499 109.643 104.513 109.757 104.513 109.887C104.513 109.981 104.508 110.068 104.499 110.15C104.488 110.232 104.473 110.314 104.451 110.396C104.429 110.478 104.401 110.56 104.366 110.646C104.332 110.73 104.29 110.82 104.24 110.916L103.602 112.202L104.477 111.696C104.499 111.684 104.517 111.685 104.532 111.7C104.547 111.714 104.555 111.738 104.555 111.77V111.929C104.555 111.961 104.547 111.994 104.532 112.025C104.517 112.058 104.499 112.08 104.477 112.092L103.244 112.805C103.223 112.817 103.205 112.816 103.19 112.801C103.174 112.786 103.167 112.763 103.167 112.73V112.572C103.167 112.54 103.171 112.509 103.181 112.48C103.191 112.451 103.206 112.414 103.23 112.368L104.069 110.706Z" fill="#6F6C99"/>
<path d="M106.016 108.119C106.037 108.107 106.055 108.109 106.07 108.123C106.085 108.137 106.093 108.161 106.093 108.193V108.352C106.093 108.378 106.09 108.408 106.084 108.44C106.078 108.473 106.071 108.508 106.061 108.546L105.426 111.439C105.418 111.47 105.408 111.5 105.396 111.529C105.383 111.559 105.365 111.579 105.342 111.592L105.211 111.669C105.192 111.68 105.176 111.679 105.162 111.666C105.149 111.653 105.142 111.632 105.142 111.603C105.142 111.597 105.143 111.59 105.143 111.582C105.144 111.573 105.147 111.561 105.151 111.544L105.789 108.646L104.851 109.188C104.829 109.2 104.811 109.198 104.796 109.184C104.781 109.169 104.773 109.145 104.773 109.114V108.955C104.773 108.923 104.781 108.891 104.796 108.858C104.811 108.826 104.829 108.803 104.851 108.791L106.016 108.119Z" fill="#6F6C99"/>
<path d="M101.665 119.576L118.57 109.779C118.762 109.669 118.917 109.747 118.917 109.955C118.917 110.163 118.762 110.421 118.57 110.532L101.665 120.329C101.474 120.44 101.318 120.361 101.318 120.153C101.318 119.945 101.474 119.687 101.665 119.576Z" fill="#4C4C66"/>
<path d="M101.665 108.276L105.453 106.077C105.645 105.966 105.801 106.045 105.801 106.253C105.801 106.461 105.645 106.719 105.453 106.83L101.665 109.028C101.474 109.139 101.318 109.061 101.318 108.853C101.318 108.645 101.474 108.386 101.665 108.276Z" fill="#4C4C66"/>
<path d="M101.311 131.563C101.29 131.563 101.268 131.557 101.249 131.546C101.192 131.511 101.174 131.437 101.208 131.38L103.208 128.101L105.219 128.473L107.111 127.956L109.068 125.568L111.013 125.078L112.99 121.555L115.011 122.142L116.91 121.782L118.837 120.066C118.886 120.021 118.963 120.026 119.007 120.076C119.051 120.126 119.047 120.202 118.997 120.246L117.02 122.005L116.988 122.012L114.999 122.389L113.107 121.84L111.172 125.286L109.203 125.783L107.248 128.167L107.211 128.178L105.229 128.72L105.201 128.715L103.327 128.368L101.413 131.506C101.391 131.542 101.352 131.563 101.311 131.563Z" fill="#6F6C99"/>
<g opacity="0.3">
<path d="M101.311 131.563C101.29 131.563 101.268 131.557 101.249 131.546C101.192 131.511 101.174 131.437 101.208 131.38L103.208 128.101L105.219 128.473L107.111 127.956L109.068 125.568L111.013 125.078L112.99 121.555L115.011 122.142L116.91 121.782L118.837 120.066C118.886 120.021 118.963 120.026 119.007 120.076C119.051 120.126 119.047 120.202 118.997 120.246L117.02 122.005L116.988 122.012L114.999 122.389L113.107 121.84L111.172 125.286L109.203 125.783L107.248 128.167L107.211 128.178L105.229 128.72L105.201 128.715L103.327 128.368L101.413 131.506C101.391 131.542 101.352 131.563 101.311 131.563Z" fill="#4C4C66"/>
</g>
<path d="M102.216 125.881C102.207 125.89 102.194 125.9 102.176 125.911C102.159 125.922 102.146 125.931 102.139 125.935C102.048 125.988 101.959 126.016 101.873 126.02C101.787 126.024 101.711 126.001 101.644 125.952C101.577 125.902 101.523 125.824 101.482 125.719C101.44 125.614 101.42 125.477 101.42 125.309C101.42 125.159 101.439 125.011 101.477 124.862C101.516 124.713 101.568 124.574 101.634 124.443C101.699 124.313 101.776 124.196 101.862 124.093C101.949 123.99 102.041 123.91 102.138 123.854C102.249 123.79 102.349 123.759 102.437 123.761C102.526 123.763 102.602 123.792 102.664 123.849C102.726 123.906 102.773 123.988 102.807 124.095C102.84 124.203 102.857 124.33 102.857 124.48C102.857 124.554 102.85 124.632 102.834 124.716C102.819 124.8 102.8 124.884 102.777 124.967C102.754 125.051 102.729 125.133 102.703 125.212C102.676 125.293 102.651 125.366 102.628 125.432L102.107 126.914C102.097 126.935 102.088 126.959 102.076 126.987C102.064 127.017 102.045 127.038 102.018 127.053L101.855 127.148C101.838 127.158 101.824 127.156 101.814 127.143C101.804 127.13 101.798 127.11 101.798 127.083C101.798 127.069 101.799 127.056 101.802 127.046C101.805 127.035 101.809 127.026 101.812 127.018L102.216 125.881ZM102.586 124.636C102.586 124.545 102.575 124.466 102.553 124.4C102.531 124.334 102.501 124.283 102.461 124.248C102.422 124.214 102.375 124.197 102.319 124.196C102.264 124.196 102.204 124.215 102.139 124.252C102.072 124.29 102.012 124.341 101.958 124.405C101.903 124.469 101.856 124.541 101.817 124.621C101.778 124.7 101.748 124.786 101.726 124.877C101.704 124.969 101.693 125.061 101.693 125.152C101.693 125.246 101.704 125.326 101.726 125.391C101.748 125.457 101.778 125.506 101.817 125.541C101.856 125.576 101.903 125.593 101.958 125.594C102.012 125.596 102.072 125.577 102.139 125.538C102.204 125.501 102.264 125.45 102.319 125.385C102.375 125.321 102.422 125.249 102.461 125.169C102.5 125.089 102.531 125.004 102.553 124.914C102.575 124.823 102.586 124.73 102.586 124.636Z" fill="#6F6C99"/>
<path d="M103.33 125.551C103.339 125.593 103.353 125.632 103.37 125.669C103.387 125.706 103.413 125.733 103.447 125.75C103.481 125.767 103.527 125.771 103.583 125.762C103.639 125.753 103.712 125.723 103.802 125.671C103.861 125.636 103.917 125.593 103.971 125.54C104.024 125.488 104.071 125.426 104.111 125.356C104.151 125.285 104.183 125.208 104.207 125.126C104.231 125.043 104.243 124.953 104.243 124.856C104.243 124.762 104.231 124.689 104.209 124.636C104.186 124.584 104.155 124.547 104.116 124.531C104.076 124.514 104.03 124.512 103.977 124.525C103.924 124.538 103.865 124.563 103.803 124.599L103.565 124.736C103.544 124.748 103.526 124.747 103.511 124.732C103.495 124.717 103.487 124.694 103.487 124.662V124.503C103.487 124.476 103.493 124.449 103.503 124.421C103.514 124.392 103.523 124.367 103.533 124.344L104.049 123.191L103.224 123.667C103.203 123.679 103.185 123.678 103.17 123.663C103.155 123.648 103.147 123.625 103.147 123.593V123.434C103.147 123.402 103.155 123.37 103.17 123.338C103.185 123.305 103.203 123.283 103.224 123.271L104.352 122.619C104.373 122.607 104.391 122.609 104.407 122.623C104.422 122.638 104.429 122.662 104.429 122.693V122.852C104.429 122.879 104.424 122.907 104.415 122.937C104.405 122.968 104.393 123 104.378 123.032L103.871 124.166C103.967 124.114 104.054 124.086 104.133 124.083C104.213 124.08 104.28 124.101 104.336 124.146C104.393 124.192 104.436 124.26 104.468 124.352C104.499 124.444 104.515 124.56 104.515 124.698C104.515 124.847 104.496 124.993 104.458 125.134C104.42 125.275 104.369 125.405 104.305 125.523C104.241 125.64 104.166 125.746 104.079 125.84C103.992 125.934 103.9 126.01 103.803 126.066C103.675 126.14 103.565 126.18 103.472 126.188C103.379 126.197 103.303 126.18 103.243 126.14C103.183 126.1 103.138 126.042 103.108 125.967C103.078 125.891 103.063 125.805 103.061 125.71C103.061 125.683 103.067 125.657 103.079 125.63C103.091 125.605 103.107 125.586 103.124 125.576L103.256 125.501C103.277 125.488 103.293 125.488 103.306 125.5C103.318 125.513 103.326 125.53 103.33 125.551Z" fill="#6F6C99"/>
<path d="M101.665 133.118L118.57 123.321C118.762 123.21 118.917 123.289 118.917 123.497C118.917 123.705 118.762 123.963 118.57 124.074L101.665 133.87C101.474 133.981 101.318 133.903 101.318 133.695C101.318 133.487 101.474 133.228 101.665 133.118Z" fill="#4C4C66"/>
<path d="M101.665 121.817L105.453 119.619C105.645 119.508 105.801 119.586 105.801 119.794C105.801 120.002 105.645 120.261 105.453 120.371L101.665 122.57C101.474 122.681 101.318 122.602 101.318 122.394C101.318 122.186 101.474 121.928 101.665 121.817Z" fill="#4C4C66"/>
<path d="M126.743 96.038C127.577 95.5564 128.346 95.5314 128.973 95.8718L126.743 101.885V96.038Z" fill="#6F6C99"/>
<path d="M124.513 98.447C125.14 97.3832 125.909 96.5202 126.743 96.0386V101.885L124.513 98.447Z" fill="#6F6C99"/>
<path d="M123.132 102.163C123.382 100.833 123.872 99.5348 124.513 98.4469L126.743 101.885L123.132 102.163Z" fill="#6F6C99"/>
<path opacity="0.3" d="M124.513 98.447C123.872 99.5349 123.382 100.833 123.132 102.163L126.743 101.885V96.0381C125.908 96.5197 125.14 97.3827 124.513 98.447Z" fill="#4C4C66"/>
<path d="M128.973 95.8721C129.614 96.2203 130.104 96.9528 130.354 97.994L126.743 101.885L128.973 95.8721Z" fill="#6F6C99"/>
<path d="M123.132 105.775C123.012 105.276 122.946 104.708 122.946 104.077C122.946 103.446 123.012 102.802 123.132 102.163L126.743 101.885L123.132 105.775Z" fill="#6F6C99"/>
<path d="M130.354 101.606C130.104 102.936 129.614 104.234 128.973 105.322L126.743 101.885L130.354 101.606Z" fill="#6F6C99"/>
<path d="M126.743 107.731C125.909 108.213 125.14 108.238 124.513 107.897L126.743 101.885V107.731Z" fill="#6F6C99"/>
<path d="M123.132 105.775L126.743 101.885L124.513 107.897C123.872 107.549 123.382 106.816 123.132 105.775Z" fill="#6F6C99"/>
<path d="M130.354 97.9938C130.473 98.4937 130.54 99.0615 130.54 99.6924C130.54 100.323 130.473 100.968 130.354 101.606L126.743 101.885L130.354 97.9938Z" fill="#6F6C99"/>
<path d="M128.973 105.322C128.346 106.386 127.577 107.249 126.743 107.731V101.884L128.973 105.322Z" fill="#6F6C99"/>
<path d="M124.849 110.713L128.637 108.514C128.829 108.403 128.984 108.482 128.984 108.69C128.984 108.898 128.829 109.156 128.637 109.267L124.849 111.465C124.657 111.576 124.502 111.498 124.502 111.29C124.502 111.081 124.657 110.823 124.849 110.713Z" fill="#6F6C99"/>
<path d="M124.013 113.461L129.472 110.293C129.664 110.182 129.819 110.261 129.819 110.469C129.819 110.677 129.664 110.935 129.472 111.046L124.013 114.213C123.821 114.324 123.666 114.246 123.666 114.038C123.666 113.83 123.822 113.571 124.013 113.461Z" fill="#4C4C66"/>
<path d="M124.013 115.725L129.472 112.558C129.664 112.447 129.819 112.525 129.819 112.733C129.819 112.942 129.664 113.2 129.472 113.31L124.013 116.478C123.821 116.589 123.666 116.51 123.666 116.302C123.666 116.094 123.822 115.836 124.013 115.725Z" fill="#4C4C66"/>
<path d="M124.013 117.989L129.472 114.822C129.664 114.711 129.819 114.789 129.819 114.997C129.819 115.206 129.664 115.464 129.472 115.574L124.013 118.742C123.821 118.853 123.666 118.774 123.666 118.566C123.666 118.358 123.822 118.1 124.013 117.989Z" fill="#4C4C66"/>
<path d="M140.437 88.1027C141.271 87.6211 142.04 87.5961 142.666 87.9365L140.437 93.9493V88.1027Z" fill="#6F6C99"/>
<path d="M138.207 90.5111C138.833 89.4473 139.602 88.5843 140.437 88.1027V93.9492L138.207 90.5111Z" fill="#6F6C99"/>
<path d="M136.826 94.2271C137.076 92.8974 137.566 91.599 138.207 90.5111L140.437 93.9487L136.826 94.2271Z" fill="#6F6C99"/>
<path d="M142.666 87.9364C143.307 88.2846 143.797 89.0171 144.047 90.0583L140.437 93.9491L142.666 87.9364Z" fill="#6F6C99"/>
<path d="M136.826 97.8397C136.706 97.3398 136.639 96.7725 136.639 96.1416C136.639 95.5107 136.706 94.8663 136.826 94.2277L140.437 93.9493L136.826 97.8397Z" fill="#6F6C99"/>
<path d="M144.047 93.6704C143.797 95.0001 143.307 96.2985 142.666 97.3864L140.437 93.9488L144.047 93.6704Z" fill="#6F6C99"/>
<path d="M140.437 99.7954C139.602 100.277 138.833 100.302 138.207 99.9616L140.437 93.9493V99.7954Z" fill="#6F6C99"/>
<path d="M136.826 97.8397L140.437 93.9489L138.207 99.9611C137.566 99.6134 137.076 98.8809 136.826 97.8397Z" fill="#6F6C99"/>
<path opacity="0.3" d="M138.207 90.5111C137.566 91.599 137.076 92.8974 136.826 94.2271C136.706 94.8657 136.639 95.5105 136.639 96.141C136.639 96.7718 136.706 97.3396 136.826 97.8391C137.076 98.8798 137.566 99.6128 138.207 99.961L140.437 93.9483V88.1017C139.602 88.5842 138.833 89.4473 138.207 90.5111Z" fill="#4C4C66"/>
<path d="M144.047 90.0585C144.167 90.5584 144.234 91.1262 144.234 91.7571C144.234 92.3879 144.168 93.0323 144.047 93.6709L140.437 93.9493L144.047 90.0585Z" fill="#6F6C99"/>
<path d="M142.666 97.387C142.04 98.4508 141.271 99.3138 140.437 99.7954V93.9489L142.666 97.387Z" fill="#6F6C99"/>
<path d="M138.542 102.806L142.331 100.608C142.522 100.497 142.678 100.575 142.678 100.784C142.678 100.992 142.522 101.25 142.331 101.36L138.542 103.559C138.351 103.67 138.195 103.591 138.195 103.383C138.195 103.176 138.351 102.917 138.542 102.806Z" fill="#6F6C99"/>
<path d="M137.707 105.555L143.166 102.387C143.357 102.276 143.513 102.355 143.513 102.563C143.513 102.771 143.357 103.029 143.166 103.14L137.706 106.307C137.515 106.418 137.359 106.34 137.359 106.132C137.359 105.924 137.515 105.665 137.707 105.555Z" fill="#4C4C66"/>
<path d="M137.707 107.819L143.166 104.651C143.357 104.54 143.513 104.619 143.513 104.827C143.513 105.035 143.357 105.293 143.166 105.404L137.706 108.571C137.515 108.682 137.359 108.604 137.359 108.396C137.359 108.188 137.515 107.929 137.707 107.819Z" fill="#4C4C66"/>
<path d="M137.707 110.083L143.166 106.915C143.357 106.804 143.513 106.883 143.513 107.091C143.513 107.299 143.357 107.557 143.166 107.668L137.706 110.835C137.515 110.946 137.359 110.868 137.359 110.66C137.359 110.452 137.515 110.193 137.707 110.083Z" fill="#4C4C66"/>
<path d="M140.364 166.493C140.426 164.639 139.2 162.341 137.625 161.36C136.848 160.876 136.131 160.805 135.597 161.08L135.596 161.078C132.374 162.695 109.731 177.214 108.283 177.929L108.265 177.939C107.996 178.084 107.821 178.406 107.806 178.872C107.775 179.807 108.393 180.965 109.186 181.459C109.583 181.706 109.949 181.739 110.22 181.594L110.24 181.583C112.533 180.32 134.88 170.797 139.449 168.347L139.45 168.347C139.451 168.346 139.452 168.346 139.453 168.345C139.987 168.058 140.333 167.418 140.364 166.493Z" fill="#6F6C99"/>
<path opacity="0.1" d="M139.473 163.362C138.989 162.533 138.344 161.808 137.625 161.36C136.851 160.877 136.136 160.806 135.603 161.077C135.495 161.136 135.462 161.156 135.537 161.113C132.596 162.617 115.744 173.367 110.074 176.862C110.062 176.87 110.048 176.877 110.036 176.885C109.957 176.934 109.882 176.98 109.807 177.026C109.784 177.04 109.76 177.055 109.737 177.068C109.692 177.096 109.651 177.121 109.608 177.147C109.557 177.179 109.504 177.211 109.456 177.24C109.452 177.243 109.449 177.245 109.444 177.247C108.844 177.613 108.44 177.852 108.283 177.929L108.265 177.939C108.216 177.965 108.174 178.004 108.132 178.041C107.943 178.212 107.819 178.49 107.806 178.872C107.803 178.978 107.81 179.086 107.822 179.197C107.827 179.238 107.834 179.28 107.842 179.322C107.852 179.388 107.865 179.454 107.881 179.521C107.894 179.573 107.907 179.626 107.923 179.679C107.941 179.741 107.963 179.803 107.985 179.865C108.001 179.911 108.016 179.957 108.035 180.003C108.038 180.011 108.042 180.018 108.045 180.025L139.473 163.362Z" fill="#4C4C66"/>
<path d="M109.18 181.459C108.39 180.967 107.775 179.814 107.805 178.883C107.837 177.952 108.502 177.597 109.293 178.089C110.083 178.581 110.698 179.735 110.667 180.665C110.636 181.595 109.97 181.951 109.18 181.459Z" fill="#6F6C99"/>
<path d="M102.413 182.082C102.389 182.797 102.862 183.683 103.47 184.061C103.772 184.25 104.049 184.276 104.256 184.168L104.259 184.167L104.259 184.166L109.736 181.251C109.738 181.25 109.739 181.249 109.74 181.249L109.741 181.248C109.946 181.137 110.079 180.892 110.091 180.536C110.115 179.821 109.642 178.935 109.035 178.556C108.732 178.367 108.452 178.341 108.245 178.451L102.768 181.366L102.769 181.367C102.561 181.476 102.426 181.723 102.413 182.082Z" fill="#4C4C66"/>
<path d="M102.769 181.366C102.561 181.476 102.426 181.723 102.413 182.082C102.404 182.351 102.466 182.645 102.579 182.927L109.642 179.159C109.471 178.91 109.263 178.697 109.035 178.556C108.732 178.367 108.452 178.341 108.245 178.451L102.769 181.366L102.769 181.366Z" fill="#4C4C66"/>
<path d="M109.439 186.944C109.439 183.434 107.119 179.925 102.482 177.247C93.2052 171.891 78.1655 171.891 68.889 177.247C64.2508 179.925 61.9319 183.434 61.9319 186.944V193.409C61.9319 196.919 64.2513 200.428 68.8895 203.106C78.166 208.462 93.2057 208.462 102.482 203.106C107.12 200.428 109.439 196.918 109.439 193.409V186.944H109.439ZM70.0376 179.236C74.1803 176.845 79.7374 175.527 85.6851 175.527C91.6328 175.527 97.1904 176.844 101.333 179.236C105.078 181.399 107.141 184.137 107.141 186.944C107.141 189.752 105.078 192.489 101.333 194.652C97.19 197.044 91.6328 198.361 85.6851 198.361C79.7374 198.361 74.1803 197.044 70.0376 194.652C66.2922 192.489 64.2291 189.752 64.2291 186.944C64.2296 184.136 66.2918 181.399 70.0376 179.236Z" fill="#6F6C99"/>
<path opacity="0.3" d="M68.8877 196.641C78.1642 201.997 93.2039 201.997 102.48 196.641C111.757 191.285 111.757 182.602 102.48 177.246C93.2039 171.891 78.1642 171.891 68.8877 177.246C59.6117 182.603 59.6117 191.286 68.8877 196.641ZM64.2282 186.944C64.2282 184.136 66.2909 181.399 70.0368 179.236C74.1794 176.845 79.7366 175.527 85.6843 175.527C91.6325 175.527 97.1896 176.844 101.332 179.236C105.078 181.399 107.14 184.137 107.14 186.944C107.14 189.752 105.077 192.489 101.332 194.652C97.1886 197.044 91.6315 198.361 85.6843 198.361C79.7366 198.361 74.179 197.044 70.0368 194.652C66.2909 192.489 64.2282 189.752 64.2282 186.944Z" fill="white"/>
<path d="M64.2263 186.944C64.2263 188.047 64.5432 189.131 65.1543 190.178C66.0963 188.547 67.7545 187.017 70.0382 185.703C74.1775 183.31 79.7371 181.991 85.6867 181.991C91.632 181.991 97.191 183.31 101.33 185.703C103.614 187.017 105.272 188.547 106.219 190.178C106.825 189.131 107.142 188.047 107.142 186.944C107.142 184.137 105.079 181.398 101.33 179.234C97.1905 176.845 91.631 175.527 85.6862 175.527C79.7366 175.527 74.1775 176.845 70.0377 179.234C66.289 181.398 64.2263 184.137 64.2263 186.944Z" fill="#6F6C99"/>
<path opacity="0.1" d="M64.2263 186.944C64.2263 188.047 64.5432 189.131 65.1543 190.178C66.0963 188.547 67.7545 187.017 70.0382 185.703C74.1775 183.31 79.7371 181.991 85.6867 181.991C91.632 181.991 97.191 183.31 101.33 185.703C103.614 187.017 105.272 188.547 106.219 190.178C106.825 189.131 107.142 188.047 107.142 186.944C107.142 184.137 105.079 181.398 101.33 179.234C97.1905 176.845 91.631 175.527 85.6862 175.527C79.7366 175.527 74.1775 176.845 70.0377 179.234C66.289 181.398 64.2263 184.137 64.2263 186.944Z" fill="#4C4C66"/>
<path opacity="0.4" d="M70.0361 182.164C74.1788 179.772 79.736 178.454 85.6837 178.454C91.6318 178.454 97.189 179.772 101.331 182.164C104.422 183.948 106.363 186.124 106.948 188.408C106.363 190.692 104.422 192.868 101.331 194.652C97.188 197.044 91.6309 198.362 85.6837 198.362C79.736 198.362 74.1783 197.044 70.0361 194.652C66.9453 192.868 65.0044 190.692 64.4183 188.408C65.0044 186.124 66.9453 183.948 70.0361 182.164Z" fill="white"/>
<path opacity="0.1" d="M80.0875 200.276V206.736C75.9848 206.166 72.0935 204.958 68.8909 203.107C64.2507 200.428 61.9304 196.918 61.9304 193.408V186.943C61.9304 186.236 62.0267 185.528 62.215 184.825H62.2199C61.0944 189.002 63.3179 193.421 68.8909 196.642C72.093 198.494 75.9848 199.702 80.0875 200.276Z" fill="#4C4C66"/>
</svg>
