<svg width="40" height="40" viewBox="0 0 40 40" fill="none" xmlns="http://www.w3.org/2000/svg">
<circle cx="20" cy="20" r="20" fill="#F8FAFA"/>
<path d="M25.124 16.132L20 11.656L14.876 16.132L14 15.256L20 10L26 15.256L25.124 16.132ZM24.8 17.992L19.94 22.108L15.2 17.944V17.056L20 12.856L24.8 17.056V17.992ZM21.2 19.528V17.488H18.8V19.528H21.2ZM19.124 24.364L14 19.888L8.876 24.364L8 23.488L14 18.232L20 23.488L19.124 24.364ZM31.124 24.364L26 19.888L20.876 24.364L20 23.488L26 18.232L32 23.488L31.124 24.364ZM14 21.088L18.8 25.288V29.488H9.2V25.288L14 21.088ZM26 21.088L30.8 25.288V29.488H21.2V25.288L26 21.088ZM15.2 28.288V25.888H12.8V28.288H15.2ZM27.2 28.288V25.888H24.8V28.288H27.2Z" fill="#6F6C99"/>
</svg>
