<svg width="40" height="40" viewBox="0 0 40 40" fill="none" xmlns="http://www.w3.org/2000/svg">
<circle cx="20" cy="20" r="20" fill="#F8FAFA"/>
<path opacity="0.5" d="M20 30C25.523 30 30 25.523 30 20C30 14.477 25.523 10 20 10C14.477 10 10 14.477 10 20C10 21.6 10.376 23.112 11.043 24.453C11.221 24.809 11.28 25.216 11.177 25.601L10.582 27.827C10.5233 28.0472 10.5235 28.279 10.5826 28.4991C10.6418 28.7192 10.7577 28.9199 10.9189 29.0811C11.0801 29.2423 11.2808 29.3582 11.5009 29.4174C11.721 29.4765 11.9528 29.4767 12.173 29.418L14.399 28.823C14.7854 28.7258 15.194 28.7731 15.548 28.956C16.9309 29.6446 18.4551 30.0021 20 30Z" fill="#6F6C99"/>
<path d="M20.75 16C20.75 15.8011 20.671 15.6103 20.5303 15.4697C20.3897 15.329 20.1989 15.25 20 15.25C19.8011 15.25 19.6103 15.329 19.4697 15.4697C19.329 15.6103 19.25 15.8011 19.25 16V16.01C18.161 16.285 17.25 17.143 17.25 18.333C17.25 19.79 18.615 20.75 20 20.75C20.824 20.75 21.25 21.283 21.25 21.667C21.25 22.051 20.824 22.583 20 22.583C19.176 22.583 18.75 22.051 18.75 21.667C18.75 21.4681 18.671 21.2773 18.5303 21.1367C18.3897 20.996 18.1989 20.917 18 20.917C17.8011 20.917 17.6103 20.996 17.4697 21.1367C17.329 21.2773 17.25 21.4681 17.25 21.667C17.25 22.857 18.161 23.716 19.25 23.99V24C19.25 24.1989 19.329 24.3897 19.4697 24.5303C19.6103 24.671 19.8011 24.75 20 24.75C20.1989 24.75 20.3897 24.671 20.5303 24.5303C20.671 24.3897 20.75 24.1989 20.75 24V23.99C21.839 23.716 22.75 22.857 22.75 21.667C22.75 20.21 21.385 19.25 20 19.25C19.176 19.25 18.75 18.717 18.75 18.333C18.75 17.949 19.176 17.417 20 17.417C20.824 17.417 21.25 17.949 21.25 18.333C21.25 18.5319 21.329 18.7227 21.4697 18.8633C21.6103 19.004 21.8011 19.083 22 19.083C22.1989 19.083 22.3897 19.004 22.5303 18.8633C22.671 18.7227 22.75 18.5319 22.75 18.333C22.75 17.143 21.839 16.285 20.75 16.01V16Z" fill="#6F6C99"/>
</svg>
