<svg width="28" height="28" viewBox="0 0 28 28" fill="none" xmlns="http://www.w3.org/2000/svg">
<rect width="28" height="28" rx="3" fill="#F8FAFA"/>
<path d="M14 25C8.443 23.765 4 18.522 4 13V7L14 3L24 7V13C24 18.524 19.557 23.765 14 25ZM6 8V13C6.05715 15.3121 6.87036 17.5418 8.31518 19.3479C9.75999 21.1539 11.7568 22.4367 14 23C16.2432 22.4367 18.24 21.1539 19.6848 19.3479C21.1296 17.5418 21.9429 15.3121 22 13V8L14 5L6 8Z" fill="#4C4C66"/>
<path d="M14 13C15.3807 13 16.5 11.8807 16.5 10.5C16.5 9.11929 15.3807 8 14 8C12.6193 8 11.5 9.11929 11.5 10.5C11.5 11.8807 12.6193 13 14 13Z" fill="#4C4C66"/>
<path d="M9 17C9.49289 17.8982 10.2156 18.6493 11.0941 19.1764C11.9727 19.7036 12.9755 19.9878 14 20C15.0245 19.9878 16.0273 19.7036 16.9059 19.1764C17.7844 18.6493 18.5071 17.8982 19 17C18.975 15.104 15.658 14 14 14C12.333 14 9.025 15.104 9 17Z" fill="#4C4C66"/>
</svg>
