<svg width="40" height="40" viewBox="0 0 40 40" fill="none" xmlns="http://www.w3.org/2000/svg">
<circle cx="20" cy="20" r="20" fill="#F8FAFA"/>
<path opacity="0.5" d="M25.3758 28.3743H13.9472C12.3691 28.3743 11.0901 27.0952 11.0901 25.5171V14.0886C11.0901 12.5105 12.3691 11.2314 13.9472 11.2314H25.3758C26.9539 11.2314 28.2329 12.5105 28.2329 14.0886V25.5171C28.2329 27.0952 26.9539 28.3743 25.3758 28.3743Z" fill="#6F6C99"/>
<path d="M28.2329 22.66V25.5171C28.2329 27.0952 26.9539 28.3743 25.3758 28.3743H13.9472C12.3691 28.3743 11.0901 27.0952 11.0901 25.5171V22.66H15.2253C15.9882 22.66 16.732 23.0705 17.0282 23.7733C17.4615 24.7991 18.4758 25.5171 19.6615 25.5171C20.8472 25.5171 21.8615 24.7991 22.2948 23.7733C22.591 23.0705 23.3339 22.66 24.0977 22.66H28.2329Z" fill="#6F6C99"/>
</svg>
