<svg width="24" height="20" viewBox="0 0 24 20" fill="none" xmlns="http://www.w3.org/2000/svg">
<path d="M17.124 6.132L12 1.656L6.876 6.132L6 5.256L12 0L18 5.256L17.124 6.132ZM16.8 7.992L11.94 12.108L7.2 7.944V7.056L12 2.856L16.8 7.056V7.992ZM13.2 9.528V7.488H10.8V9.528H13.2ZM11.124 14.364L6 9.888L0.876 14.364L0 13.488L6 8.232L12 13.488L11.124 14.364ZM23.124 14.364L18 9.888L12.876 14.364L12 13.488L18 8.232L24 13.488L23.124 14.364ZM6 11.088L10.8 15.288V19.488H1.2V15.288L6 11.088ZM18 11.088L22.8 15.288V19.488H13.2V15.288L18 11.088ZM7.2 18.288V15.888H4.8V18.288H7.2ZM19.2 18.288V15.888H16.8V18.288H19.2Z" fill="#6F6C99"/>
</svg>
