<svg width="163" height="64" viewBox="0 0 163 64" fill="none" xmlns="http://www.w3.org/2000/svg">
<g filter="url(#filter0_d_205_2868)">
<rect x="25" y="19.4995" width="13.3331" height="13.3332" rx="1" fill="#6F6C99"/>
</g>
<g filter="url(#filter1_d_205_2868)">
<ellipse cx="39.1666" cy="17.0002" rx="5.83325" ry="5.83325" stroke="#6F6C99"/>
</g>
<path d="M67.6882 20.4922H64.8885C64.8374 20.13 64.733 19.8082 64.5753 19.527C64.4176 19.2415 64.2152 18.9986 63.968 18.7983C63.7209 18.598 63.4354 18.4446 63.1115 18.3381C62.7919 18.2315 62.4446 18.1783 62.0696 18.1783C61.392 18.1783 60.8018 18.3466 60.299 18.6832C59.7962 19.0156 59.4063 19.5014 59.1293 20.1406C58.8523 20.7756 58.7138 21.5469 58.7138 22.4545C58.7138 23.3878 58.8523 24.1719 59.1293 24.8068C59.4105 25.4418 59.8026 25.9212 60.3054 26.245C60.8082 26.5689 61.3899 26.7308 62.0504 26.7308C62.4212 26.7308 62.7642 26.6818 63.0795 26.5838C63.3991 26.4858 63.6825 26.343 63.9297 26.1555C64.1768 25.9638 64.3814 25.7315 64.5433 25.4588C64.7095 25.1861 64.8246 24.875 64.8885 24.5256L67.6882 24.5384C67.6158 25.1392 67.4347 25.7188 67.1449 26.277C66.8594 26.831 66.4737 27.3274 65.9879 27.7663C65.5064 28.201 64.9311 28.5462 64.2621 28.8018C63.5973 29.0533 62.8452 29.179 62.0057 29.179C60.8381 29.179 59.794 28.9148 58.8736 28.3864C57.9574 27.858 57.233 27.093 56.7003 26.0916C56.1719 25.0902 55.9077 23.8778 55.9077 22.4545C55.9077 21.027 56.1761 19.8125 56.7131 18.8111C57.25 17.8097 57.9787 17.0469 58.8991 16.5227C59.8196 15.9943 60.8551 15.7301 62.0057 15.7301C62.7642 15.7301 63.4673 15.8366 64.1151 16.0497C64.767 16.2628 65.3445 16.5739 65.8473 16.983C66.3501 17.3878 66.7592 17.8842 67.0746 18.4723C67.3942 19.0604 67.5987 19.7337 67.6882 20.4922ZM69.6729 29V15.9091H74.8377C75.8263 15.9091 76.6701 16.0859 77.369 16.4396C78.0721 16.7891 78.6069 17.2855 78.9734 17.929C79.3441 18.5682 79.5295 19.3203 79.5295 20.1854C79.5295 21.0547 79.342 21.8026 78.967 22.429C78.592 23.0511 78.0487 23.5284 77.337 23.8608C76.6296 24.1932 75.7731 24.3594 74.7674 24.3594H71.3093V22.1349H74.32C74.8484 22.1349 75.2873 22.0625 75.6367 21.9176C75.9862 21.7727 76.2461 21.5554 76.4165 21.2656C76.5913 20.9759 76.6786 20.6158 76.6786 20.1854C76.6786 19.7507 76.5913 19.3842 76.4165 19.0859C76.2461 18.7876 75.984 18.5618 75.6303 18.4084C75.2809 18.2507 74.8398 18.1719 74.3072 18.1719H72.4407V29H69.6729ZM76.7425 23.0426L79.9961 29H76.9407L73.7575 23.0426H76.7425ZM81.4854 15.9091H84.8988L88.5039 24.7045H88.6573L92.2624 15.9091H95.6758V29H92.9911V20.4794H92.8825L89.4947 28.9361H87.6665L84.2788 20.4474H84.1701V29H81.4854V15.9091ZM102.188 29.2045C101.267 29.2045 100.475 28.9872 99.8098 28.5526C99.1451 28.1179 98.6337 27.5192 98.2757 26.7564C97.9178 25.9936 97.7388 25.1222 97.7388 24.142C97.7388 23.1449 97.9221 22.2649 98.2885 21.5021C98.6593 20.7351 99.1749 20.1364 99.8354 19.706C100.5 19.2713 101.276 19.054 102.162 19.054C102.852 19.054 103.475 19.1818 104.029 19.4375C104.583 19.6932 105.036 20.0511 105.39 20.5114C105.744 20.9716 105.963 21.5085 106.048 22.1222H104.54C104.425 21.6747 104.169 21.2784 103.773 20.9332C103.381 20.5838 102.852 20.4091 102.188 20.4091C101.6 20.4091 101.084 20.5625 100.641 20.8693C100.202 21.1719 99.8588 21.6001 99.6117 22.1541C99.3688 22.7038 99.2473 23.3494 99.2473 24.0909C99.2473 24.8494 99.3667 25.5099 99.6053 26.0724C99.8482 26.6349 100.189 27.0717 100.628 27.3828C101.071 27.6939 101.591 27.8494 102.188 27.8494C102.58 27.8494 102.936 27.7812 103.255 27.6449C103.575 27.5085 103.845 27.3125 104.067 27.0568C104.289 26.8011 104.446 26.4943 104.54 26.1364H106.048C105.963 26.7159 105.752 27.2379 105.416 27.7024C105.083 28.1626 104.642 28.5291 104.093 28.8018C103.547 29.0703 102.912 29.2045 102.188 29.2045ZM109.762 23.0938V29H108.254V15.9091H109.762V20.7159H109.89C110.12 20.2088 110.465 19.8061 110.926 19.5078C111.39 19.2053 112.008 19.054 112.779 19.054C113.448 19.054 114.034 19.1882 114.537 19.4567C115.04 19.7209 115.43 20.1278 115.707 20.6776C115.988 21.223 116.129 21.9176 116.129 22.7614V29H114.62V22.8636C114.62 22.0838 114.418 21.4808 114.013 21.0547C113.612 20.6243 113.056 20.4091 112.345 20.4091C111.85 20.4091 111.407 20.5135 111.015 20.7223C110.627 20.9311 110.32 21.2358 110.095 21.6364C109.873 22.0369 109.762 22.5227 109.762 23.0938ZM121.778 29.2301C121.156 29.2301 120.591 29.1129 120.084 28.8786C119.577 28.6399 119.174 28.2969 118.876 27.8494C118.577 27.3977 118.428 26.8523 118.428 26.2131C118.428 25.6506 118.539 25.1946 118.761 24.8452C118.982 24.4915 119.278 24.2145 119.649 24.0142C120.02 23.8139 120.429 23.6648 120.876 23.5668C121.328 23.4645 121.782 23.3835 122.238 23.3239C122.835 23.2472 123.318 23.1896 123.689 23.1513C124.064 23.1087 124.337 23.0384 124.507 22.9403C124.682 22.8423 124.769 22.6719 124.769 22.429V22.3778C124.769 21.7472 124.597 21.2571 124.251 20.9077C123.911 20.5582 123.393 20.3835 122.698 20.3835C121.978 20.3835 121.413 20.5412 121.004 20.8565C120.595 21.1719 120.308 21.5085 120.141 21.8665L118.71 21.3551C118.965 20.7585 119.306 20.294 119.732 19.9616C120.163 19.625 120.631 19.3906 121.138 19.2585C121.65 19.1222 122.153 19.054 122.647 19.054C122.962 19.054 123.325 19.0923 123.734 19.169C124.147 19.2415 124.545 19.3928 124.929 19.6229C125.317 19.853 125.638 20.2003 125.894 20.6648C126.15 21.1293 126.278 21.7514 126.278 22.5312V29H124.769V27.6705H124.692C124.59 27.8835 124.42 28.1115 124.181 28.3544C123.942 28.5973 123.625 28.804 123.229 28.9744C122.832 29.1449 122.349 29.2301 121.778 29.2301ZM122.008 27.875C122.604 27.875 123.107 27.7578 123.516 27.5234C123.93 27.2891 124.241 26.9865 124.45 26.6158C124.663 26.245 124.769 25.8551 124.769 25.446V24.0653C124.705 24.142 124.565 24.2124 124.347 24.2763C124.134 24.3359 123.887 24.3892 123.606 24.4361C123.329 24.4787 123.058 24.517 122.794 24.5511C122.534 24.581 122.323 24.6065 122.161 24.6278C121.769 24.679 121.403 24.7621 121.062 24.8771C120.725 24.9879 120.452 25.1562 120.244 25.3821C120.039 25.6037 119.937 25.9062 119.937 26.2898C119.937 26.8139 120.131 27.2102 120.518 27.4787C120.911 27.7429 121.407 27.875 122.008 27.875ZM133.301 19.1818V20.4602H128.213V19.1818H133.301ZM129.696 16.8295H131.204V26.1875C131.204 26.6136 131.266 26.9332 131.39 27.1463C131.518 27.3551 131.68 27.4957 131.876 27.5682C132.076 27.6364 132.287 27.6705 132.508 27.6705C132.675 27.6705 132.811 27.6619 132.917 27.6449C133.024 27.6236 133.109 27.6065 133.173 27.5938L133.48 28.9489C133.378 28.9872 133.235 29.0256 133.052 29.0639C132.868 29.1065 132.636 29.1278 132.355 29.1278C131.929 29.1278 131.511 29.0362 131.102 28.853C130.697 28.6697 130.361 28.3906 130.092 28.0156C129.828 27.6406 129.696 27.1676 129.696 26.5966V16.8295ZM135.986 29V15.9091H137.494V20.7415H137.622C137.733 20.571 137.886 20.3537 138.082 20.0895C138.282 19.821 138.568 19.5824 138.939 19.3736C139.314 19.1605 139.821 19.054 140.46 19.054C141.287 19.054 142.015 19.2607 142.646 19.674C143.277 20.0874 143.769 20.6733 144.123 21.4318C144.476 22.1903 144.653 23.0852 144.653 24.1165C144.653 25.1562 144.476 26.0575 144.123 26.8203C143.769 27.5788 143.279 28.1669 142.653 28.5845C142.026 28.9979 141.304 29.2045 140.486 29.2045C139.855 29.2045 139.35 29.1001 138.971 28.8913C138.591 28.6783 138.3 28.4375 138.095 28.169C137.89 27.8963 137.733 27.6705 137.622 27.4915H137.443V29H135.986ZM137.469 24.0909C137.469 24.8324 137.577 25.4865 137.795 26.0533C138.012 26.6158 138.329 27.0568 138.747 27.3764C139.165 27.6918 139.676 27.8494 140.281 27.8494C140.912 27.8494 141.438 27.6832 141.86 27.3509C142.286 27.0142 142.606 26.5625 142.819 25.9957C143.036 25.4247 143.145 24.7898 143.145 24.0909C143.145 23.4006 143.038 22.7784 142.825 22.2244C142.616 21.6662 142.299 21.2251 141.873 20.9013C141.451 20.5732 140.92 20.4091 140.281 20.4091C139.667 20.4091 139.152 20.5646 138.734 20.8757C138.317 21.1825 138.001 21.6129 137.788 22.1669C137.575 22.7166 137.469 23.358 137.469 24.0909ZM150.949 29.2045C150.063 29.2045 149.285 28.9936 148.616 28.5717C147.952 28.1499 147.432 27.5597 147.057 26.8011C146.686 26.0426 146.501 25.1562 146.501 24.142C146.501 23.1193 146.686 22.2266 147.057 21.4638C147.432 20.701 147.952 20.1087 148.616 19.6868C149.285 19.2649 150.063 19.054 150.949 19.054C151.836 19.054 152.611 19.2649 153.276 19.6868C153.945 20.1087 154.465 20.701 154.836 21.4638C155.211 22.2266 155.398 23.1193 155.398 24.142C155.398 25.1562 155.211 26.0426 154.836 26.8011C154.465 27.5597 153.945 28.1499 153.276 28.5717C152.611 28.9936 151.836 29.2045 150.949 29.2045ZM150.949 27.8494C151.623 27.8494 152.177 27.6768 152.611 27.3317C153.046 26.9865 153.368 26.5327 153.577 25.9702C153.785 25.4077 153.89 24.7983 153.89 24.142C153.89 23.4858 153.785 22.8743 153.577 22.3075C153.368 21.7408 153.046 21.2827 152.611 20.9332C152.177 20.5838 151.623 20.4091 150.949 20.4091C150.276 20.4091 149.722 20.5838 149.287 20.9332C148.853 21.2827 148.531 21.7408 148.322 22.3075C148.113 22.8743 148.009 23.4858 148.009 24.142C148.009 24.7983 148.113 25.4077 148.322 25.9702C148.531 26.5327 148.853 26.9865 149.287 27.3317C149.722 27.6768 150.276 27.8494 150.949 27.8494ZM161.971 19.1818V20.4602H156.883V19.1818H161.971ZM158.366 16.8295H159.874V26.1875C159.874 26.6136 159.936 26.9332 160.06 27.1463C160.188 27.3551 160.349 27.4957 160.545 27.5682C160.746 27.6364 160.957 27.6705 161.178 27.6705C161.344 27.6705 161.481 27.6619 161.587 27.6449C161.694 27.6236 161.779 27.6065 161.843 27.5938L162.15 28.9489C162.048 28.9872 161.905 29.0256 161.722 29.0639C161.538 29.1065 161.306 29.1278 161.025 29.1278C160.599 29.1278 160.181 29.0362 159.772 28.853C159.367 28.6697 159.031 28.3906 158.762 28.0156C158.498 27.6406 158.366 27.1676 158.366 26.5966V16.8295Z" fill="#6F6C99"/>
<defs>
<filter id="filter0_d_205_2868" x="0" y="0.499512" width="63.3331" height="63.3333" filterUnits="userSpaceOnUse" color-interpolation-filters="sRGB">
<feFlood flood-opacity="0" result="BackgroundImageFix"/>
<feColorMatrix in="SourceAlpha" type="matrix" values="0 0 0 0 0 0 0 0 0 0 0 0 0 0 0 0 0 0 127 0" result="hardAlpha"/>
<feOffset dy="6"/>
<feGaussianBlur stdDeviation="12.5"/>
<feColorMatrix type="matrix" values="0 0 0 0 0.602048 0 0 0 0 0.949963 0 0 0 0 0.930168 0 0 0 0.355129 0"/>
<feBlend mode="normal" in2="BackgroundImageFix" result="effect1_dropShadow_205_2868"/>
<feBlend mode="normal" in="SourceGraphic" in2="effect1_dropShadow_205_2868" result="shape"/>
</filter>
<filter id="filter1_d_205_2868" x="23.8334" y="7.66699" width="30.6665" height="30.6665" filterUnits="userSpaceOnUse" color-interpolation-filters="sRGB">
<feFlood flood-opacity="0" result="BackgroundImageFix"/>
<feColorMatrix in="SourceAlpha" type="matrix" values="0 0 0 0 0 0 0 0 0 0 0 0 0 0 0 0 0 0 127 0" result="hardAlpha"/>
<feOffset dy="6"/>
<feGaussianBlur stdDeviation="4.5"/>
<feColorMatrix type="matrix" values="0 0 0 0 0.467047 0 0 0 0 0.435035 0 0 0 0 0.779167 0 0 0 1 0"/>
<feBlend mode="normal" in2="BackgroundImageFix" result="effect1_dropShadow_205_2868"/>
<feBlend mode="normal" in="SourceGraphic" in2="effect1_dropShadow_205_2868" result="shape"/>
</filter>
</defs>
</svg>
