<svg width="501" height="76" viewBox="0 0 501 76" fill="none" xmlns="http://www.w3.org/2000/svg">
<g filter="url(#filter0_d_266_4226)">
<rect x="25" y="22.9604" width="21.5395" height="21.5395" rx="1" fill="white"/>
</g>
<g filter="url(#filter1_d_266_4226)">
<ellipse cx="47.8862" cy="18.9235" rx="9.42352" ry="9.42353" stroke="white"/>
</g>
<path d="M115.03 21.7305H108.031C107.903 20.8249 107.642 20.0206 107.248 19.3175C106.854 18.6037 106.348 17.9964 105.73 17.4957C105.112 16.995 104.398 16.6115 103.588 16.3452C102.789 16.0788 101.921 15.9457 100.984 15.9457C99.2897 15.9457 97.8142 16.3665 96.5571 17.2081C95.3 18.0391 94.3252 19.2536 93.6327 20.8516C92.9403 22.4389 92.594 24.3672 92.594 26.6364C92.594 28.9695 92.9403 30.9297 93.6327 32.517C94.3358 34.1044 95.316 35.3029 96.5731 36.1126C97.8302 36.9222 99.2844 37.3271 100.936 37.3271C101.862 37.3271 102.72 37.2045 103.508 36.9595C104.307 36.7145 105.016 36.3576 105.634 35.8888C106.252 35.4094 106.763 34.8288 107.168 34.147C107.583 33.4652 107.871 32.6875 108.031 31.8139L115.03 31.8459C114.849 33.348 114.396 34.7969 113.672 36.1925C112.958 37.5774 111.994 38.8185 110.779 39.9158C109.576 41.0025 108.137 41.8654 106.465 42.5046C104.803 43.1332 102.922 43.4474 100.824 43.4474C97.9047 43.4474 95.2947 42.7869 92.9935 41.4659C90.703 40.1449 88.892 38.2326 87.5603 35.729C86.2393 33.2255 85.5787 30.1946 85.5787 26.6364C85.5787 23.0675 86.2499 20.0312 87.5922 17.5277C88.9346 15.0241 90.7563 13.1172 93.0574 11.8068C95.3586 10.4858 97.9474 9.82528 100.824 9.82528C102.72 9.82528 104.478 10.0916 106.097 10.6243C107.727 11.157 109.171 11.9347 110.428 12.9574C111.685 13.9695 112.708 15.2106 113.496 16.6808C114.295 18.1509 114.806 19.8342 115.03 21.7305ZM119.992 43V10.2727H132.904C135.375 10.2727 137.485 10.7148 139.232 11.5991C140.99 12.4727 142.327 13.7138 143.243 15.3224C144.17 16.9205 144.633 18.8008 144.633 20.9634C144.633 23.1367 144.165 25.0064 143.227 26.5724C142.29 28.1278 140.931 29.321 139.152 30.152C137.384 30.983 135.242 31.3984 132.728 31.3984H124.083V25.8374H131.609C132.93 25.8374 134.028 25.6562 134.901 25.294C135.775 24.9318 136.425 24.3885 136.851 23.6641C137.288 22.9396 137.506 22.0394 137.506 20.9634C137.506 19.8768 137.288 18.9606 136.851 18.2148C136.425 17.4691 135.77 16.9045 134.885 16.521C134.012 16.1268 132.909 15.9297 131.578 15.9297H126.911V43H119.992ZM137.666 28.1065L145.8 43H138.161L130.203 28.1065H137.666ZM149.523 10.2727H158.057L167.069 32.2614H167.453L176.466 10.2727H184.999V43H178.287V21.6985H178.016L169.546 42.8402H164.976L156.506 21.6186H156.235V43H149.523V10.2727ZM201.279 43.5114C198.978 43.5114 196.996 42.968 195.334 41.8814C193.672 40.7947 192.394 39.2979 191.499 37.391C190.604 35.484 190.157 33.3054 190.157 30.8551C190.157 28.3622 190.615 26.1623 191.531 24.2553C192.458 22.3377 193.747 20.8409 195.398 19.7649C197.06 18.6783 198.999 18.1349 201.215 18.1349C202.941 18.1349 204.496 18.4545 205.881 19.0938C207.266 19.733 208.401 20.6278 209.285 21.7784C210.169 22.929 210.718 24.2713 210.931 25.8054H207.159C206.872 24.6868 206.233 23.696 205.242 22.8331C204.262 21.9595 202.941 21.5227 201.279 21.5227C199.809 21.5227 198.52 21.9062 197.412 22.6733C196.314 23.4297 195.457 24.5004 194.839 25.8853C194.232 27.2596 193.928 28.8736 193.928 30.7273C193.928 32.6236 194.226 34.2749 194.823 35.6811C195.43 37.0874 196.282 38.1793 197.38 38.957C198.488 39.7347 199.787 40.1236 201.279 40.1236C202.259 40.1236 203.148 39.9531 203.947 39.6122C204.746 39.2713 205.423 38.7812 205.977 38.142C206.531 37.5028 206.925 36.7358 207.159 35.8409H210.931C210.718 37.2898 210.19 38.5948 209.349 39.756C208.518 40.9066 207.415 41.8228 206.041 42.5046C204.677 43.1758 203.09 43.5114 201.279 43.5114ZM220.215 28.2344V43H216.444V10.2727H220.215V22.2898H220.535C221.11 21.022 221.973 20.0153 223.124 19.2695C224.285 18.5131 225.83 18.1349 227.758 18.1349C229.43 18.1349 230.895 18.4705 232.152 19.1417C233.409 19.8022 234.384 20.8196 235.077 22.1939C235.78 23.5575 236.131 25.294 236.131 27.4034V43H232.36V27.6591C232.36 25.7095 231.854 24.2021 230.842 23.1367C229.841 22.0607 228.45 21.5227 226.671 21.5227C225.435 21.5227 224.327 21.7837 223.347 22.3058C222.378 22.8278 221.611 23.5895 221.046 24.5909C220.492 25.5923 220.215 26.8068 220.215 28.2344ZM250.254 43.5753C248.698 43.5753 247.287 43.2823 246.019 42.6964C244.751 42.0998 243.745 41.2422 242.999 40.1236C242.253 38.9943 241.88 37.6307 241.88 36.0327C241.88 34.6264 242.157 33.4865 242.711 32.6129C243.265 31.7287 244.006 31.0362 244.932 30.5355C245.859 30.0348 246.882 29.6619 248.001 29.4169C249.13 29.1612 250.264 28.9588 251.404 28.8097C252.896 28.6179 254.105 28.4741 255.032 28.3782C255.969 28.2717 256.651 28.0959 257.077 27.8509C257.514 27.6058 257.733 27.1797 257.733 26.5724V26.4446C257.733 24.8679 257.301 23.6428 256.438 22.7692C255.586 21.8956 254.291 21.4588 252.555 21.4588C250.755 21.4588 249.343 21.853 248.32 22.6413C247.297 23.4297 246.578 24.2713 246.163 25.1662L242.583 23.8878C243.223 22.3963 244.075 21.2351 245.14 20.4041C246.216 19.5625 247.388 18.9766 248.656 18.6463C249.934 18.3054 251.191 18.1349 252.427 18.1349C253.215 18.1349 254.121 18.2308 255.144 18.4226C256.177 18.6037 257.173 18.9819 258.132 19.5572C259.101 20.1325 259.906 21.0007 260.545 22.1619C261.184 23.3232 261.504 24.8786 261.504 26.8281V43H257.733V39.6761H257.541C257.285 40.2088 256.859 40.7788 256.262 41.386C255.666 41.9933 254.872 42.5099 253.881 42.9361C252.891 43.3622 251.681 43.5753 250.254 43.5753ZM250.829 40.1875C252.321 40.1875 253.578 39.8945 254.6 39.3086C255.634 38.7227 256.411 37.9663 256.934 37.0394C257.466 36.1126 257.733 35.1378 257.733 34.1151V30.6634C257.573 30.8551 257.221 31.0309 256.678 31.1907C256.145 31.3398 255.527 31.473 254.824 31.5902C254.132 31.6967 253.455 31.7926 252.795 31.8778C252.145 31.9524 251.617 32.0163 251.213 32.0696C250.233 32.1974 249.316 32.4052 248.464 32.6928C247.622 32.9698 246.941 33.3906 246.419 33.9553C245.907 34.5092 245.652 35.2656 245.652 36.2244C245.652 37.5348 246.136 38.5256 247.106 39.1967C248.086 39.8572 249.327 40.1875 250.829 40.1875ZM279.062 18.4545V21.6506H266.342V18.4545H279.062ZM270.049 12.5739H273.82V35.9688C273.82 37.0341 273.975 37.8331 274.284 38.3658C274.604 38.8878 275.008 39.2393 275.498 39.4205C275.999 39.5909 276.526 39.6761 277.08 39.6761C277.496 39.6761 277.837 39.6548 278.103 39.6122C278.369 39.5589 278.583 39.5163 278.742 39.4844L279.509 42.8722C279.254 42.968 278.897 43.0639 278.439 43.1598C277.981 43.2663 277.4 43.3196 276.697 43.3196C275.632 43.3196 274.588 43.0906 273.565 42.6325C272.553 42.1744 271.711 41.4766 271.04 40.5391C270.379 39.6016 270.049 38.419 270.049 36.9915V12.5739ZM285.774 43V10.2727H289.545V22.3537H289.865C290.142 21.9276 290.525 21.3842 291.015 20.7237C291.516 20.0526 292.23 19.456 293.156 18.9339C294.094 18.4013 295.362 18.1349 296.96 18.1349C299.026 18.1349 300.848 18.6516 302.425 19.685C304.002 20.7184 305.232 22.1832 306.116 24.0795C307.001 25.9759 307.443 28.2131 307.443 30.7912C307.443 33.3906 307.001 35.6438 306.116 37.5508C305.232 39.4471 304.007 40.9173 302.441 41.9613C300.875 42.9947 299.069 43.5114 297.024 43.5114C295.447 43.5114 294.184 43.2504 293.236 42.7283C292.288 42.1957 291.558 41.5937 291.047 40.9226C290.536 40.2408 290.142 39.6761 289.865 39.2287H289.417V43H285.774ZM289.481 30.7273C289.481 32.581 289.753 34.2163 290.296 35.6332C290.839 37.0394 291.633 38.142 292.677 38.9411C293.721 39.7294 294.999 40.1236 296.512 40.1236C298.089 40.1236 299.405 39.7081 300.459 38.8771C301.525 38.0355 302.324 36.9062 302.856 35.4893C303.4 34.0618 303.671 32.4744 303.671 30.7273C303.671 29.0014 303.405 27.446 302.872 26.0611C302.35 24.6655 301.557 23.5629 300.491 22.7532C299.437 21.9329 298.11 21.5227 296.512 21.5227C294.978 21.5227 293.689 21.9116 292.645 22.6893C291.601 23.4563 290.813 24.5323 290.28 25.9173C289.747 27.2915 289.481 28.8949 289.481 30.7273ZM323.183 43.5114C320.967 43.5114 319.023 42.984 317.35 41.9293C315.688 40.8746 314.389 39.3991 313.451 37.5028C312.524 35.6065 312.061 33.3906 312.061 30.8551C312.061 28.2983 312.524 26.0664 313.451 24.1594C314.389 22.2525 315.688 20.7717 317.35 19.717C319.023 18.6623 320.967 18.1349 323.183 18.1349C325.399 18.1349 327.338 18.6623 329 19.717C330.672 20.7717 331.972 22.2525 332.899 24.1594C333.836 26.0664 334.305 28.2983 334.305 30.8551C334.305 33.3906 333.836 35.6065 332.899 37.5028C331.972 39.3991 330.672 40.8746 329 41.9293C327.338 42.984 325.399 43.5114 323.183 43.5114ZM323.183 40.1236C324.866 40.1236 326.251 39.6921 327.338 38.8292C328.425 37.9663 329.229 36.8317 329.751 35.4254C330.273 34.0192 330.534 32.4957 330.534 30.8551C330.534 29.2145 330.273 27.6857 329.751 26.2688C329.229 24.8519 328.425 23.7067 327.338 22.8331C326.251 21.9595 324.866 21.5227 323.183 21.5227C321.5 21.5227 320.115 21.9595 319.028 22.8331C317.942 23.7067 317.137 24.8519 316.615 26.2688C316.093 27.6857 315.832 29.2145 315.832 30.8551C315.832 32.4957 316.093 34.0192 316.615 35.4254C317.137 36.8317 317.942 37.9663 319.028 38.8292C320.115 39.6921 321.5 40.1236 323.183 40.1236ZM350.737 18.4545V21.6506H338.017V18.4545H350.737ZM341.724 12.5739H345.495V35.9688C345.495 37.0341 345.65 37.8331 345.959 38.3658C346.278 38.8878 346.683 39.2393 347.173 39.4205C347.674 39.5909 348.201 39.6761 348.755 39.6761C349.171 39.6761 349.512 39.6548 349.778 39.6122C350.044 39.5589 350.257 39.5163 350.417 39.4844L351.184 42.8722C350.929 42.968 350.572 43.0639 350.114 43.1598C349.655 43.2663 349.075 43.3196 348.372 43.3196C347.306 43.3196 346.262 43.0906 345.24 42.6325C344.228 42.1744 343.386 41.4766 342.715 40.5391C342.054 39.6016 341.724 38.419 341.724 36.9915V12.5739ZM370.92 43H366.765L378.782 10.2727H382.873L394.89 43H390.735L380.955 15.4503H380.699L370.92 43ZM372.454 30.2159H389.201V33.7315H372.454V30.2159ZM408.745 43.5114C406.699 43.5114 404.893 42.9947 403.327 41.9613C401.761 40.9173 400.536 39.4471 399.652 37.5508C398.768 35.6438 398.326 33.3906 398.326 30.7912C398.326 28.2131 398.768 25.9759 399.652 24.0795C400.536 22.1832 401.767 20.7184 403.343 19.685C404.92 18.6516 406.742 18.1349 408.809 18.1349C410.407 18.1349 411.669 18.4013 412.596 18.9339C413.533 19.456 414.247 20.0526 414.737 20.7237C415.238 21.3842 415.627 21.9276 415.904 22.3537H416.223V10.2727H419.995V43H416.351V39.2287H415.904C415.627 39.6761 415.233 40.2408 414.721 40.9226C414.21 41.5937 413.48 42.1957 412.532 42.7283C411.584 43.2504 410.321 43.5114 408.745 43.5114ZM409.256 40.1236C410.769 40.1236 412.047 39.7294 413.091 38.9411C414.135 38.142 414.929 37.0394 415.472 35.6332C416.016 34.2163 416.287 32.581 416.287 30.7273C416.287 28.8949 416.021 27.2915 415.488 25.9173C414.956 24.5323 414.167 23.4563 413.123 22.6893C412.079 21.9116 410.79 21.5227 409.256 21.5227C407.658 21.5227 406.326 21.9329 405.261 22.7532C404.206 23.5629 403.413 24.6655 402.88 26.0611C402.358 27.446 402.097 29.0014 402.097 30.7273C402.097 32.4744 402.363 34.0618 402.896 35.4893C403.439 36.9062 404.238 38.0355 405.293 38.8771C406.358 39.7081 407.679 40.1236 409.256 40.1236ZM427.425 43V18.4545H431.069V22.2898H431.388C431.9 20.9794 432.725 19.962 433.865 19.2376C435.005 18.5025 436.374 18.1349 437.972 18.1349C439.592 18.1349 440.939 18.5025 442.015 19.2376C443.102 19.962 443.949 20.9794 444.556 22.2898H444.812C445.44 21.022 446.383 20.0153 447.64 19.2695C448.897 18.5131 450.405 18.1349 452.163 18.1349C454.357 18.1349 456.152 18.8221 457.548 20.1964C458.943 21.56 459.641 23.6854 459.641 26.5724V43H455.87V26.5724C455.87 24.7614 455.375 23.467 454.384 22.6893C453.393 21.9116 452.226 21.5227 450.884 21.5227C449.158 21.5227 447.821 22.0447 446.873 23.0888C445.925 24.1222 445.451 25.4325 445.451 27.0199V43H441.616V26.1889C441.616 24.7933 441.163 23.6694 440.257 22.8171C439.352 21.9542 438.185 21.5227 436.758 21.5227C435.778 21.5227 434.861 21.7837 434.009 22.3058C433.168 22.8278 432.486 23.5522 431.964 24.479C431.452 25.3952 431.197 26.4553 431.197 27.6591V43H427.425ZM466.537 43V18.4545H470.308V43H466.537ZM468.454 14.3636C467.719 14.3636 467.085 14.1133 466.553 13.6126C466.031 13.1119 465.77 12.5099 465.77 11.8068C465.77 11.1037 466.031 10.5018 466.553 10.0011C467.085 9.50035 467.719 9.25 468.454 9.25C469.189 9.25 469.818 9.50035 470.34 10.0011C470.873 10.5018 471.139 11.1037 471.139 11.8068C471.139 12.5099 470.873 13.1119 470.34 13.6126C469.818 14.1133 469.189 14.3636 468.454 14.3636ZM480.987 28.2344V43H477.215V18.4545H480.859V22.2898H481.178C481.754 21.0433 482.627 20.0419 483.799 19.2855C484.971 18.5185 486.484 18.1349 488.338 18.1349C489.999 18.1349 491.454 18.4759 492.7 19.1577C493.947 19.8288 494.916 20.8516 495.608 22.2259C496.301 23.5895 496.647 25.3153 496.647 27.4034V43H492.876V27.6591C492.876 25.7308 492.375 24.2287 491.374 23.1527C490.372 22.0661 488.998 21.5227 487.251 21.5227C486.047 21.5227 484.971 21.7837 484.023 22.3058C483.085 22.8278 482.345 23.5895 481.802 24.5909C481.258 25.5923 480.987 26.8068 480.987 28.2344Z" fill="white"/>
<defs>
<filter id="filter0_d_266_4226" x="0" y="3.96045" width="71.5396" height="71.5396" filterUnits="userSpaceOnUse" color-interpolation-filters="sRGB">
<feFlood flood-opacity="0" result="BackgroundImageFix"/>
<feColorMatrix in="SourceAlpha" type="matrix" values="0 0 0 0 0 0 0 0 0 0 0 0 0 0 0 0 0 0 127 0" result="hardAlpha"/>
<feOffset dy="6"/>
<feGaussianBlur stdDeviation="12.5"/>
<feColorMatrix type="matrix" values="0 0 0 0 0.602048 0 0 0 0 0.949963 0 0 0 0 0.930168 0 0 0 0.355129 0"/>
<feBlend mode="normal" in2="BackgroundImageFix" result="effect1_dropShadow_266_4226"/>
<feBlend mode="normal" in="SourceGraphic" in2="effect1_dropShadow_266_4226" result="shape"/>
</filter>
<filter id="filter1_d_266_4226" x="28.9626" y="6" width="37.8472" height="37.8472" filterUnits="userSpaceOnUse" color-interpolation-filters="sRGB">
<feFlood flood-opacity="0" result="BackgroundImageFix"/>
<feColorMatrix in="SourceAlpha" type="matrix" values="0 0 0 0 0 0 0 0 0 0 0 0 0 0 0 0 0 0 127 0" result="hardAlpha"/>
<feOffset dy="6"/>
<feGaussianBlur stdDeviation="4.5"/>
<feColorMatrix type="matrix" values="0 0 0 0 0.467047 0 0 0 0 0.435035 0 0 0 0 0.779167 0 0 0 1 0"/>
<feBlend mode="normal" in2="BackgroundImageFix" result="effect1_dropShadow_266_4226"/>
<feBlend mode="normal" in="SourceGraphic" in2="effect1_dropShadow_266_4226" result="shape"/>
</filter>
</defs>
</svg>
