<svg width="158" height="64" viewBox="0 0 158 64" fill="none" xmlns="http://www.w3.org/2000/svg">
<g filter="url(#filter0_d_428_1614)">
<rect x="20" y="19.4995" width="13.3331" height="13.3332" rx="1" fill="#6F6C99"/>
</g>
<g filter="url(#filter1_d_428_1614)">
<ellipse cx="34.1667" cy="17.0002" rx="5.83325" ry="5.83325" stroke="#6F6C99"/>
</g>
<path d="M62.6882 20.4922H59.8885C59.8374 20.13 59.733 19.8082 59.5753 19.527C59.4176 19.2415 59.2152 18.9986 58.968 18.7983C58.7209 18.598 58.4354 18.4446 58.1115 18.3381C57.7919 18.2315 57.4446 18.1783 57.0696 18.1783C56.392 18.1783 55.8018 18.3466 55.299 18.6832C54.7962 19.0156 54.4063 19.5014 54.1293 20.1406C53.8523 20.7756 53.7138 21.5469 53.7138 22.4545C53.7138 23.3878 53.8523 24.1719 54.1293 24.8068C54.4105 25.4418 54.8026 25.9212 55.3054 26.245C55.8082 26.5689 56.3899 26.7308 57.0504 26.7308C57.4212 26.7308 57.7642 26.6818 58.0795 26.5838C58.3991 26.4858 58.6825 26.343 58.9297 26.1555C59.1768 25.9638 59.3814 25.7315 59.5433 25.4588C59.7095 25.1861 59.8246 24.875 59.8885 24.5256L62.6882 24.5384C62.6158 25.1392 62.4347 25.7188 62.1449 26.277C61.8594 26.831 61.4737 27.3274 60.9879 27.7663C60.5064 28.201 59.9311 28.5462 59.2621 28.8018C58.5973 29.0533 57.8452 29.179 57.0057 29.179C55.8381 29.179 54.794 28.9148 53.8736 28.3864C52.9574 27.858 52.233 27.093 51.7003 26.0916C51.1719 25.0902 50.9077 23.8778 50.9077 22.4545C50.9077 21.027 51.1761 19.8125 51.7131 18.8111C52.25 17.8097 52.9787 17.0469 53.8991 16.5227C54.8196 15.9943 55.8551 15.7301 57.0057 15.7301C57.7642 15.7301 58.4673 15.8366 59.1151 16.0497C59.767 16.2628 60.3445 16.5739 60.8473 16.983C61.3501 17.3878 61.7592 17.8842 62.0746 18.4723C62.3942 19.0604 62.5987 19.7337 62.6882 20.4922ZM64.6729 29V15.9091H69.8377C70.8263 15.9091 71.6701 16.0859 72.369 16.4396C73.0721 16.7891 73.6069 17.2855 73.9734 17.929C74.3441 18.5682 74.5295 19.3203 74.5295 20.1854C74.5295 21.0547 74.342 21.8026 73.967 22.429C73.592 23.0511 73.0487 23.5284 72.337 23.8608C71.6296 24.1932 70.7731 24.3594 69.7674 24.3594H66.3093V22.1349H69.32C69.8484 22.1349 70.2873 22.0625 70.6367 21.9176C70.9862 21.7727 71.2461 21.5554 71.4165 21.2656C71.5913 20.9759 71.6786 20.6158 71.6786 20.1854C71.6786 19.7507 71.5913 19.3842 71.4165 19.0859C71.2461 18.7876 70.984 18.5618 70.6303 18.4084C70.2809 18.2507 69.8398 18.1719 69.3072 18.1719H67.4407V29H64.6729ZM71.7425 23.0426L74.9961 29H71.9407L68.7575 23.0426H71.7425ZM76.4854 15.9091H79.8988L83.5039 24.7045H83.6573L87.2624 15.9091H90.6758V29H87.9911V20.4794H87.8825L84.4947 28.9361H82.6665L79.2788 20.4474H79.1701V29H76.4854V15.9091ZM97.1877 29.2045C96.2672 29.2045 95.4746 28.9872 94.8098 28.5526C94.1451 28.1179 93.6337 27.5192 93.2757 26.7564C92.9178 25.9936 92.7388 25.1222 92.7388 24.142C92.7388 23.1449 92.9221 22.2649 93.2885 21.5021C93.6593 20.7351 94.1749 20.1364 94.8354 19.706C95.5002 19.2713 96.2757 19.054 97.1621 19.054C97.8525 19.054 98.4746 19.1818 99.0286 19.4375C99.5826 19.6932 100.036 20.0511 100.39 20.5114C100.744 20.9716 100.963 21.5085 101.048 22.1222H99.54C99.4249 21.6747 99.1692 21.2784 98.7729 20.9332C98.3809 20.5838 97.8525 20.4091 97.1877 20.4091C96.5996 20.4091 96.084 20.5625 95.6408 20.8693C95.2019 21.1719 94.8588 21.6001 94.6117 22.1541C94.3688 22.7038 94.2473 23.3494 94.2473 24.0909C94.2473 24.8494 94.3667 25.5099 94.6053 26.0724C94.8482 26.6349 95.1891 27.0717 95.628 27.3828C96.0712 27.6939 96.5911 27.8494 97.1877 27.8494C97.5797 27.8494 97.9355 27.7812 98.2551 27.6449C98.5748 27.5085 98.8453 27.3125 99.0669 27.0568C99.2885 26.8011 99.4462 26.4943 99.54 26.1364H101.048C100.963 26.7159 100.752 27.2379 100.416 27.7024C100.083 28.1626 99.6422 28.5291 99.0925 28.8018C98.5471 29.0703 97.9121 29.2045 97.1877 29.2045ZM104.762 23.0938V29H103.254V15.9091H104.762V20.7159H104.89C105.12 20.2088 105.465 19.8061 105.926 19.5078C106.39 19.2053 107.008 19.054 107.779 19.054C108.448 19.054 109.034 19.1882 109.537 19.4567C110.04 19.7209 110.43 20.1278 110.707 20.6776C110.988 21.223 111.129 21.9176 111.129 22.7614V29H109.62V22.8636C109.62 22.0838 109.418 21.4808 109.013 21.0547C108.612 20.6243 108.056 20.4091 107.345 20.4091C106.85 20.4091 106.407 20.5135 106.015 20.7223C105.627 20.9311 105.32 21.2358 105.095 21.6364C104.873 22.0369 104.762 22.5227 104.762 23.0938ZM116.778 29.2301C116.156 29.2301 115.591 29.1129 115.084 28.8786C114.577 28.6399 114.174 28.2969 113.876 27.8494C113.577 27.3977 113.428 26.8523 113.428 26.2131C113.428 25.6506 113.539 25.1946 113.761 24.8452C113.982 24.4915 114.278 24.2145 114.649 24.0142C115.02 23.8139 115.429 23.6648 115.876 23.5668C116.328 23.4645 116.782 23.3835 117.238 23.3239C117.835 23.2472 118.318 23.1896 118.689 23.1513C119.064 23.1087 119.337 23.0384 119.507 22.9403C119.682 22.8423 119.769 22.6719 119.769 22.429V22.3778C119.769 21.7472 119.597 21.2571 119.251 20.9077C118.911 20.5582 118.393 20.3835 117.698 20.3835C116.978 20.3835 116.413 20.5412 116.004 20.8565C115.595 21.1719 115.308 21.5085 115.141 21.8665L113.71 21.3551C113.965 20.7585 114.306 20.294 114.732 19.9616C115.163 19.625 115.631 19.3906 116.138 19.2585C116.65 19.1222 117.153 19.054 117.647 19.054C117.962 19.054 118.325 19.0923 118.734 19.169C119.147 19.2415 119.545 19.3928 119.929 19.6229C120.317 19.853 120.638 20.2003 120.894 20.6648C121.15 21.1293 121.278 21.7514 121.278 22.5312V29H119.769V27.6705H119.692C119.59 27.8835 119.42 28.1115 119.181 28.3544C118.942 28.5973 118.625 28.804 118.229 28.9744C117.832 29.1449 117.349 29.2301 116.778 29.2301ZM117.008 27.875C117.604 27.875 118.107 27.7578 118.516 27.5234C118.93 27.2891 119.241 26.9865 119.45 26.6158C119.663 26.245 119.769 25.8551 119.769 25.446V24.0653C119.705 24.142 119.565 24.2124 119.347 24.2763C119.134 24.3359 118.887 24.3892 118.606 24.4361C118.329 24.4787 118.058 24.517 117.794 24.5511C117.534 24.581 117.323 24.6065 117.161 24.6278C116.769 24.679 116.403 24.7621 116.062 24.8771C115.725 24.9879 115.452 25.1562 115.244 25.3821C115.039 25.6037 114.937 25.9062 114.937 26.2898C114.937 26.8139 115.131 27.2102 115.518 27.4787C115.911 27.7429 116.407 27.875 117.008 27.875ZM128.301 19.1818V20.4602H123.213V19.1818H128.301ZM124.696 16.8295H126.204V26.1875C126.204 26.6136 126.266 26.9332 126.39 27.1463C126.518 27.3551 126.68 27.4957 126.876 27.5682C127.076 27.6364 127.287 27.6705 127.508 27.6705C127.675 27.6705 127.811 27.6619 127.917 27.6449C128.024 27.6236 128.109 27.6065 128.173 27.5938L128.48 28.9489C128.378 28.9872 128.235 29.0256 128.052 29.0639C127.868 29.1065 127.636 29.1278 127.355 29.1278C126.929 29.1278 126.511 29.0362 126.102 28.853C125.697 28.6697 125.361 28.3906 125.092 28.0156C124.828 27.6406 124.696 27.1676 124.696 26.5966V16.8295ZM130.986 29V15.9091H132.494V20.7415H132.622C132.733 20.571 132.886 20.3537 133.082 20.0895C133.282 19.821 133.568 19.5824 133.939 19.3736C134.314 19.1605 134.821 19.054 135.46 19.054C136.287 19.054 137.015 19.2607 137.646 19.674C138.277 20.0874 138.769 20.6733 139.123 21.4318C139.476 22.1903 139.653 23.0852 139.653 24.1165C139.653 25.1562 139.476 26.0575 139.123 26.8203C138.769 27.5788 138.279 28.1669 137.653 28.5845C137.026 28.9979 136.304 29.2045 135.486 29.2045C134.855 29.2045 134.35 29.1001 133.971 28.8913C133.591 28.6783 133.3 28.4375 133.095 28.169C132.89 27.8963 132.733 27.6705 132.622 27.4915H132.443V29H130.986ZM132.469 24.0909C132.469 24.8324 132.577 25.4865 132.795 26.0533C133.012 26.6158 133.329 27.0568 133.747 27.3764C134.165 27.6918 134.676 27.8494 135.281 27.8494C135.912 27.8494 136.438 27.6832 136.86 27.3509C137.286 27.0142 137.606 26.5625 137.819 25.9957C138.036 25.4247 138.145 24.7898 138.145 24.0909C138.145 23.4006 138.038 22.7784 137.825 22.2244C137.616 21.6662 137.299 21.2251 136.873 20.9013C136.451 20.5732 135.92 20.4091 135.281 20.4091C134.667 20.4091 134.152 20.5646 133.734 20.8757C133.317 21.1825 133.001 21.6129 132.788 22.1669C132.575 22.7166 132.469 23.358 132.469 24.0909ZM145.949 29.2045C145.063 29.2045 144.285 28.9936 143.616 28.5717C142.952 28.1499 142.432 27.5597 142.057 26.8011C141.686 26.0426 141.501 25.1562 141.501 24.142C141.501 23.1193 141.686 22.2266 142.057 21.4638C142.432 20.701 142.952 20.1087 143.616 19.6868C144.285 19.2649 145.063 19.054 145.949 19.054C146.836 19.054 147.611 19.2649 148.276 19.6868C148.945 20.1087 149.465 20.701 149.836 21.4638C150.211 22.2266 150.398 23.1193 150.398 24.142C150.398 25.1562 150.211 26.0426 149.836 26.8011C149.465 27.5597 148.945 28.1499 148.276 28.5717C147.611 28.9936 146.836 29.2045 145.949 29.2045ZM145.949 27.8494C146.623 27.8494 147.177 27.6768 147.611 27.3317C148.046 26.9865 148.368 26.5327 148.577 25.9702C148.785 25.4077 148.89 24.7983 148.89 24.142C148.89 23.4858 148.785 22.8743 148.577 22.3075C148.368 21.7408 148.046 21.2827 147.611 20.9332C147.177 20.5838 146.623 20.4091 145.949 20.4091C145.276 20.4091 144.722 20.5838 144.287 20.9332C143.853 21.2827 143.531 21.7408 143.322 22.3075C143.113 22.8743 143.009 23.4858 143.009 24.142C143.009 24.7983 143.113 25.4077 143.322 25.9702C143.531 26.5327 143.853 26.9865 144.287 27.3317C144.722 27.6768 145.276 27.8494 145.949 27.8494ZM156.971 19.1818V20.4602H151.883V19.1818H156.971ZM153.366 16.8295H154.874V26.1875C154.874 26.6136 154.936 26.9332 155.06 27.1463C155.188 27.3551 155.349 27.4957 155.545 27.5682C155.746 27.6364 155.957 27.6705 156.178 27.6705C156.344 27.6705 156.481 27.6619 156.587 27.6449C156.694 27.6236 156.779 27.6065 156.843 27.5938L157.15 28.9489C157.048 28.9872 156.905 29.0256 156.722 29.0639C156.538 29.1065 156.306 29.1278 156.025 29.1278C155.599 29.1278 155.181 29.0362 154.772 28.853C154.367 28.6697 154.031 28.3906 153.762 28.0156C153.498 27.6406 153.366 27.1676 153.366 26.5966V16.8295Z" fill="#6F6C99"/>
<defs>
<filter id="filter0_d_428_1614" x="-5" y="0.499512" width="63.333" height="63.3331" filterUnits="userSpaceOnUse" color-interpolation-filters="sRGB">
<feFlood flood-opacity="0" result="BackgroundImageFix"/>
<feColorMatrix in="SourceAlpha" type="matrix" values="0 0 0 0 0 0 0 0 0 0 0 0 0 0 0 0 0 0 127 0" result="hardAlpha"/>
<feOffset dy="6"/>
<feGaussianBlur stdDeviation="12.5"/>
<feColorMatrix type="matrix" values="0 0 0 0 0.602048 0 0 0 0 0.949963 0 0 0 0 0.930168 0 0 0 0.355129 0"/>
<feBlend mode="normal" in2="BackgroundImageFix" result="effect1_dropShadow_428_1614"/>
<feBlend mode="normal" in="SourceGraphic" in2="effect1_dropShadow_428_1614" result="shape"/>
</filter>
<filter id="filter1_d_428_1614" x="18.8335" y="7.66699" width="30.6665" height="30.6665" filterUnits="userSpaceOnUse" color-interpolation-filters="sRGB">
<feFlood flood-opacity="0" result="BackgroundImageFix"/>
<feColorMatrix in="SourceAlpha" type="matrix" values="0 0 0 0 0 0 0 0 0 0 0 0 0 0 0 0 0 0 127 0" result="hardAlpha"/>
<feOffset dy="6"/>
<feGaussianBlur stdDeviation="4.5"/>
<feColorMatrix type="matrix" values="0 0 0 0 0.467047 0 0 0 0 0.435035 0 0 0 0 0.779167 0 0 0 1 0"/>
<feBlend mode="normal" in2="BackgroundImageFix" result="effect1_dropShadow_428_1614"/>
<feBlend mode="normal" in="SourceGraphic" in2="effect1_dropShadow_428_1614" result="shape"/>
</filter>
</defs>
</svg>
